%TF.GenerationSoftware,KiCad,Pcbnew,8.0.4*%
%TF.CreationDate,2024-10-25T14:16:06-05:00*%
%TF.ProjectId,weather-station-rtd,77656174-6865-4722-9d73-746174696f6e,rev?*%
%TF.SameCoordinates,Original*%
%TF.FileFunction,Copper,L1,Top*%
%TF.FilePolarity,Positive*%
%FSLAX46Y46*%
G04 Gerber Fmt 4.6, Leading zero omitted, Abs format (unit mm)*
G04 Created by KiCad (PCBNEW 8.0.4) date 2024-10-25 14:16:06*
%MOMM*%
%LPD*%
G01*
G04 APERTURE LIST*
G04 Aperture macros list*
%AMRoundRect*
0 Rectangle with rounded corners*
0 $1 Rounding radius*
0 $2 $3 $4 $5 $6 $7 $8 $9 X,Y pos of 4 corners*
0 Add a 4 corners polygon primitive as box body*
4,1,4,$2,$3,$4,$5,$6,$7,$8,$9,$2,$3,0*
0 Add four circle primitives for the rounded corners*
1,1,$1+$1,$2,$3*
1,1,$1+$1,$4,$5*
1,1,$1+$1,$6,$7*
1,1,$1+$1,$8,$9*
0 Add four rect primitives between the rounded corners*
20,1,$1+$1,$2,$3,$4,$5,0*
20,1,$1+$1,$4,$5,$6,$7,0*
20,1,$1+$1,$6,$7,$8,$9,0*
20,1,$1+$1,$8,$9,$2,$3,0*%
%AMFreePoly0*
4,1,19,0.550000,-0.750000,0.000000,-0.750000,0.000000,-0.744911,-0.071157,-0.744911,-0.207708,-0.704816,-0.327430,-0.627875,-0.420627,-0.520320,-0.479746,-0.390866,-0.500000,-0.250000,-0.500000,0.250000,-0.479746,0.390866,-0.420627,0.520320,-0.327430,0.627875,-0.207708,0.704816,-0.071157,0.744911,0.000000,0.744911,0.000000,0.750000,0.550000,0.750000,0.550000,-0.750000,0.550000,-0.750000,
$1*%
%AMFreePoly1*
4,1,19,0.000000,0.744911,0.071157,0.744911,0.207708,0.704816,0.327430,0.627875,0.420627,0.520320,0.479746,0.390866,0.500000,0.250000,0.500000,-0.250000,0.479746,-0.390866,0.420627,-0.520320,0.327430,-0.627875,0.207708,-0.704816,0.071157,-0.744911,0.000000,-0.744911,0.000000,-0.750000,-0.550000,-0.750000,-0.550000,0.750000,0.000000,0.750000,0.000000,0.744911,0.000000,0.744911,
$1*%
%AMFreePoly2*
4,1,6,1.000000,0.000000,0.500000,-0.750000,-0.500000,-0.750000,-0.500000,0.750000,0.500000,0.750000,1.000000,0.000000,1.000000,0.000000,$1*%
%AMFreePoly3*
4,1,6,0.500000,-0.750000,-0.650000,-0.750000,-0.150000,0.000000,-0.650000,0.750000,0.500000,0.750000,0.500000,-0.750000,0.500000,-0.750000,$1*%
G04 Aperture macros list end*
%TA.AperFunction,SMDPad,CuDef*%
%ADD10R,0.970000X1.730000*%
%TD*%
%TA.AperFunction,SMDPad,CuDef*%
%ADD11FreePoly0,0.000000*%
%TD*%
%TA.AperFunction,SMDPad,CuDef*%
%ADD12R,1.000000X1.500000*%
%TD*%
%TA.AperFunction,SMDPad,CuDef*%
%ADD13FreePoly1,0.000000*%
%TD*%
%TA.AperFunction,SMDPad,CuDef*%
%ADD14RoundRect,0.250000X-0.250000X-0.475000X0.250000X-0.475000X0.250000X0.475000X-0.250000X0.475000X0*%
%TD*%
%TA.AperFunction,SMDPad,CuDef*%
%ADD15FreePoly2,90.000000*%
%TD*%
%TA.AperFunction,SMDPad,CuDef*%
%ADD16FreePoly3,90.000000*%
%TD*%
%TA.AperFunction,SMDPad,CuDef*%
%ADD17RoundRect,0.250000X-0.475000X0.250000X-0.475000X-0.250000X0.475000X-0.250000X0.475000X0.250000X0*%
%TD*%
%TA.AperFunction,SMDPad,CuDef*%
%ADD18RoundRect,0.250000X0.475000X-0.250000X0.475000X0.250000X-0.475000X0.250000X-0.475000X-0.250000X0*%
%TD*%
%TA.AperFunction,SMDPad,CuDef*%
%ADD19RoundRect,0.075000X-0.075000X0.337500X-0.075000X-0.337500X0.075000X-0.337500X0.075000X0.337500X0*%
%TD*%
%TA.AperFunction,SMDPad,CuDef*%
%ADD20RoundRect,0.075000X-0.337500X0.075000X-0.337500X-0.075000X0.337500X-0.075000X0.337500X0.075000X0*%
%TD*%
%TA.AperFunction,HeatsinkPad*%
%ADD21R,3.250000X3.250000*%
%TD*%
%TA.AperFunction,SMDPad,CuDef*%
%ADD22RoundRect,0.100000X-0.100000X0.637500X-0.100000X-0.637500X0.100000X-0.637500X0.100000X0.637500X0*%
%TD*%
%TA.AperFunction,ComponentPad*%
%ADD23R,1.800000X1.800000*%
%TD*%
%TA.AperFunction,ComponentPad*%
%ADD24C,1.800000*%
%TD*%
%TA.AperFunction,SMDPad,CuDef*%
%ADD25FreePoly2,270.000000*%
%TD*%
%TA.AperFunction,SMDPad,CuDef*%
%ADD26FreePoly3,270.000000*%
%TD*%
%TA.AperFunction,SMDPad,CuDef*%
%ADD27RoundRect,0.375000X-0.625000X-0.375000X0.625000X-0.375000X0.625000X0.375000X-0.625000X0.375000X0*%
%TD*%
%TA.AperFunction,SMDPad,CuDef*%
%ADD28RoundRect,0.500000X-0.500000X-1.400000X0.500000X-1.400000X0.500000X1.400000X-0.500000X1.400000X0*%
%TD*%
%TA.AperFunction,ComponentPad*%
%ADD29R,1.700000X1.700000*%
%TD*%
%TA.AperFunction,ComponentPad*%
%ADD30O,1.700000X1.700000*%
%TD*%
%TA.AperFunction,ViaPad*%
%ADD31C,0.600000*%
%TD*%
%TA.AperFunction,Conductor*%
%ADD32C,0.300000*%
%TD*%
%TA.AperFunction,Conductor*%
%ADD33C,0.150000*%
%TD*%
G04 APERTURE END LIST*
D10*
%TO.P,R1,1*%
%TO.N,Net-(U1-ISENSOR)*%
X165855200Y-91998800D03*
%TO.P,R1,2*%
%TO.N,Net-(U1-BIAS)*%
X168815200Y-91998800D03*
%TD*%
D11*
%TO.P,JP3,1,A*%
%TO.N,/FORCE+*%
X161450000Y-90750000D03*
D12*
%TO.P,JP3,2,C*%
%TO.N,/FORCE2*%
X162750000Y-90750000D03*
D13*
%TO.P,JP3,3,B*%
%TO.N,GND*%
X164050000Y-90750000D03*
%TD*%
D14*
%TO.P,C4,1*%
%TO.N,VIN*%
X171550000Y-110000000D03*
%TO.P,C4,2*%
%TO.N,GND*%
X173450000Y-110000000D03*
%TD*%
D15*
%TO.P,JP1,1,A*%
%TO.N,/FORCE-*%
X155500000Y-96785000D03*
D16*
%TO.P,JP1,2,B*%
%TO.N,/RTDIN-*%
X155500000Y-95335000D03*
%TD*%
D17*
%TO.P,C3,1*%
%TO.N,/RTDIN+*%
X159250000Y-93800000D03*
%TO.P,C3,2*%
%TO.N,/RTDIN-*%
X159250000Y-95700000D03*
%TD*%
D18*
%TO.P,R2,1*%
%TO.N,VDD*%
X161250000Y-100450000D03*
%TO.P,R2,2*%
%TO.N,Net-(U3-OE)*%
X161250000Y-98550000D03*
%TD*%
D14*
%TO.P,C1,1*%
%TO.N,VIN*%
X155450000Y-109750000D03*
%TO.P,C1,2*%
%TO.N,GND*%
X157350000Y-109750000D03*
%TD*%
D19*
%TO.P,U1,1,BIAS*%
%TO.N,Net-(U1-BIAS)*%
X167400000Y-93875000D03*
%TO.P,U1,2,REFIN+*%
X166750000Y-93875000D03*
%TO.P,U1,3,REFIN-*%
%TO.N,Net-(U1-ISENSOR)*%
X166100000Y-93875000D03*
%TO.P,U1,4,ISENSOR*%
X165450000Y-93875000D03*
%TO.P,U1,5,FORCE+*%
%TO.N,/FORCE+*%
X164800000Y-93875000D03*
D20*
%TO.P,U1,6,FORCE2*%
%TO.N,/FORCE2*%
X163662500Y-95012500D03*
%TO.P,U1,7,RTDIN+*%
%TO.N,/RTDIN+*%
X163662500Y-95662500D03*
%TO.P,U1,8,RTDIN-*%
%TO.N,/RTDIN-*%
X163662500Y-96312500D03*
%TO.P,U1,9,FORCE-*%
%TO.N,/FORCE-*%
X163662500Y-96962500D03*
%TO.P,U1,10,GND*%
%TO.N,GND*%
X163662500Y-97612500D03*
D19*
%TO.P,U1,11,SDI*%
%TO.N,/IC_SDI*%
X164800000Y-98750000D03*
%TO.P,U1,12,SCLK*%
%TO.N,/IC_SCLK*%
X165450000Y-98750000D03*
%TO.P,U1,13,~{CS}*%
%TO.N,/IC_CS*%
X166100000Y-98750000D03*
%TO.P,U1,14,SDO*%
%TO.N,/IC_SDO*%
X166750000Y-98750000D03*
%TO.P,U1,15,DGND*%
%TO.N,GND*%
X167400000Y-98750000D03*
D20*
%TO.P,U1,16,GND*%
X168537500Y-97612500D03*
%TO.P,U1,17,NC*%
%TO.N,unconnected-(U1-NC-Pad17)*%
X168537500Y-96962500D03*
%TO.P,U1,18,~{DRDY}*%
%TO.N,/IC_DRDY*%
X168537500Y-96312500D03*
%TO.P,U1,19,DVDD*%
%TO.N,VDD*%
X168537500Y-95662500D03*
%TO.P,U1,20,VDD*%
X168537500Y-95012500D03*
D21*
%TO.P,U1,21,GND*%
%TO.N,GND*%
X166100000Y-96312500D03*
%TD*%
D22*
%TO.P,U3,1,A1*%
%TO.N,unconnected-(U3-A1-Pad1)*%
X170175000Y-103137500D03*
%TO.P,U3,2,V_{CCA}*%
%TO.N,VDD*%
X169525000Y-103137500D03*
%TO.P,U3,3,A2*%
%TO.N,unconnected-(U3-A2-Pad3)*%
X168875000Y-103137500D03*
%TO.P,U3,4,A3*%
%TO.N,unconnected-(U3-A3-Pad4)*%
X168225000Y-103137500D03*
%TO.P,U3,5,A4*%
%TO.N,/IC_SDO*%
X167575000Y-103137500D03*
%TO.P,U3,6,A5*%
%TO.N,/IC_CS*%
X166925000Y-103137500D03*
%TO.P,U3,7,A6*%
%TO.N,/IC_SCLK*%
X166275000Y-103137500D03*
%TO.P,U3,8,A7*%
%TO.N,/IC_SDI*%
X165625000Y-103137500D03*
%TO.P,U3,9,A8*%
%TO.N,/IC_DRDY*%
X164975000Y-103137500D03*
%TO.P,U3,10,OE*%
%TO.N,Net-(U3-OE)*%
X164325000Y-103137500D03*
%TO.P,U3,11,GND*%
%TO.N,GND*%
X164325000Y-108862500D03*
%TO.P,U3,12,B8*%
%TO.N,/IN_DRDY*%
X164975000Y-108862500D03*
%TO.P,U3,13,B7*%
%TO.N,/IN_SDI*%
X165625000Y-108862500D03*
%TO.P,U3,14,B6*%
%TO.N,/IN_SCLK*%
X166275000Y-108862500D03*
%TO.P,U3,15,B5*%
%TO.N,/IN_CS*%
X166925000Y-108862500D03*
%TO.P,U3,16,B4*%
%TO.N,/IN_SDO*%
X167575000Y-108862500D03*
%TO.P,U3,17,B3*%
%TO.N,unconnected-(U3-B3-Pad17)*%
X168225000Y-108862500D03*
%TO.P,U3,18,B2*%
%TO.N,unconnected-(U3-B2-Pad18)*%
X168875000Y-108862500D03*
%TO.P,U3,19,V_{CCB}*%
%TO.N,VIN*%
X169525000Y-108862500D03*
%TO.P,U3,20,B1*%
%TO.N,unconnected-(U3-B1-Pad20)*%
X170175000Y-108862500D03*
%TD*%
D23*
%TO.P,J2,1,1*%
%TO.N,/FORCE-*%
X150500000Y-97870000D03*
D24*
%TO.P,J2,2,2*%
%TO.N,/RTDIN-*%
X150500000Y-95330000D03*
%TO.P,J2,3,3*%
%TO.N,/FORCE+*%
X150500000Y-92790000D03*
%TO.P,J2,4,4*%
%TO.N,/RTDIN+*%
X150500000Y-90250000D03*
%TD*%
D14*
%TO.P,C5,1*%
%TO.N,VDD*%
X169550000Y-100500000D03*
%TO.P,C5,2*%
%TO.N,GND*%
X171450000Y-100500000D03*
%TD*%
D17*
%TO.P,C2,1*%
%TO.N,VDD*%
X153400000Y-104800000D03*
%TO.P,C2,2*%
%TO.N,GND*%
X153400000Y-106700000D03*
%TD*%
D25*
%TO.P,JP2,1,A*%
%TO.N,/RTDIN+*%
X155500000Y-91585000D03*
D26*
%TO.P,JP2,2,B*%
%TO.N,/FORCE+*%
X155500000Y-93035000D03*
%TD*%
D27*
%TO.P,U2,1,GND*%
%TO.N,GND*%
X156000000Y-102700000D03*
%TO.P,U2,2,VO*%
%TO.N,VDD*%
X156000000Y-105000000D03*
D28*
X162300000Y-105000000D03*
D27*
%TO.P,U2,3,VI*%
%TO.N,VIN*%
X156000000Y-107300000D03*
%TD*%
D29*
%TO.P,J1,1,Pin_1*%
%TO.N,/IN_SDO*%
X170580000Y-113000000D03*
D30*
%TO.P,J1,2,Pin_2*%
%TO.N,/IN_CS*%
X168040000Y-113000000D03*
%TO.P,J1,3,Pin_3*%
%TO.N,/IN_SCLK*%
X165500000Y-113000000D03*
%TO.P,J1,4,Pin_4*%
%TO.N,/IN_SDI*%
X162960000Y-113000000D03*
%TO.P,J1,5,Pin_5*%
%TO.N,/IN_DRDY*%
X160420000Y-113000000D03*
%TO.P,J1,6,Pin_6*%
%TO.N,GND*%
X157880000Y-113000000D03*
%TO.P,J1,7,Pin_7*%
%TO.N,VIN*%
X155340000Y-113000000D03*
%TD*%
D31*
%TO.N,GND*%
X158750000Y-109750000D03*
X171500000Y-102000000D03*
X162750000Y-98000000D03*
X169925000Y-97750000D03*
X163250000Y-109250000D03*
X153500000Y-108000000D03*
X167500000Y-99750000D03*
X158250000Y-103000000D03*
X165000000Y-89000000D03*
X173250000Y-108500000D03*
%TO.N,/FORCE+*%
X157140380Y-92859620D03*
X158059620Y-91940380D03*
%TO.N,/FORCE2*%
X163250000Y-92750000D03*
X162250000Y-93750000D03*
%TO.N,/IC_DRDY*%
X165000000Y-101750000D03*
X169750000Y-99000000D03*
%TD*%
D32*
%TO.N,GND*%
X163662500Y-97612500D02*
X163137500Y-97612500D01*
X169787500Y-97612500D02*
X169925000Y-97750000D01*
X156000000Y-102700000D02*
X157950000Y-102700000D01*
X157350000Y-109750000D02*
X158750000Y-109750000D01*
X167400000Y-97612500D02*
X168537500Y-97612500D01*
X164050000Y-90750000D02*
X164050000Y-89950000D01*
X164325000Y-108862500D02*
X163637500Y-108862500D01*
X166100000Y-96312500D02*
X167400000Y-97612500D01*
X171450000Y-100500000D02*
X171450000Y-101950000D01*
X173450000Y-110000000D02*
X173450000Y-108700000D01*
X164800000Y-97612500D02*
X163662500Y-97612500D01*
X163637500Y-108862500D02*
X163250000Y-109250000D01*
X164050000Y-89950000D02*
X165000000Y-89000000D01*
X173450000Y-108700000D02*
X173250000Y-108500000D01*
X157950000Y-102700000D02*
X158250000Y-103000000D01*
X167400000Y-97612500D02*
X167400000Y-98750000D01*
X167400000Y-99650000D02*
X167500000Y-99750000D01*
X171450000Y-101950000D02*
X171500000Y-102000000D01*
X153400000Y-107900000D02*
X153500000Y-108000000D01*
X168537500Y-97612500D02*
X169787500Y-97612500D01*
X166100000Y-96312500D02*
X164800000Y-97612500D01*
X163137500Y-97612500D02*
X162750000Y-98000000D01*
X153400000Y-106700000D02*
X153400000Y-107900000D01*
X167400000Y-98750000D02*
X167400000Y-99650000D01*
%TO.N,VIN*%
X155450000Y-107850000D02*
X156000000Y-107300000D01*
X155340000Y-109860000D02*
X155450000Y-109750000D01*
X169525000Y-109599999D02*
X169525000Y-108862500D01*
X169925001Y-110000000D02*
X169525000Y-109599999D01*
X171550000Y-110000000D02*
X169925001Y-110000000D01*
X168699999Y-107300000D02*
X169525000Y-108125001D01*
X169525000Y-108125001D02*
X169525000Y-108862500D01*
X155450000Y-109750000D02*
X155450000Y-107850000D01*
X156000000Y-107300000D02*
X168699999Y-107300000D01*
X155340000Y-113000000D02*
X155340000Y-109860000D01*
%TO.N,VDD*%
X169525000Y-100525000D02*
X169550000Y-100500000D01*
X168889168Y-104500000D02*
X162800000Y-104500000D01*
X171250000Y-96824480D02*
X171250000Y-98800000D01*
X169525000Y-103864168D02*
X168889168Y-104500000D01*
X168537500Y-95662500D02*
X170088020Y-95662500D01*
X162300000Y-101500000D02*
X162300000Y-105000000D01*
X155800000Y-104800000D02*
X156000000Y-105000000D01*
X153400000Y-104800000D02*
X155800000Y-104800000D01*
X170088020Y-95662500D02*
X171250000Y-96824480D01*
X169525000Y-103137500D02*
X169525000Y-100525000D01*
X162300000Y-105000000D02*
X156000000Y-105000000D01*
X161250000Y-100450000D02*
X162300000Y-101500000D01*
X168537500Y-95662500D02*
X168537500Y-95012500D01*
X162800000Y-104500000D02*
X162300000Y-105000000D01*
X169525000Y-103137500D02*
X169525000Y-103864168D01*
X171250000Y-98800000D02*
X169550000Y-100500000D01*
%TO.N,/RTDIN-*%
X150505000Y-95335000D02*
X150500000Y-95330000D01*
X155500000Y-95335000D02*
X158885000Y-95335000D01*
X155500000Y-95335000D02*
X150505000Y-95335000D01*
X158885000Y-95335000D02*
X159250000Y-95700000D01*
X163662500Y-96312500D02*
X159862500Y-96312500D01*
X159862500Y-96312500D02*
X159250000Y-95700000D01*
%TO.N,/RTDIN+*%
X159000000Y-93800000D02*
X159250000Y-93800000D01*
X163162500Y-95662500D02*
X161300000Y-93800000D01*
X155500000Y-91585000D02*
X151835000Y-91585000D01*
X151835000Y-91585000D02*
X150500000Y-90250000D01*
X161300000Y-93800000D02*
X159250000Y-93800000D01*
X156785000Y-91585000D02*
X159000000Y-93800000D01*
X155500000Y-91585000D02*
X156785000Y-91585000D01*
X163662500Y-95662500D02*
X163162500Y-95662500D01*
D33*
%TO.N,/IN_SDO*%
X170580000Y-113000000D02*
X170580000Y-112488102D01*
X170580000Y-112488102D02*
X167575000Y-109483102D01*
X167575000Y-109483102D02*
X167575000Y-108862500D01*
%TO.N,/IN_SDI*%
X165625000Y-110335000D02*
X165625000Y-108862500D01*
X162960000Y-113000000D02*
X165625000Y-110335000D01*
%TO.N,/IN_SCLK*%
X166275000Y-112225000D02*
X166275000Y-108862500D01*
X165500000Y-113000000D02*
X166275000Y-112225000D01*
%TO.N,/IN_CS*%
X168040000Y-113000000D02*
X166925000Y-111885000D01*
X166925000Y-111885000D02*
X166925000Y-108862500D01*
%TO.N,/IN_DRDY*%
X164975000Y-109599999D02*
X164324999Y-110250000D01*
X162750000Y-110250000D02*
X160420000Y-112580000D01*
X160420000Y-112580000D02*
X160420000Y-113000000D01*
X164324999Y-110250000D02*
X162750000Y-110250000D01*
X164975000Y-108862500D02*
X164975000Y-109599999D01*
D32*
%TO.N,/FORCE-*%
X155965000Y-97250000D02*
X155500000Y-96785000D01*
X151585000Y-96785000D02*
X150500000Y-97870000D01*
X160869239Y-97250000D02*
X155965000Y-97250000D01*
X155500000Y-96785000D02*
X151585000Y-96785000D01*
X161156739Y-96962500D02*
X160869239Y-97250000D01*
X163662500Y-96962500D02*
X161156739Y-96962500D01*
%TO.N,/FORCE+*%
X161450000Y-91869239D02*
X161450000Y-90750000D01*
X155500000Y-93035000D02*
X156965000Y-93035000D01*
X158059620Y-91940380D02*
X158500000Y-91500000D01*
X160700000Y-91500000D02*
X161450000Y-90750000D01*
X155500000Y-93035000D02*
X150745000Y-93035000D01*
X164800000Y-93875000D02*
X163455761Y-93875000D01*
X156965000Y-93035000D02*
X157140380Y-92859620D01*
X150745000Y-93035000D02*
X150500000Y-92790000D01*
X163455761Y-93875000D02*
X161450000Y-91869239D01*
X158500000Y-91500000D02*
X160700000Y-91500000D01*
%TO.N,/FORCE2*%
X163512500Y-95012500D02*
X162250000Y-93750000D01*
X162750000Y-92250000D02*
X162750000Y-90750000D01*
X163250000Y-92750000D02*
X162750000Y-92250000D01*
X163662500Y-95012500D02*
X163512500Y-95012500D01*
D33*
%TO.N,Net-(U1-BIAS)*%
X167400000Y-93414000D02*
X168815200Y-91998800D01*
X167400000Y-93875000D02*
X166750000Y-93875000D01*
X167400000Y-93875000D02*
X167400000Y-93414000D01*
%TO.N,Net-(U1-ISENSOR)*%
X165855200Y-93497200D02*
X165855200Y-91998800D01*
X166100000Y-93875000D02*
X165450000Y-93875000D01*
X166100000Y-93875000D02*
X166100000Y-93742000D01*
X166100000Y-93742000D02*
X165855200Y-93497200D01*
%TO.N,Net-(U3-OE)*%
X161250000Y-98550000D02*
X161986827Y-98550000D01*
X161986827Y-98550000D02*
X164325000Y-100888173D01*
X164325000Y-100888173D02*
X164325000Y-103137500D01*
%TO.N,/IC_SDI*%
X164800000Y-100050000D02*
X164800000Y-98750000D01*
X165625000Y-100875000D02*
X164800000Y-100050000D01*
X165625000Y-103137500D02*
X165625000Y-100875000D01*
%TO.N,/IC_SCLK*%
X166275000Y-100775000D02*
X165450000Y-99950000D01*
X166275000Y-103137500D02*
X166275000Y-100775000D01*
X165450000Y-99950000D02*
X165450000Y-98750000D01*
%TO.N,/IC_DRDY*%
X170500000Y-98250000D02*
X170500000Y-97250000D01*
X164975000Y-103137500D02*
X164975000Y-101775000D01*
X170500000Y-97250000D02*
X169562500Y-96312500D01*
X169750000Y-99000000D02*
X170500000Y-98250000D01*
X169562500Y-96312500D02*
X168537500Y-96312500D01*
X164975000Y-101775000D02*
X165000000Y-101750000D01*
%TO.N,/IC_CS*%
X166925000Y-103137500D02*
X166925000Y-100925000D01*
X166925000Y-100925000D02*
X166100000Y-100100000D01*
X166100000Y-100100000D02*
X166100000Y-98750000D01*
%TO.N,/IC_SDO*%
X167575000Y-103137500D02*
X167575000Y-100731587D01*
X166750000Y-99906587D02*
X166750000Y-98750000D01*
X167575000Y-100731587D02*
X166750000Y-99906587D01*
%TD*%
M02*
