%TF.GenerationSoftware,KiCad,Pcbnew,8.0.4*%
%TF.CreationDate,2024-10-25T14:16:06-05:00*%
%TF.ProjectId,weather-station-rtd,77656174-6865-4722-9d73-746174696f6e,rev?*%
%TF.SameCoordinates,Original*%
%TF.FileFunction,Legend,Top*%
%TF.FilePolarity,Positive*%
%FSLAX46Y46*%
G04 Gerber Fmt 4.6, Leading zero omitted, Abs format (unit mm)*
G04 Created by KiCad (PCBNEW 8.0.4) date 2024-10-25 14:16:06*
%MOMM*%
%LPD*%
G01*
G04 APERTURE LIST*
%ADD10C,0.127000*%
%ADD11C,0.150000*%
%ADD12C,0.120000*%
%ADD13C,0.200000*%
G04 APERTURE END LIST*
D10*
X170180637Y-115385096D02*
X170266352Y-115420810D01*
X170266352Y-115420810D02*
X170409209Y-115420810D01*
X170409209Y-115420810D02*
X170466352Y-115385096D01*
X170466352Y-115385096D02*
X170494923Y-115349381D01*
X170494923Y-115349381D02*
X170523494Y-115277953D01*
X170523494Y-115277953D02*
X170523494Y-115206524D01*
X170523494Y-115206524D02*
X170494923Y-115135096D01*
X170494923Y-115135096D02*
X170466352Y-115099381D01*
X170466352Y-115099381D02*
X170409209Y-115063667D01*
X170409209Y-115063667D02*
X170294923Y-115027953D01*
X170294923Y-115027953D02*
X170237780Y-114992238D01*
X170237780Y-114992238D02*
X170209209Y-114956524D01*
X170209209Y-114956524D02*
X170180637Y-114885096D01*
X170180637Y-114885096D02*
X170180637Y-114813667D01*
X170180637Y-114813667D02*
X170209209Y-114742238D01*
X170209209Y-114742238D02*
X170237780Y-114706524D01*
X170237780Y-114706524D02*
X170294923Y-114670810D01*
X170294923Y-114670810D02*
X170437780Y-114670810D01*
X170437780Y-114670810D02*
X170523494Y-114706524D01*
X170780638Y-115420810D02*
X170780638Y-114670810D01*
X170780638Y-114670810D02*
X170923495Y-114670810D01*
X170923495Y-114670810D02*
X171009209Y-114706524D01*
X171009209Y-114706524D02*
X171066352Y-114777953D01*
X171066352Y-114777953D02*
X171094923Y-114849381D01*
X171094923Y-114849381D02*
X171123495Y-114992238D01*
X171123495Y-114992238D02*
X171123495Y-115099381D01*
X171123495Y-115099381D02*
X171094923Y-115242238D01*
X171094923Y-115242238D02*
X171066352Y-115313667D01*
X171066352Y-115313667D02*
X171009209Y-115385096D01*
X171009209Y-115385096D02*
X170923495Y-115420810D01*
X170923495Y-115420810D02*
X170780638Y-115420810D01*
X171494923Y-114670810D02*
X171609209Y-114670810D01*
X171609209Y-114670810D02*
X171666352Y-114706524D01*
X171666352Y-114706524D02*
X171723495Y-114777953D01*
X171723495Y-114777953D02*
X171752066Y-114920810D01*
X171752066Y-114920810D02*
X171752066Y-115170810D01*
X171752066Y-115170810D02*
X171723495Y-115313667D01*
X171723495Y-115313667D02*
X171666352Y-115385096D01*
X171666352Y-115385096D02*
X171609209Y-115420810D01*
X171609209Y-115420810D02*
X171494923Y-115420810D01*
X171494923Y-115420810D02*
X171437781Y-115385096D01*
X171437781Y-115385096D02*
X171380638Y-115313667D01*
X171380638Y-115313667D02*
X171352066Y-115170810D01*
X171352066Y-115170810D02*
X171352066Y-114920810D01*
X171352066Y-114920810D02*
X171380638Y-114777953D01*
X171380638Y-114777953D02*
X171437781Y-114706524D01*
X171437781Y-114706524D02*
X171494923Y-114670810D01*
X157523494Y-114706524D02*
X157466352Y-114670810D01*
X157466352Y-114670810D02*
X157380637Y-114670810D01*
X157380637Y-114670810D02*
X157294923Y-114706524D01*
X157294923Y-114706524D02*
X157237780Y-114777953D01*
X157237780Y-114777953D02*
X157209209Y-114849381D01*
X157209209Y-114849381D02*
X157180637Y-114992238D01*
X157180637Y-114992238D02*
X157180637Y-115099381D01*
X157180637Y-115099381D02*
X157209209Y-115242238D01*
X157209209Y-115242238D02*
X157237780Y-115313667D01*
X157237780Y-115313667D02*
X157294923Y-115385096D01*
X157294923Y-115385096D02*
X157380637Y-115420810D01*
X157380637Y-115420810D02*
X157437780Y-115420810D01*
X157437780Y-115420810D02*
X157523494Y-115385096D01*
X157523494Y-115385096D02*
X157552066Y-115349381D01*
X157552066Y-115349381D02*
X157552066Y-115099381D01*
X157552066Y-115099381D02*
X157437780Y-115099381D01*
X157809209Y-115420810D02*
X157809209Y-114670810D01*
X157809209Y-114670810D02*
X158152066Y-115420810D01*
X158152066Y-115420810D02*
X158152066Y-114670810D01*
X158437780Y-115420810D02*
X158437780Y-114670810D01*
X158437780Y-114670810D02*
X158580637Y-114670810D01*
X158580637Y-114670810D02*
X158666351Y-114706524D01*
X158666351Y-114706524D02*
X158723494Y-114777953D01*
X158723494Y-114777953D02*
X158752065Y-114849381D01*
X158752065Y-114849381D02*
X158780637Y-114992238D01*
X158780637Y-114992238D02*
X158780637Y-115099381D01*
X158780637Y-115099381D02*
X158752065Y-115242238D01*
X158752065Y-115242238D02*
X158723494Y-115313667D01*
X158723494Y-115313667D02*
X158666351Y-115385096D01*
X158666351Y-115385096D02*
X158580637Y-115420810D01*
X158580637Y-115420810D02*
X158437780Y-115420810D01*
X155476409Y-89723038D02*
X155512123Y-89687324D01*
X155512123Y-89687324D02*
X155583552Y-89651610D01*
X155583552Y-89651610D02*
X155762123Y-89651610D01*
X155762123Y-89651610D02*
X155833552Y-89687324D01*
X155833552Y-89687324D02*
X155869266Y-89723038D01*
X155869266Y-89723038D02*
X155904980Y-89794467D01*
X155904980Y-89794467D02*
X155904980Y-89865896D01*
X155904980Y-89865896D02*
X155869266Y-89973038D01*
X155869266Y-89973038D02*
X155440694Y-90401610D01*
X155440694Y-90401610D02*
X155904980Y-90401610D01*
X154623494Y-114670810D02*
X154823494Y-115420810D01*
X154823494Y-115420810D02*
X155023494Y-114670810D01*
X155223495Y-115420810D02*
X155223495Y-114670810D01*
X155509209Y-115420810D02*
X155509209Y-114670810D01*
X155509209Y-114670810D02*
X155852066Y-115420810D01*
X155852066Y-115420810D02*
X155852066Y-114670810D01*
X164930637Y-115385096D02*
X165016352Y-115420810D01*
X165016352Y-115420810D02*
X165159209Y-115420810D01*
X165159209Y-115420810D02*
X165216352Y-115385096D01*
X165216352Y-115385096D02*
X165244923Y-115349381D01*
X165244923Y-115349381D02*
X165273494Y-115277953D01*
X165273494Y-115277953D02*
X165273494Y-115206524D01*
X165273494Y-115206524D02*
X165244923Y-115135096D01*
X165244923Y-115135096D02*
X165216352Y-115099381D01*
X165216352Y-115099381D02*
X165159209Y-115063667D01*
X165159209Y-115063667D02*
X165044923Y-115027953D01*
X165044923Y-115027953D02*
X164987780Y-114992238D01*
X164987780Y-114992238D02*
X164959209Y-114956524D01*
X164959209Y-114956524D02*
X164930637Y-114885096D01*
X164930637Y-114885096D02*
X164930637Y-114813667D01*
X164930637Y-114813667D02*
X164959209Y-114742238D01*
X164959209Y-114742238D02*
X164987780Y-114706524D01*
X164987780Y-114706524D02*
X165044923Y-114670810D01*
X165044923Y-114670810D02*
X165187780Y-114670810D01*
X165187780Y-114670810D02*
X165273494Y-114706524D01*
X165873495Y-115349381D02*
X165844923Y-115385096D01*
X165844923Y-115385096D02*
X165759209Y-115420810D01*
X165759209Y-115420810D02*
X165702066Y-115420810D01*
X165702066Y-115420810D02*
X165616352Y-115385096D01*
X165616352Y-115385096D02*
X165559209Y-115313667D01*
X165559209Y-115313667D02*
X165530638Y-115242238D01*
X165530638Y-115242238D02*
X165502066Y-115099381D01*
X165502066Y-115099381D02*
X165502066Y-114992238D01*
X165502066Y-114992238D02*
X165530638Y-114849381D01*
X165530638Y-114849381D02*
X165559209Y-114777953D01*
X165559209Y-114777953D02*
X165616352Y-114706524D01*
X165616352Y-114706524D02*
X165702066Y-114670810D01*
X165702066Y-114670810D02*
X165759209Y-114670810D01*
X165759209Y-114670810D02*
X165844923Y-114706524D01*
X165844923Y-114706524D02*
X165873495Y-114742238D01*
X166416352Y-115420810D02*
X166130638Y-115420810D01*
X166130638Y-115420810D02*
X166130638Y-114670810D01*
X166616352Y-115420810D02*
X166616352Y-114670810D01*
X166959209Y-115420810D02*
X166702066Y-114992238D01*
X166959209Y-114670810D02*
X166616352Y-115099381D01*
X154726409Y-97973038D02*
X154762123Y-97937324D01*
X154762123Y-97937324D02*
X154833552Y-97901610D01*
X154833552Y-97901610D02*
X155012123Y-97901610D01*
X155012123Y-97901610D02*
X155083552Y-97937324D01*
X155083552Y-97937324D02*
X155119266Y-97973038D01*
X155119266Y-97973038D02*
X155154980Y-98044467D01*
X155154980Y-98044467D02*
X155154980Y-98115896D01*
X155154980Y-98115896D02*
X155119266Y-98223038D01*
X155119266Y-98223038D02*
X154690694Y-98651610D01*
X154690694Y-98651610D02*
X155154980Y-98651610D01*
X156012123Y-97865896D02*
X155369266Y-98830181D01*
X156190694Y-97901610D02*
X156654980Y-97901610D01*
X156654980Y-97901610D02*
X156404980Y-98187324D01*
X156404980Y-98187324D02*
X156512123Y-98187324D01*
X156512123Y-98187324D02*
X156583552Y-98223038D01*
X156583552Y-98223038D02*
X156619266Y-98258753D01*
X156619266Y-98258753D02*
X156654980Y-98330181D01*
X156654980Y-98330181D02*
X156654980Y-98508753D01*
X156654980Y-98508753D02*
X156619266Y-98580181D01*
X156619266Y-98580181D02*
X156583552Y-98615896D01*
X156583552Y-98615896D02*
X156512123Y-98651610D01*
X156512123Y-98651610D02*
X156297837Y-98651610D01*
X156297837Y-98651610D02*
X156226409Y-98615896D01*
X156226409Y-98615896D02*
X156190694Y-98580181D01*
X165275609Y-89697838D02*
X165311323Y-89662124D01*
X165311323Y-89662124D02*
X165382752Y-89626410D01*
X165382752Y-89626410D02*
X165561323Y-89626410D01*
X165561323Y-89626410D02*
X165632752Y-89662124D01*
X165632752Y-89662124D02*
X165668466Y-89697838D01*
X165668466Y-89697838D02*
X165704180Y-89769267D01*
X165704180Y-89769267D02*
X165704180Y-89840696D01*
X165704180Y-89840696D02*
X165668466Y-89947838D01*
X165668466Y-89947838D02*
X165239894Y-90376410D01*
X165239894Y-90376410D02*
X165704180Y-90376410D01*
X166561323Y-89590696D02*
X165918466Y-90554981D01*
X167132752Y-89876410D02*
X167132752Y-90376410D01*
X166954180Y-89590696D02*
X166775609Y-90126410D01*
X166775609Y-90126410D02*
X167239894Y-90126410D01*
X168302066Y-115349381D02*
X168273494Y-115385096D01*
X168273494Y-115385096D02*
X168187780Y-115420810D01*
X168187780Y-115420810D02*
X168130637Y-115420810D01*
X168130637Y-115420810D02*
X168044923Y-115385096D01*
X168044923Y-115385096D02*
X167987780Y-115313667D01*
X167987780Y-115313667D02*
X167959209Y-115242238D01*
X167959209Y-115242238D02*
X167930637Y-115099381D01*
X167930637Y-115099381D02*
X167930637Y-114992238D01*
X167930637Y-114992238D02*
X167959209Y-114849381D01*
X167959209Y-114849381D02*
X167987780Y-114777953D01*
X167987780Y-114777953D02*
X168044923Y-114706524D01*
X168044923Y-114706524D02*
X168130637Y-114670810D01*
X168130637Y-114670810D02*
X168187780Y-114670810D01*
X168187780Y-114670810D02*
X168273494Y-114706524D01*
X168273494Y-114706524D02*
X168302066Y-114742238D01*
X168530637Y-115385096D02*
X168616352Y-115420810D01*
X168616352Y-115420810D02*
X168759209Y-115420810D01*
X168759209Y-115420810D02*
X168816352Y-115385096D01*
X168816352Y-115385096D02*
X168844923Y-115349381D01*
X168844923Y-115349381D02*
X168873494Y-115277953D01*
X168873494Y-115277953D02*
X168873494Y-115206524D01*
X168873494Y-115206524D02*
X168844923Y-115135096D01*
X168844923Y-115135096D02*
X168816352Y-115099381D01*
X168816352Y-115099381D02*
X168759209Y-115063667D01*
X168759209Y-115063667D02*
X168644923Y-115027953D01*
X168644923Y-115027953D02*
X168587780Y-114992238D01*
X168587780Y-114992238D02*
X168559209Y-114956524D01*
X168559209Y-114956524D02*
X168530637Y-114885096D01*
X168530637Y-114885096D02*
X168530637Y-114813667D01*
X168530637Y-114813667D02*
X168559209Y-114742238D01*
X168559209Y-114742238D02*
X168587780Y-114706524D01*
X168587780Y-114706524D02*
X168644923Y-114670810D01*
X168644923Y-114670810D02*
X168787780Y-114670810D01*
X168787780Y-114670810D02*
X168873494Y-114706524D01*
X159709209Y-115420810D02*
X159709209Y-114670810D01*
X159709209Y-114670810D02*
X159852066Y-114670810D01*
X159852066Y-114670810D02*
X159937780Y-114706524D01*
X159937780Y-114706524D02*
X159994923Y-114777953D01*
X159994923Y-114777953D02*
X160023494Y-114849381D01*
X160023494Y-114849381D02*
X160052066Y-114992238D01*
X160052066Y-114992238D02*
X160052066Y-115099381D01*
X160052066Y-115099381D02*
X160023494Y-115242238D01*
X160023494Y-115242238D02*
X159994923Y-115313667D01*
X159994923Y-115313667D02*
X159937780Y-115385096D01*
X159937780Y-115385096D02*
X159852066Y-115420810D01*
X159852066Y-115420810D02*
X159709209Y-115420810D01*
X160652066Y-115420810D02*
X160452066Y-115063667D01*
X160309209Y-115420810D02*
X160309209Y-114670810D01*
X160309209Y-114670810D02*
X160537780Y-114670810D01*
X160537780Y-114670810D02*
X160594923Y-114706524D01*
X160594923Y-114706524D02*
X160623494Y-114742238D01*
X160623494Y-114742238D02*
X160652066Y-114813667D01*
X160652066Y-114813667D02*
X160652066Y-114920810D01*
X160652066Y-114920810D02*
X160623494Y-114992238D01*
X160623494Y-114992238D02*
X160594923Y-115027953D01*
X160594923Y-115027953D02*
X160537780Y-115063667D01*
X160537780Y-115063667D02*
X160309209Y-115063667D01*
X160909209Y-115420810D02*
X160909209Y-114670810D01*
X160909209Y-114670810D02*
X161052066Y-114670810D01*
X161052066Y-114670810D02*
X161137780Y-114706524D01*
X161137780Y-114706524D02*
X161194923Y-114777953D01*
X161194923Y-114777953D02*
X161223494Y-114849381D01*
X161223494Y-114849381D02*
X161252066Y-114992238D01*
X161252066Y-114992238D02*
X161252066Y-115099381D01*
X161252066Y-115099381D02*
X161223494Y-115242238D01*
X161223494Y-115242238D02*
X161194923Y-115313667D01*
X161194923Y-115313667D02*
X161137780Y-115385096D01*
X161137780Y-115385096D02*
X161052066Y-115420810D01*
X161052066Y-115420810D02*
X160909209Y-115420810D01*
X161623494Y-115063667D02*
X161623494Y-115420810D01*
X161423494Y-114670810D02*
X161623494Y-115063667D01*
X161623494Y-115063667D02*
X161823494Y-114670810D01*
X159940694Y-89901610D02*
X160404980Y-89901610D01*
X160404980Y-89901610D02*
X160154980Y-90187324D01*
X160154980Y-90187324D02*
X160262123Y-90187324D01*
X160262123Y-90187324D02*
X160333552Y-90223038D01*
X160333552Y-90223038D02*
X160369266Y-90258753D01*
X160369266Y-90258753D02*
X160404980Y-90330181D01*
X160404980Y-90330181D02*
X160404980Y-90508753D01*
X160404980Y-90508753D02*
X160369266Y-90580181D01*
X160369266Y-90580181D02*
X160333552Y-90615896D01*
X160333552Y-90615896D02*
X160262123Y-90651610D01*
X160262123Y-90651610D02*
X160047837Y-90651610D01*
X160047837Y-90651610D02*
X159976409Y-90615896D01*
X159976409Y-90615896D02*
X159940694Y-90580181D01*
X162680637Y-115385096D02*
X162766352Y-115420810D01*
X162766352Y-115420810D02*
X162909209Y-115420810D01*
X162909209Y-115420810D02*
X162966352Y-115385096D01*
X162966352Y-115385096D02*
X162994923Y-115349381D01*
X162994923Y-115349381D02*
X163023494Y-115277953D01*
X163023494Y-115277953D02*
X163023494Y-115206524D01*
X163023494Y-115206524D02*
X162994923Y-115135096D01*
X162994923Y-115135096D02*
X162966352Y-115099381D01*
X162966352Y-115099381D02*
X162909209Y-115063667D01*
X162909209Y-115063667D02*
X162794923Y-115027953D01*
X162794923Y-115027953D02*
X162737780Y-114992238D01*
X162737780Y-114992238D02*
X162709209Y-114956524D01*
X162709209Y-114956524D02*
X162680637Y-114885096D01*
X162680637Y-114885096D02*
X162680637Y-114813667D01*
X162680637Y-114813667D02*
X162709209Y-114742238D01*
X162709209Y-114742238D02*
X162737780Y-114706524D01*
X162737780Y-114706524D02*
X162794923Y-114670810D01*
X162794923Y-114670810D02*
X162937780Y-114670810D01*
X162937780Y-114670810D02*
X163023494Y-114706524D01*
X163280638Y-115420810D02*
X163280638Y-114670810D01*
X163280638Y-114670810D02*
X163423495Y-114670810D01*
X163423495Y-114670810D02*
X163509209Y-114706524D01*
X163509209Y-114706524D02*
X163566352Y-114777953D01*
X163566352Y-114777953D02*
X163594923Y-114849381D01*
X163594923Y-114849381D02*
X163623495Y-114992238D01*
X163623495Y-114992238D02*
X163623495Y-115099381D01*
X163623495Y-115099381D02*
X163594923Y-115242238D01*
X163594923Y-115242238D02*
X163566352Y-115313667D01*
X163566352Y-115313667D02*
X163509209Y-115385096D01*
X163509209Y-115385096D02*
X163423495Y-115420810D01*
X163423495Y-115420810D02*
X163280638Y-115420810D01*
X163880638Y-115420810D02*
X163880638Y-114670810D01*
D11*
X168632599Y-90712364D02*
X168382599Y-90355221D01*
X168204028Y-90712364D02*
X168204028Y-89962364D01*
X168204028Y-89962364D02*
X168489742Y-89962364D01*
X168489742Y-89962364D02*
X168561171Y-89998078D01*
X168561171Y-89998078D02*
X168596885Y-90033792D01*
X168596885Y-90033792D02*
X168632599Y-90105221D01*
X168632599Y-90105221D02*
X168632599Y-90212364D01*
X168632599Y-90212364D02*
X168596885Y-90283792D01*
X168596885Y-90283792D02*
X168561171Y-90319507D01*
X168561171Y-90319507D02*
X168489742Y-90355221D01*
X168489742Y-90355221D02*
X168204028Y-90355221D01*
X169346885Y-90712364D02*
X168918314Y-90712364D01*
X169132599Y-90712364D02*
X169132599Y-89962364D01*
X169132599Y-89962364D02*
X169061171Y-90069507D01*
X169061171Y-90069507D02*
X168989742Y-90140935D01*
X168989742Y-90140935D02*
X168918314Y-90176650D01*
X161916666Y-88204819D02*
X161916666Y-88919104D01*
X161916666Y-88919104D02*
X161869047Y-89061961D01*
X161869047Y-89061961D02*
X161773809Y-89157200D01*
X161773809Y-89157200D02*
X161630952Y-89204819D01*
X161630952Y-89204819D02*
X161535714Y-89204819D01*
X162392857Y-89204819D02*
X162392857Y-88204819D01*
X162392857Y-88204819D02*
X162773809Y-88204819D01*
X162773809Y-88204819D02*
X162869047Y-88252438D01*
X162869047Y-88252438D02*
X162916666Y-88300057D01*
X162916666Y-88300057D02*
X162964285Y-88395295D01*
X162964285Y-88395295D02*
X162964285Y-88538152D01*
X162964285Y-88538152D02*
X162916666Y-88633390D01*
X162916666Y-88633390D02*
X162869047Y-88681009D01*
X162869047Y-88681009D02*
X162773809Y-88728628D01*
X162773809Y-88728628D02*
X162392857Y-88728628D01*
X163297619Y-88204819D02*
X163916666Y-88204819D01*
X163916666Y-88204819D02*
X163583333Y-88585771D01*
X163583333Y-88585771D02*
X163726190Y-88585771D01*
X163726190Y-88585771D02*
X163821428Y-88633390D01*
X163821428Y-88633390D02*
X163869047Y-88681009D01*
X163869047Y-88681009D02*
X163916666Y-88776247D01*
X163916666Y-88776247D02*
X163916666Y-89014342D01*
X163916666Y-89014342D02*
X163869047Y-89109580D01*
X163869047Y-89109580D02*
X163821428Y-89157200D01*
X163821428Y-89157200D02*
X163726190Y-89204819D01*
X163726190Y-89204819D02*
X163440476Y-89204819D01*
X163440476Y-89204819D02*
X163345238Y-89157200D01*
X163345238Y-89157200D02*
X163297619Y-89109580D01*
X174833333Y-110359580D02*
X174785714Y-110407200D01*
X174785714Y-110407200D02*
X174642857Y-110454819D01*
X174642857Y-110454819D02*
X174547619Y-110454819D01*
X174547619Y-110454819D02*
X174404762Y-110407200D01*
X174404762Y-110407200D02*
X174309524Y-110311961D01*
X174309524Y-110311961D02*
X174261905Y-110216723D01*
X174261905Y-110216723D02*
X174214286Y-110026247D01*
X174214286Y-110026247D02*
X174214286Y-109883390D01*
X174214286Y-109883390D02*
X174261905Y-109692914D01*
X174261905Y-109692914D02*
X174309524Y-109597676D01*
X174309524Y-109597676D02*
X174404762Y-109502438D01*
X174404762Y-109502438D02*
X174547619Y-109454819D01*
X174547619Y-109454819D02*
X174642857Y-109454819D01*
X174642857Y-109454819D02*
X174785714Y-109502438D01*
X174785714Y-109502438D02*
X174833333Y-109550057D01*
X175690476Y-109788152D02*
X175690476Y-110454819D01*
X175452381Y-109407200D02*
X175214286Y-110121485D01*
X175214286Y-110121485D02*
X175833333Y-110121485D01*
X160083333Y-92859580D02*
X160035714Y-92907200D01*
X160035714Y-92907200D02*
X159892857Y-92954819D01*
X159892857Y-92954819D02*
X159797619Y-92954819D01*
X159797619Y-92954819D02*
X159654762Y-92907200D01*
X159654762Y-92907200D02*
X159559524Y-92811961D01*
X159559524Y-92811961D02*
X159511905Y-92716723D01*
X159511905Y-92716723D02*
X159464286Y-92526247D01*
X159464286Y-92526247D02*
X159464286Y-92383390D01*
X159464286Y-92383390D02*
X159511905Y-92192914D01*
X159511905Y-92192914D02*
X159559524Y-92097676D01*
X159559524Y-92097676D02*
X159654762Y-92002438D01*
X159654762Y-92002438D02*
X159797619Y-91954819D01*
X159797619Y-91954819D02*
X159892857Y-91954819D01*
X159892857Y-91954819D02*
X160035714Y-92002438D01*
X160035714Y-92002438D02*
X160083333Y-92050057D01*
X160416667Y-91954819D02*
X161035714Y-91954819D01*
X161035714Y-91954819D02*
X160702381Y-92335771D01*
X160702381Y-92335771D02*
X160845238Y-92335771D01*
X160845238Y-92335771D02*
X160940476Y-92383390D01*
X160940476Y-92383390D02*
X160988095Y-92431009D01*
X160988095Y-92431009D02*
X161035714Y-92526247D01*
X161035714Y-92526247D02*
X161035714Y-92764342D01*
X161035714Y-92764342D02*
X160988095Y-92859580D01*
X160988095Y-92859580D02*
X160940476Y-92907200D01*
X160940476Y-92907200D02*
X160845238Y-92954819D01*
X160845238Y-92954819D02*
X160559524Y-92954819D01*
X160559524Y-92954819D02*
X160464286Y-92907200D01*
X160464286Y-92907200D02*
X160416667Y-92859580D01*
X159083333Y-98954819D02*
X158750000Y-98478628D01*
X158511905Y-98954819D02*
X158511905Y-97954819D01*
X158511905Y-97954819D02*
X158892857Y-97954819D01*
X158892857Y-97954819D02*
X158988095Y-98002438D01*
X158988095Y-98002438D02*
X159035714Y-98050057D01*
X159035714Y-98050057D02*
X159083333Y-98145295D01*
X159083333Y-98145295D02*
X159083333Y-98288152D01*
X159083333Y-98288152D02*
X159035714Y-98383390D01*
X159035714Y-98383390D02*
X158988095Y-98431009D01*
X158988095Y-98431009D02*
X158892857Y-98478628D01*
X158892857Y-98478628D02*
X158511905Y-98478628D01*
X159464286Y-98050057D02*
X159511905Y-98002438D01*
X159511905Y-98002438D02*
X159607143Y-97954819D01*
X159607143Y-97954819D02*
X159845238Y-97954819D01*
X159845238Y-97954819D02*
X159940476Y-98002438D01*
X159940476Y-98002438D02*
X159988095Y-98050057D01*
X159988095Y-98050057D02*
X160035714Y-98145295D01*
X160035714Y-98145295D02*
X160035714Y-98240533D01*
X160035714Y-98240533D02*
X159988095Y-98383390D01*
X159988095Y-98383390D02*
X159416667Y-98954819D01*
X159416667Y-98954819D02*
X160035714Y-98954819D01*
X153583333Y-110109580D02*
X153535714Y-110157200D01*
X153535714Y-110157200D02*
X153392857Y-110204819D01*
X153392857Y-110204819D02*
X153297619Y-110204819D01*
X153297619Y-110204819D02*
X153154762Y-110157200D01*
X153154762Y-110157200D02*
X153059524Y-110061961D01*
X153059524Y-110061961D02*
X153011905Y-109966723D01*
X153011905Y-109966723D02*
X152964286Y-109776247D01*
X152964286Y-109776247D02*
X152964286Y-109633390D01*
X152964286Y-109633390D02*
X153011905Y-109442914D01*
X153011905Y-109442914D02*
X153059524Y-109347676D01*
X153059524Y-109347676D02*
X153154762Y-109252438D01*
X153154762Y-109252438D02*
X153297619Y-109204819D01*
X153297619Y-109204819D02*
X153392857Y-109204819D01*
X153392857Y-109204819D02*
X153535714Y-109252438D01*
X153535714Y-109252438D02*
X153583333Y-109300057D01*
X154535714Y-110204819D02*
X153964286Y-110204819D01*
X154250000Y-110204819D02*
X154250000Y-109204819D01*
X154250000Y-109204819D02*
X154154762Y-109347676D01*
X154154762Y-109347676D02*
X154059524Y-109442914D01*
X154059524Y-109442914D02*
X153964286Y-109490533D01*
X169538095Y-93204819D02*
X169538095Y-94014342D01*
X169538095Y-94014342D02*
X169585714Y-94109580D01*
X169585714Y-94109580D02*
X169633333Y-94157200D01*
X169633333Y-94157200D02*
X169728571Y-94204819D01*
X169728571Y-94204819D02*
X169919047Y-94204819D01*
X169919047Y-94204819D02*
X170014285Y-94157200D01*
X170014285Y-94157200D02*
X170061904Y-94109580D01*
X170061904Y-94109580D02*
X170109523Y-94014342D01*
X170109523Y-94014342D02*
X170109523Y-93204819D01*
X171109523Y-94204819D02*
X170538095Y-94204819D01*
X170823809Y-94204819D02*
X170823809Y-93204819D01*
X170823809Y-93204819D02*
X170728571Y-93347676D01*
X170728571Y-93347676D02*
X170633333Y-93442914D01*
X170633333Y-93442914D02*
X170538095Y-93490533D01*
X170988095Y-105454819D02*
X170988095Y-106264342D01*
X170988095Y-106264342D02*
X171035714Y-106359580D01*
X171035714Y-106359580D02*
X171083333Y-106407200D01*
X171083333Y-106407200D02*
X171178571Y-106454819D01*
X171178571Y-106454819D02*
X171369047Y-106454819D01*
X171369047Y-106454819D02*
X171464285Y-106407200D01*
X171464285Y-106407200D02*
X171511904Y-106359580D01*
X171511904Y-106359580D02*
X171559523Y-106264342D01*
X171559523Y-106264342D02*
X171559523Y-105454819D01*
X171940476Y-105454819D02*
X172559523Y-105454819D01*
X172559523Y-105454819D02*
X172226190Y-105835771D01*
X172226190Y-105835771D02*
X172369047Y-105835771D01*
X172369047Y-105835771D02*
X172464285Y-105883390D01*
X172464285Y-105883390D02*
X172511904Y-105931009D01*
X172511904Y-105931009D02*
X172559523Y-106026247D01*
X172559523Y-106026247D02*
X172559523Y-106264342D01*
X172559523Y-106264342D02*
X172511904Y-106359580D01*
X172511904Y-106359580D02*
X172464285Y-106407200D01*
X172464285Y-106407200D02*
X172369047Y-106454819D01*
X172369047Y-106454819D02*
X172083333Y-106454819D01*
X172083333Y-106454819D02*
X171988095Y-106407200D01*
X171988095Y-106407200D02*
X171940476Y-106359580D01*
X150166666Y-100954819D02*
X150166666Y-101669104D01*
X150166666Y-101669104D02*
X150119047Y-101811961D01*
X150119047Y-101811961D02*
X150023809Y-101907200D01*
X150023809Y-101907200D02*
X149880952Y-101954819D01*
X149880952Y-101954819D02*
X149785714Y-101954819D01*
X150595238Y-101050057D02*
X150642857Y-101002438D01*
X150642857Y-101002438D02*
X150738095Y-100954819D01*
X150738095Y-100954819D02*
X150976190Y-100954819D01*
X150976190Y-100954819D02*
X151071428Y-101002438D01*
X151071428Y-101002438D02*
X151119047Y-101050057D01*
X151119047Y-101050057D02*
X151166666Y-101145295D01*
X151166666Y-101145295D02*
X151166666Y-101240533D01*
X151166666Y-101240533D02*
X151119047Y-101383390D01*
X151119047Y-101383390D02*
X150547619Y-101954819D01*
X150547619Y-101954819D02*
X151166666Y-101954819D01*
X173083333Y-100859580D02*
X173035714Y-100907200D01*
X173035714Y-100907200D02*
X172892857Y-100954819D01*
X172892857Y-100954819D02*
X172797619Y-100954819D01*
X172797619Y-100954819D02*
X172654762Y-100907200D01*
X172654762Y-100907200D02*
X172559524Y-100811961D01*
X172559524Y-100811961D02*
X172511905Y-100716723D01*
X172511905Y-100716723D02*
X172464286Y-100526247D01*
X172464286Y-100526247D02*
X172464286Y-100383390D01*
X172464286Y-100383390D02*
X172511905Y-100192914D01*
X172511905Y-100192914D02*
X172559524Y-100097676D01*
X172559524Y-100097676D02*
X172654762Y-100002438D01*
X172654762Y-100002438D02*
X172797619Y-99954819D01*
X172797619Y-99954819D02*
X172892857Y-99954819D01*
X172892857Y-99954819D02*
X173035714Y-100002438D01*
X173035714Y-100002438D02*
X173083333Y-100050057D01*
X173988095Y-99954819D02*
X173511905Y-99954819D01*
X173511905Y-99954819D02*
X173464286Y-100431009D01*
X173464286Y-100431009D02*
X173511905Y-100383390D01*
X173511905Y-100383390D02*
X173607143Y-100335771D01*
X173607143Y-100335771D02*
X173845238Y-100335771D01*
X173845238Y-100335771D02*
X173940476Y-100383390D01*
X173940476Y-100383390D02*
X173988095Y-100431009D01*
X173988095Y-100431009D02*
X174035714Y-100526247D01*
X174035714Y-100526247D02*
X174035714Y-100764342D01*
X174035714Y-100764342D02*
X173988095Y-100859580D01*
X173988095Y-100859580D02*
X173940476Y-100907200D01*
X173940476Y-100907200D02*
X173845238Y-100954819D01*
X173845238Y-100954819D02*
X173607143Y-100954819D01*
X173607143Y-100954819D02*
X173511905Y-100907200D01*
X173511905Y-100907200D02*
X173464286Y-100859580D01*
X151233333Y-106109580D02*
X151185714Y-106157200D01*
X151185714Y-106157200D02*
X151042857Y-106204819D01*
X151042857Y-106204819D02*
X150947619Y-106204819D01*
X150947619Y-106204819D02*
X150804762Y-106157200D01*
X150804762Y-106157200D02*
X150709524Y-106061961D01*
X150709524Y-106061961D02*
X150661905Y-105966723D01*
X150661905Y-105966723D02*
X150614286Y-105776247D01*
X150614286Y-105776247D02*
X150614286Y-105633390D01*
X150614286Y-105633390D02*
X150661905Y-105442914D01*
X150661905Y-105442914D02*
X150709524Y-105347676D01*
X150709524Y-105347676D02*
X150804762Y-105252438D01*
X150804762Y-105252438D02*
X150947619Y-105204819D01*
X150947619Y-105204819D02*
X151042857Y-105204819D01*
X151042857Y-105204819D02*
X151185714Y-105252438D01*
X151185714Y-105252438D02*
X151233333Y-105300057D01*
X151614286Y-105300057D02*
X151661905Y-105252438D01*
X151661905Y-105252438D02*
X151757143Y-105204819D01*
X151757143Y-105204819D02*
X151995238Y-105204819D01*
X151995238Y-105204819D02*
X152090476Y-105252438D01*
X152090476Y-105252438D02*
X152138095Y-105300057D01*
X152138095Y-105300057D02*
X152185714Y-105395295D01*
X152185714Y-105395295D02*
X152185714Y-105490533D01*
X152185714Y-105490533D02*
X152138095Y-105633390D01*
X152138095Y-105633390D02*
X151566667Y-106204819D01*
X151566667Y-106204819D02*
X152185714Y-106204819D01*
X152988095Y-101454819D02*
X152988095Y-102264342D01*
X152988095Y-102264342D02*
X153035714Y-102359580D01*
X153035714Y-102359580D02*
X153083333Y-102407200D01*
X153083333Y-102407200D02*
X153178571Y-102454819D01*
X153178571Y-102454819D02*
X153369047Y-102454819D01*
X153369047Y-102454819D02*
X153464285Y-102407200D01*
X153464285Y-102407200D02*
X153511904Y-102359580D01*
X153511904Y-102359580D02*
X153559523Y-102264342D01*
X153559523Y-102264342D02*
X153559523Y-101454819D01*
X153988095Y-101550057D02*
X154035714Y-101502438D01*
X154035714Y-101502438D02*
X154130952Y-101454819D01*
X154130952Y-101454819D02*
X154369047Y-101454819D01*
X154369047Y-101454819D02*
X154464285Y-101502438D01*
X154464285Y-101502438D02*
X154511904Y-101550057D01*
X154511904Y-101550057D02*
X154559523Y-101645295D01*
X154559523Y-101645295D02*
X154559523Y-101740533D01*
X154559523Y-101740533D02*
X154511904Y-101883390D01*
X154511904Y-101883390D02*
X153940476Y-102454819D01*
X153940476Y-102454819D02*
X154559523Y-102454819D01*
D10*
%TO.C,R1*%
X166665200Y-91148800D02*
X168005200Y-91148800D01*
X166665200Y-92848800D02*
X168005200Y-92848800D01*
D12*
%TO.C,JP3*%
X160700000Y-91050000D02*
X160700000Y-90450000D01*
X161350000Y-89750000D02*
X164150000Y-89750000D01*
X164150000Y-91750000D02*
X161350000Y-91750000D01*
X164800000Y-90450000D02*
X164800000Y-91050000D01*
X160700000Y-90450000D02*
G75*
G02*
X161400000Y-89750000I699999J1D01*
G01*
X161400000Y-91750000D02*
G75*
G02*
X160700000Y-91050000I-1J699999D01*
G01*
X164100000Y-89750000D02*
G75*
G02*
X164800000Y-90450000I0J-700000D01*
G01*
X164800000Y-91050000D02*
G75*
G02*
X164100000Y-91750000I-700000J0D01*
G01*
%TO.C,C4*%
X172238748Y-109265000D02*
X172761252Y-109265000D01*
X172238748Y-110735000D02*
X172761252Y-110735000D01*
%TO.C,JP1*%
X154500000Y-94660000D02*
X156500000Y-94660000D01*
X154500000Y-97460000D02*
X154500000Y-94660000D01*
X156500000Y-94660000D02*
X156500000Y-97460000D01*
X156500000Y-97460000D02*
X154500000Y-97460000D01*
%TO.C,C3*%
X158515000Y-94488748D02*
X158515000Y-95011252D01*
X159985000Y-94488748D02*
X159985000Y-95011252D01*
%TO.C,R2*%
X160515000Y-99761252D02*
X160515000Y-99238748D01*
X161985000Y-99761252D02*
X161985000Y-99238748D01*
%TO.C,C1*%
X156138748Y-109015000D02*
X156661252Y-109015000D01*
X156138748Y-110485000D02*
X156661252Y-110485000D01*
%TO.C,U1*%
X163490000Y-93702500D02*
X164390000Y-93702500D01*
X163490000Y-94602500D02*
X163490000Y-93702500D01*
X163490000Y-98022500D02*
X163490000Y-98922500D01*
X163490000Y-98922500D02*
X164390000Y-98922500D01*
X167810000Y-93702500D02*
X168470000Y-93702500D01*
X168710000Y-94602500D02*
X168710000Y-94002500D01*
X168710000Y-98022500D02*
X168710000Y-98922500D01*
X168710000Y-98922500D02*
X167810000Y-98922500D01*
X169040000Y-93942500D02*
X168710000Y-93702500D01*
X169040000Y-93462500D01*
X169040000Y-93942500D01*
G36*
X169040000Y-93942500D02*
G01*
X168710000Y-93702500D01*
X169040000Y-93462500D01*
X169040000Y-93942500D01*
G37*
%TO.C,U3*%
X163865000Y-106000000D02*
X163865000Y-105000000D01*
X163865000Y-106000000D02*
X163865000Y-107000000D01*
X170635000Y-106000000D02*
X170635000Y-105000000D01*
X170635000Y-106000000D02*
X170635000Y-107000000D01*
X170175000Y-102140000D02*
X169935000Y-101810000D01*
X170415000Y-101810000D01*
X170175000Y-102140000D01*
G36*
X170175000Y-102140000D02*
G01*
X169935000Y-101810000D01*
X170415000Y-101810000D01*
X170175000Y-102140000D01*
G37*
D10*
%TO.C,J2*%
X147250000Y-88750000D02*
X153750000Y-88750000D01*
X147250000Y-99370000D02*
X147250000Y-88750000D01*
X153750000Y-88750000D02*
X153750000Y-99370000D01*
X153750000Y-99370000D02*
X147250000Y-99370000D01*
D13*
X150600000Y-100120000D02*
G75*
G02*
X150400000Y-100120000I-100000J0D01*
G01*
X150400000Y-100120000D02*
G75*
G02*
X150600000Y-100120000I100000J0D01*
G01*
D12*
%TO.C,C5*%
X170238748Y-99765000D02*
X170761252Y-99765000D01*
X170238748Y-101235000D02*
X170761252Y-101235000D01*
%TO.C,C2*%
X152665000Y-105488748D02*
X152665000Y-106011252D01*
X154135000Y-105488748D02*
X154135000Y-106011252D01*
%TO.C,JP2*%
X154500000Y-90910000D02*
X156500000Y-90910000D01*
X154500000Y-93710000D02*
X154500000Y-90910000D01*
X156500000Y-90910000D02*
X156500000Y-93710000D01*
X156500000Y-93710000D02*
X154500000Y-93710000D01*
%TO.C,U2*%
X157300000Y-101590000D02*
X161060000Y-101590000D01*
X157300000Y-108410000D02*
X161060000Y-108410000D01*
X161060000Y-101590000D02*
X161060000Y-102850000D01*
X161060000Y-108410000D02*
X161060000Y-107150000D01*
X156020000Y-101690000D02*
X155780000Y-101360000D01*
X156260000Y-101360000D01*
X156020000Y-101690000D01*
G36*
X156020000Y-101690000D02*
G01*
X155780000Y-101360000D01*
X156260000Y-101360000D01*
X156020000Y-101690000D01*
G37*
%TO.C,J1*%
X154010000Y-111670000D02*
X154010000Y-114330000D01*
X169310000Y-111670000D02*
X154010000Y-111670000D01*
X169310000Y-111670000D02*
X169310000Y-114330000D01*
X169310000Y-114330000D02*
X154010000Y-114330000D01*
X170580000Y-111670000D02*
X171910000Y-111670000D01*
X171910000Y-111670000D02*
X171910000Y-113000000D01*
%TD*%
M02*
