%TF.GenerationSoftware,KiCad,Pcbnew,8.0.4*%
%TF.CreationDate,2024-10-25T14:16:06-05:00*%
%TF.ProjectId,weather-station-rtd,77656174-6865-4722-9d73-746174696f6e,rev?*%
%TF.SameCoordinates,Original*%
%TF.FileFunction,Soldermask,Top*%
%TF.FilePolarity,Negative*%
%FSLAX46Y46*%
G04 Gerber Fmt 4.6, Leading zero omitted, Abs format (unit mm)*
G04 Created by KiCad (PCBNEW 8.0.4) date 2024-10-25 14:16:06*
%MOMM*%
%LPD*%
G01*
G04 APERTURE LIST*
G04 Aperture macros list*
%AMRoundRect*
0 Rectangle with rounded corners*
0 $1 Rounding radius*
0 $2 $3 $4 $5 $6 $7 $8 $9 X,Y pos of 4 corners*
0 Add a 4 corners polygon primitive as box body*
4,1,4,$2,$3,$4,$5,$6,$7,$8,$9,$2,$3,0*
0 Add four circle primitives for the rounded corners*
1,1,$1+$1,$2,$3*
1,1,$1+$1,$4,$5*
1,1,$1+$1,$6,$7*
1,1,$1+$1,$8,$9*
0 Add four rect primitives between the rounded corners*
20,1,$1+$1,$2,$3,$4,$5,0*
20,1,$1+$1,$4,$5,$6,$7,0*
20,1,$1+$1,$6,$7,$8,$9,0*
20,1,$1+$1,$8,$9,$2,$3,0*%
%AMFreePoly0*
4,1,19,0.550000,-0.750000,0.000000,-0.750000,0.000000,-0.744911,-0.071157,-0.744911,-0.207708,-0.704816,-0.327430,-0.627875,-0.420627,-0.520320,-0.479746,-0.390866,-0.500000,-0.250000,-0.500000,0.250000,-0.479746,0.390866,-0.420627,0.520320,-0.327430,0.627875,-0.207708,0.704816,-0.071157,0.744911,0.000000,0.744911,0.000000,0.750000,0.550000,0.750000,0.550000,-0.750000,0.550000,-0.750000,
$1*%
%AMFreePoly1*
4,1,19,0.000000,0.744911,0.071157,0.744911,0.207708,0.704816,0.327430,0.627875,0.420627,0.520320,0.479746,0.390866,0.500000,0.250000,0.500000,-0.250000,0.479746,-0.390866,0.420627,-0.520320,0.327430,-0.627875,0.207708,-0.704816,0.071157,-0.744911,0.000000,-0.744911,0.000000,-0.750000,-0.550000,-0.750000,-0.550000,0.750000,0.000000,0.750000,0.000000,0.744911,0.000000,0.744911,
$1*%
%AMFreePoly2*
4,1,6,1.000000,0.000000,0.500000,-0.750000,-0.500000,-0.750000,-0.500000,0.750000,0.500000,0.750000,1.000000,0.000000,1.000000,0.000000,$1*%
%AMFreePoly3*
4,1,6,0.500000,-0.750000,-0.650000,-0.750000,-0.150000,0.000000,-0.650000,0.750000,0.500000,0.750000,0.500000,-0.750000,0.500000,-0.750000,$1*%
G04 Aperture macros list end*
%ADD10RoundRect,0.102000X-0.485000X-0.865000X0.485000X-0.865000X0.485000X0.865000X-0.485000X0.865000X0*%
%ADD11FreePoly0,0.000000*%
%ADD12R,1.000000X1.500000*%
%ADD13FreePoly1,0.000000*%
%ADD14RoundRect,0.250000X-0.250000X-0.475000X0.250000X-0.475000X0.250000X0.475000X-0.250000X0.475000X0*%
%ADD15C,3.200000*%
%ADD16FreePoly2,90.000000*%
%ADD17FreePoly3,90.000000*%
%ADD18RoundRect,0.250000X-0.475000X0.250000X-0.475000X-0.250000X0.475000X-0.250000X0.475000X0.250000X0*%
%ADD19RoundRect,0.250000X0.475000X-0.250000X0.475000X0.250000X-0.475000X0.250000X-0.475000X-0.250000X0*%
%ADD20RoundRect,0.075000X-0.075000X0.337500X-0.075000X-0.337500X0.075000X-0.337500X0.075000X0.337500X0*%
%ADD21RoundRect,0.075000X-0.337500X0.075000X-0.337500X-0.075000X0.337500X-0.075000X0.337500X0.075000X0*%
%ADD22R,3.250000X3.250000*%
%ADD23RoundRect,0.100000X-0.100000X0.637500X-0.100000X-0.637500X0.100000X-0.637500X0.100000X0.637500X0*%
%ADD24RoundRect,0.102000X0.900000X-0.900000X0.900000X0.900000X-0.900000X0.900000X-0.900000X-0.900000X0*%
%ADD25C,2.004000*%
%ADD26FreePoly2,270.000000*%
%ADD27FreePoly3,270.000000*%
%ADD28RoundRect,0.375000X-0.625000X-0.375000X0.625000X-0.375000X0.625000X0.375000X-0.625000X0.375000X0*%
%ADD29RoundRect,0.500000X-0.500000X-1.400000X0.500000X-1.400000X0.500000X1.400000X-0.500000X1.400000X0*%
%ADD30R,1.700000X1.700000*%
%ADD31O,1.700000X1.700000*%
G04 APERTURE END LIST*
D10*
%TO.C,R1*%
X165855200Y-91998800D03*
X168815200Y-91998800D03*
%TD*%
D11*
%TO.C,JP3*%
X161450000Y-90750000D03*
D12*
X162750000Y-90750000D03*
D13*
X164050000Y-90750000D03*
%TD*%
D14*
%TO.C,C4*%
X171550000Y-110000000D03*
X173450000Y-110000000D03*
%TD*%
D15*
%TO.C,H1*%
X150000000Y-112250000D03*
%TD*%
D16*
%TO.C,JP1*%
X155500000Y-96785000D03*
D17*
X155500000Y-95335000D03*
%TD*%
D18*
%TO.C,C3*%
X159250000Y-93800000D03*
X159250000Y-95700000D03*
%TD*%
D19*
%TO.C,R2*%
X161250000Y-100450000D03*
X161250000Y-98550000D03*
%TD*%
D14*
%TO.C,C1*%
X155450000Y-109750000D03*
X157350000Y-109750000D03*
%TD*%
D20*
%TO.C,U1*%
X167400000Y-93875000D03*
X166750000Y-93875000D03*
X166100000Y-93875000D03*
X165450000Y-93875000D03*
X164800000Y-93875000D03*
D21*
X163662500Y-95012500D03*
X163662500Y-95662500D03*
X163662500Y-96312500D03*
X163662500Y-96962500D03*
X163662500Y-97612500D03*
D20*
X164800000Y-98750000D03*
X165450000Y-98750000D03*
X166100000Y-98750000D03*
X166750000Y-98750000D03*
X167400000Y-98750000D03*
D21*
X168537500Y-97612500D03*
X168537500Y-96962500D03*
X168537500Y-96312500D03*
X168537500Y-95662500D03*
X168537500Y-95012500D03*
D22*
X166100000Y-96312500D03*
%TD*%
D23*
%TO.C,U3*%
X170175000Y-103137500D03*
X169525000Y-103137500D03*
X168875000Y-103137500D03*
X168225000Y-103137500D03*
X167575000Y-103137500D03*
X166925000Y-103137500D03*
X166275000Y-103137500D03*
X165625000Y-103137500D03*
X164975000Y-103137500D03*
X164325000Y-103137500D03*
X164325000Y-108862500D03*
X164975000Y-108862500D03*
X165625000Y-108862500D03*
X166275000Y-108862500D03*
X166925000Y-108862500D03*
X167575000Y-108862500D03*
X168225000Y-108862500D03*
X168875000Y-108862500D03*
X169525000Y-108862500D03*
X170175000Y-108862500D03*
%TD*%
D24*
%TO.C,J2*%
X150500000Y-97870000D03*
D25*
X150500000Y-95330000D03*
X150500000Y-92790000D03*
X150500000Y-90250000D03*
%TD*%
D14*
%TO.C,C5*%
X169550000Y-100500000D03*
X171450000Y-100500000D03*
%TD*%
D18*
%TO.C,C2*%
X153400000Y-104800000D03*
X153400000Y-106700000D03*
%TD*%
D15*
%TO.C,H2*%
X173000000Y-90250000D03*
%TD*%
D26*
%TO.C,JP2*%
X155500000Y-91585000D03*
D27*
X155500000Y-93035000D03*
%TD*%
D28*
%TO.C,U2*%
X156000000Y-102700000D03*
X156000000Y-105000000D03*
D29*
X162300000Y-105000000D03*
D28*
X156000000Y-107300000D03*
%TD*%
D30*
%TO.C,J1*%
X170580000Y-113000000D03*
D31*
X168040000Y-113000000D03*
X165500000Y-113000000D03*
X162960000Y-113000000D03*
X160420000Y-113000000D03*
X157880000Y-113000000D03*
X155340000Y-113000000D03*
%TD*%
M02*
