%TF.GenerationSoftware,KiCad,Pcbnew,8.0.4*%
%TF.CreationDate,2024-10-25T14:16:06-05:00*%
%TF.ProjectId,weather-station-rtd,77656174-6865-4722-9d73-746174696f6e,rev?*%
%TF.SameCoordinates,Original*%
%TF.FileFunction,Paste,Top*%
%TF.FilePolarity,Positive*%
%FSLAX46Y46*%
G04 Gerber Fmt 4.6, Leading zero omitted, Abs format (unit mm)*
G04 Created by KiCad (PCBNEW 8.0.4) date 2024-10-25 14:16:06*
%MOMM*%
%LPD*%
G01*
G04 APERTURE LIST*
G04 Aperture macros list*
%AMRoundRect*
0 Rectangle with rounded corners*
0 $1 Rounding radius*
0 $2 $3 $4 $5 $6 $7 $8 $9 X,Y pos of 4 corners*
0 Add a 4 corners polygon primitive as box body*
4,1,4,$2,$3,$4,$5,$6,$7,$8,$9,$2,$3,0*
0 Add four circle primitives for the rounded corners*
1,1,$1+$1,$2,$3*
1,1,$1+$1,$4,$5*
1,1,$1+$1,$6,$7*
1,1,$1+$1,$8,$9*
0 Add four rect primitives between the rounded corners*
20,1,$1+$1,$2,$3,$4,$5,0*
20,1,$1+$1,$4,$5,$6,$7,0*
20,1,$1+$1,$6,$7,$8,$9,0*
20,1,$1+$1,$8,$9,$2,$3,0*%
G04 Aperture macros list end*
%ADD10R,0.970000X1.730000*%
%ADD11RoundRect,0.250000X-0.250000X-0.475000X0.250000X-0.475000X0.250000X0.475000X-0.250000X0.475000X0*%
%ADD12RoundRect,0.250000X-0.475000X0.250000X-0.475000X-0.250000X0.475000X-0.250000X0.475000X0.250000X0*%
%ADD13RoundRect,0.250000X0.475000X-0.250000X0.475000X0.250000X-0.475000X0.250000X-0.475000X-0.250000X0*%
%ADD14RoundRect,0.250000X-0.405000X0.405000X-0.405000X-0.405000X0.405000X-0.405000X0.405000X0.405000X0*%
%ADD15RoundRect,0.075000X-0.075000X0.337500X-0.075000X-0.337500X0.075000X-0.337500X0.075000X0.337500X0*%
%ADD16RoundRect,0.075000X-0.337500X0.075000X-0.337500X-0.075000X0.337500X-0.075000X0.337500X0.075000X0*%
%ADD17RoundRect,0.100000X-0.100000X0.637500X-0.100000X-0.637500X0.100000X-0.637500X0.100000X0.637500X0*%
%ADD18RoundRect,0.375000X-0.625000X-0.375000X0.625000X-0.375000X0.625000X0.375000X-0.625000X0.375000X0*%
%ADD19RoundRect,0.500000X-0.500000X-1.400000X0.500000X-1.400000X0.500000X1.400000X-0.500000X1.400000X0*%
G04 APERTURE END LIST*
D10*
%TO.C,R1*%
X165855200Y-91998800D03*
X168815200Y-91998800D03*
%TD*%
D11*
%TO.C,C4*%
X171550000Y-110000000D03*
X173450000Y-110000000D03*
%TD*%
D12*
%TO.C,C3*%
X159250000Y-93800000D03*
X159250000Y-95700000D03*
%TD*%
D13*
%TO.C,R2*%
X161250000Y-100450000D03*
X161250000Y-98550000D03*
%TD*%
D11*
%TO.C,C1*%
X155450000Y-109750000D03*
X157350000Y-109750000D03*
%TD*%
D14*
%TO.C,U1*%
X166910000Y-95502500D03*
X165290000Y-95502500D03*
X166910000Y-97122500D03*
X165290000Y-97122500D03*
D15*
X167400000Y-93875000D03*
X166750000Y-93875000D03*
X166100000Y-93875000D03*
X165450000Y-93875000D03*
X164800000Y-93875000D03*
D16*
X163662500Y-95012500D03*
X163662500Y-95662500D03*
X163662500Y-96312500D03*
X163662500Y-96962500D03*
X163662500Y-97612500D03*
D15*
X164800000Y-98750000D03*
X165450000Y-98750000D03*
X166100000Y-98750000D03*
X166750000Y-98750000D03*
X167400000Y-98750000D03*
D16*
X168537500Y-97612500D03*
X168537500Y-96962500D03*
X168537500Y-96312500D03*
X168537500Y-95662500D03*
X168537500Y-95012500D03*
%TD*%
D17*
%TO.C,U3*%
X170175000Y-103137500D03*
X169525000Y-103137500D03*
X168875000Y-103137500D03*
X168225000Y-103137500D03*
X167575000Y-103137500D03*
X166925000Y-103137500D03*
X166275000Y-103137500D03*
X165625000Y-103137500D03*
X164975000Y-103137500D03*
X164325000Y-103137500D03*
X164325000Y-108862500D03*
X164975000Y-108862500D03*
X165625000Y-108862500D03*
X166275000Y-108862500D03*
X166925000Y-108862500D03*
X167575000Y-108862500D03*
X168225000Y-108862500D03*
X168875000Y-108862500D03*
X169525000Y-108862500D03*
X170175000Y-108862500D03*
%TD*%
D11*
%TO.C,C5*%
X169550000Y-100500000D03*
X171450000Y-100500000D03*
%TD*%
D12*
%TO.C,C2*%
X153400000Y-104800000D03*
X153400000Y-106700000D03*
%TD*%
D18*
%TO.C,U2*%
X156000000Y-102700000D03*
X156000000Y-105000000D03*
D19*
X162300000Y-105000000D03*
D18*
X156000000Y-107300000D03*
%TD*%
M02*
