%TF.GenerationSoftware,KiCad,Pcbnew,8.0.4*%
%TF.CreationDate,2024-10-25T14:16:06-05:00*%
%TF.ProjectId,weather-station-rtd,77656174-6865-4722-9d73-746174696f6e,rev?*%
%TF.SameCoordinates,Original*%
%TF.FileFunction,Other,User*%
%FSLAX46Y46*%
G04 Gerber Fmt 4.6, Leading zero omitted, Abs format (unit mm)*
G04 Created by KiCad (PCBNEW 8.0.4) date 2024-10-25 14:16:06*
%MOMM*%
%LPD*%
G01*
G04 APERTURE LIST*
%ADD10C,0.050000*%
G04 APERTURE END LIST*
D10*
%TO.C,R1*%
X165120200Y-90883800D02*
X169550200Y-90883800D01*
X165120200Y-93113800D02*
X165120200Y-90883800D01*
X165120200Y-93113800D02*
X169550200Y-93113800D01*
X169550200Y-93113800D02*
X169550200Y-90883800D01*
%TO.C,JP3*%
X160450000Y-89500000D02*
X160450000Y-92000000D01*
X160450000Y-89500000D02*
X165050000Y-89500000D01*
X165050000Y-92000000D02*
X160450000Y-92000000D01*
X165050000Y-92000000D02*
X165050000Y-89500000D01*
%TO.C,C4*%
X170800000Y-109020000D02*
X174200000Y-109020000D01*
X170800000Y-110980000D02*
X170800000Y-109020000D01*
X174200000Y-109020000D02*
X174200000Y-110980000D01*
X174200000Y-110980000D02*
X170800000Y-110980000D01*
%TO.C,H1*%
X153450000Y-112250000D02*
G75*
G02*
X146550000Y-112250000I-3450000J0D01*
G01*
X146550000Y-112250000D02*
G75*
G02*
X153450000Y-112250000I3450000J0D01*
G01*
%TO.C,JP1*%
X154250000Y-97710000D02*
X154250000Y-94410000D01*
X154250000Y-97710000D02*
X156750000Y-97710000D01*
X156750000Y-94410000D02*
X154250000Y-94410000D01*
X156750000Y-94410000D02*
X156750000Y-97710000D01*
%TO.C,C3*%
X158270000Y-93050000D02*
X160230000Y-93050000D01*
X158270000Y-96450000D02*
X158270000Y-93050000D01*
X160230000Y-93050000D02*
X160230000Y-96450000D01*
X160230000Y-96450000D02*
X158270000Y-96450000D01*
%TO.C,R2*%
X160270000Y-97800000D02*
X162230000Y-97800000D01*
X160270000Y-101200000D02*
X160270000Y-97800000D01*
X162230000Y-97800000D02*
X162230000Y-101200000D01*
X162230000Y-101200000D02*
X160270000Y-101200000D01*
%TO.C,C1*%
X154700000Y-108770000D02*
X158100000Y-108770000D01*
X154700000Y-110730000D02*
X154700000Y-108770000D01*
X158100000Y-108770000D02*
X158100000Y-110730000D01*
X158100000Y-110730000D02*
X154700000Y-110730000D01*
%TO.C,U1*%
X163000000Y-93212500D02*
X163000000Y-99412500D01*
X163000000Y-99412500D02*
X169200000Y-99412500D01*
X169200000Y-93212500D02*
X163000000Y-93212500D01*
X169200000Y-99412500D02*
X169200000Y-93212500D01*
%TO.C,U3*%
X163750000Y-102150000D02*
X163750000Y-109850000D01*
X163750000Y-109850000D02*
X170750000Y-109850000D01*
X170750000Y-102150000D02*
X163750000Y-102150000D01*
X170750000Y-109850000D02*
X170750000Y-102150000D01*
%TO.C,J2*%
X147000000Y-88500000D02*
X147000000Y-99620000D01*
X147000000Y-99620000D02*
X154000000Y-99620000D01*
X154000000Y-88500000D02*
X147000000Y-88500000D01*
X154000000Y-99620000D02*
X154000000Y-88500000D01*
%TO.C,C5*%
X168800000Y-99520000D02*
X172200000Y-99520000D01*
X168800000Y-101480000D02*
X168800000Y-99520000D01*
X172200000Y-99520000D02*
X172200000Y-101480000D01*
X172200000Y-101480000D02*
X168800000Y-101480000D01*
%TO.C,C2*%
X152420000Y-104050000D02*
X154380000Y-104050000D01*
X152420000Y-107450000D02*
X152420000Y-104050000D01*
X154380000Y-104050000D02*
X154380000Y-107450000D01*
X154380000Y-107450000D02*
X152420000Y-107450000D01*
%TO.C,H2*%
X176450000Y-90250000D02*
G75*
G02*
X169550000Y-90250000I-3450000J0D01*
G01*
X169550000Y-90250000D02*
G75*
G02*
X176450000Y-90250000I3450000J0D01*
G01*
%TO.C,JP2*%
X154250000Y-93960000D02*
X154250000Y-90660000D01*
X154250000Y-93960000D02*
X156750000Y-93960000D01*
X156750000Y-90660000D02*
X154250000Y-90660000D01*
X156750000Y-90660000D02*
X156750000Y-93960000D01*
%TO.C,U2*%
X154750000Y-101400000D02*
X154750000Y-108600000D01*
X154750000Y-108600000D02*
X163550000Y-108600000D01*
X163550000Y-101400000D02*
X154750000Y-101400000D01*
X163550000Y-108600000D02*
X163550000Y-101400000D01*
%TO.C,J1*%
X153530000Y-111200000D02*
X153530000Y-114800000D01*
X153530000Y-114800000D02*
X172380000Y-114800000D01*
X172380000Y-111200000D02*
X153530000Y-111200000D01*
X172380000Y-114800000D02*
X172380000Y-111200000D01*
%TD*%
M02*
