M48
; DRILL file {KiCad 8.0.5} date 2024-11-12T14:32:04-0600
; FORMAT={-:-/ absolute / inch / decimal}
; #@! TF.CreationDate,2024-11-12T14:32:04-06:00
; #@! TF.GenerationSoftware,Kicad,Pcbnew,8.0.5
; #@! TF.FileFunction,Plated,1,2,PTH
FMAT,2
INCH
; #@! TA.AperFunction,Plated,PTH,ViaDrill
T1C0.0118
; #@! TA.AperFunction,Plated,PTH,ComponentDrill
T2C0.0394
; #@! TA.AperFunction,Plated,PTH,ComponentDrill
T3C0.0472
%
G90
G05
T1
X6.0433Y-4.252
X6.1866Y-3.6559
X6.2228Y-3.6197
X6.2303Y-4.0551
X6.25Y-4.3209
X6.3878Y-3.6909
X6.4075Y-3.8583
X6.4272Y-3.6516
X6.4272Y-4.3012
X6.4961Y-3.5039
X6.4961Y-4.0059
X6.5945Y-3.9272
X6.6831Y-3.8976
X6.69Y-3.8484
X6.752Y-4.0157
X6.8209Y-4.2717
T2
X6.1157Y-4.4488
X6.2157Y-4.4488
X6.3157Y-4.4488
X6.4157Y-4.4488
X6.5157Y-4.4488
X6.6157Y-4.4488
X6.7157Y-4.4488
T3
X5.9252Y-3.5531
X5.9252Y-3.6531
X5.9252Y-3.7531
X5.9252Y-3.8531
M30
