%TF.GenerationSoftware,KiCad,Pcbnew,9.0.0*%
%TF.CreationDate,2025-03-29T18:07:34-05:00*%
%TF.ProjectId,ws-control-board,77732d63-6f6e-4747-926f-6c2d626f6172,rev?*%
%TF.SameCoordinates,Original*%
%TF.FileFunction,Soldermask,Bot*%
%TF.FilePolarity,Negative*%
%FSLAX46Y46*%
G04 Gerber Fmt 4.6, Leading zero omitted, Abs format (unit mm)*
G04 Created by KiCad (PCBNEW 9.0.0) date 2025-03-29 18:07:34*
%MOMM*%
%LPD*%
G01*
G04 APERTURE LIST*
%ADD10C,1.600000*%
%ADD11O,1.600000X1.600000*%
%ADD12R,1.700000X1.700000*%
%ADD13O,1.700000X1.700000*%
%ADD14C,3.200000*%
%ADD15R,1.800000X1.800000*%
%ADD16C,1.800000*%
G04 APERTURE END LIST*
D10*
%TO.C,R2*%
X116840000Y-107315000D03*
D11*
X116840000Y-97155000D03*
%TD*%
D12*
%TO.C,J4*%
X130175000Y-71060000D03*
D13*
X132715000Y-71060000D03*
X135255000Y-71060000D03*
X137795000Y-71060000D03*
X140335000Y-71060000D03*
X142875000Y-71060000D03*
%TD*%
D12*
%TO.C,J1*%
X147320000Y-83820000D03*
D13*
X147320000Y-86360000D03*
X147320000Y-88900000D03*
X147320000Y-91440000D03*
X147320000Y-93980000D03*
X147320000Y-96520000D03*
X147320000Y-99060000D03*
X147320000Y-101600000D03*
X147320000Y-104140000D03*
X147320000Y-106680000D03*
X147320000Y-109220000D03*
X147320000Y-111760000D03*
X147320000Y-114300000D03*
X147320000Y-116840000D03*
X147320000Y-119380000D03*
%TD*%
D14*
%TO.C,H2*%
X109855000Y-59309000D03*
%TD*%
D12*
%TO.C,J8*%
X106680000Y-112141000D03*
D13*
X106680000Y-114681000D03*
%TD*%
D12*
%TO.C,J3*%
X182245000Y-97155000D03*
D13*
X182245000Y-99695000D03*
X182245000Y-102235000D03*
X182245000Y-104775000D03*
X182245000Y-107315000D03*
X182245000Y-109855000D03*
X182245000Y-112395000D03*
%TD*%
D12*
%TO.C,J7*%
X106680000Y-94615000D03*
D13*
X106680000Y-97155000D03*
%TD*%
D12*
%TO.C,J6*%
X106680000Y-83820000D03*
D13*
X106680000Y-86360000D03*
X106680000Y-88900000D03*
%TD*%
D12*
%TO.C,J5*%
X106680000Y-78232000D03*
D13*
X106680000Y-75692000D03*
X106680000Y-73152000D03*
X106680000Y-70612000D03*
X106680000Y-68072000D03*
X106680000Y-65532000D03*
%TD*%
D10*
%TO.C,R1*%
X170180000Y-75184000D03*
D11*
X160020000Y-75184000D03*
%TD*%
D14*
%TO.C,H1*%
X183515000Y-120269000D03*
%TD*%
%TO.C,H4*%
X109855000Y-120269000D03*
%TD*%
%TO.C,H3*%
X183642000Y-75819000D03*
%TD*%
D15*
%TO.C,D1*%
X156210000Y-75311000D03*
D16*
X153670000Y-75311000D03*
%TD*%
D12*
%TO.C,J2*%
X121920000Y-83820000D03*
D13*
X121920000Y-86360000D03*
X121920000Y-88900000D03*
X121920000Y-91440000D03*
X121920000Y-93980000D03*
X121920000Y-96520000D03*
X121920000Y-99060000D03*
X121920000Y-101600000D03*
X121920000Y-104140000D03*
X121920000Y-106680000D03*
X121920000Y-109220000D03*
X121920000Y-111760000D03*
X121920000Y-114300000D03*
X121920000Y-116840000D03*
X121920000Y-119380000D03*
%TD*%
M02*
