%TF.GenerationSoftware,KiCad,Pcbnew,9.0.0*%
%TF.CreationDate,2025-03-29T18:07:34-05:00*%
%TF.ProjectId,ws-control-board,77732d63-6f6e-4747-926f-6c2d626f6172,rev?*%
%TF.SameCoordinates,Original*%
%TF.FileFunction,Copper,L2,Bot*%
%TF.FilePolarity,Positive*%
%FSLAX46Y46*%
G04 Gerber Fmt 4.6, Leading zero omitted, Abs format (unit mm)*
G04 Created by KiCad (PCBNEW 9.0.0) date 2025-03-29 18:07:34*
%MOMM*%
%LPD*%
G01*
G04 APERTURE LIST*
%TA.AperFunction,ComponentPad*%
%ADD10C,1.600000*%
%TD*%
%TA.AperFunction,ComponentPad*%
%ADD11O,1.600000X1.600000*%
%TD*%
%TA.AperFunction,ComponentPad*%
%ADD12R,1.700000X1.700000*%
%TD*%
%TA.AperFunction,ComponentPad*%
%ADD13O,1.700000X1.700000*%
%TD*%
%TA.AperFunction,ComponentPad*%
%ADD14R,1.800000X1.800000*%
%TD*%
%TA.AperFunction,ComponentPad*%
%ADD15C,1.800000*%
%TD*%
%TA.AperFunction,ViaPad*%
%ADD16C,0.600000*%
%TD*%
%TA.AperFunction,Conductor*%
%ADD17C,0.381000*%
%TD*%
G04 APERTURE END LIST*
D10*
%TO.P,R2,1*%
%TO.N,GND*%
X116840000Y-107315000D03*
D11*
%TO.P,R2,2*%
%TO.N,/PHOTO_SENS*%
X116840000Y-97155000D03*
%TD*%
D12*
%TO.P,J4,1,Pin_1*%
%TO.N,+3.3V*%
X130175000Y-71060000D03*
D13*
%TO.P,J4,2,Pin_2*%
%TO.N,unconnected-(J4-Pin_2-Pad2)*%
X132715000Y-71060000D03*
%TO.P,J4,3,Pin_3*%
%TO.N,/ESP_TX*%
X135255000Y-71060000D03*
%TO.P,J4,4,Pin_4*%
%TO.N,/ESP_RX*%
X137795000Y-71060000D03*
%TO.P,J4,5,Pin_5*%
%TO.N,unconnected-(J4-Pin_5-Pad5)*%
X140335000Y-71060000D03*
%TO.P,J4,6,Pin_6*%
%TO.N,GND*%
X142875000Y-71060000D03*
%TD*%
D12*
%TO.P,J1,1,Pin_1*%
%TO.N,/MOSI*%
X147320000Y-83820000D03*
D13*
%TO.P,J1,2,Pin_2*%
%TO.N,/RTD_CS*%
X147320000Y-86360000D03*
%TO.P,J1,3,Pin_3*%
%TO.N,unconnected-(J1-Pin_3-Pad3)*%
X147320000Y-88900000D03*
%TO.P,J1,4,Pin_4*%
%TO.N,unconnected-(J1-Pin_4-Pad4)*%
X147320000Y-91440000D03*
%TO.P,J1,5,Pin_5*%
%TO.N,unconnected-(J1-Pin_5-Pad5)*%
X147320000Y-93980000D03*
%TO.P,J1,6,Pin_6*%
%TO.N,/MISO*%
X147320000Y-96520000D03*
%TO.P,J1,7,Pin_7*%
%TO.N,/SCK*%
X147320000Y-99060000D03*
%TO.P,J1,8,Pin_8*%
%TO.N,/BME_CS*%
X147320000Y-101600000D03*
%TO.P,J1,9,Pin_9*%
%TO.N,/ESP_TX*%
X147320000Y-104140000D03*
%TO.P,J1,10,Pin_10*%
%TO.N,/ESP_RX*%
X147320000Y-106680000D03*
%TO.P,J1,11,Pin_11*%
%TO.N,unconnected-(J1-Pin_11-Pad11)*%
X147320000Y-109220000D03*
%TO.P,J1,12,Pin_12*%
%TO.N,unconnected-(J1-Pin_12-Pad12)*%
X147320000Y-111760000D03*
%TO.P,J1,13,Pin_13*%
%TO.N,unconnected-(J1-Pin_13-Pad13)*%
X147320000Y-114300000D03*
%TO.P,J1,14,Pin_14*%
%TO.N,GND*%
X147320000Y-116840000D03*
%TO.P,J1,15,Pin_15*%
%TO.N,+3.3V*%
X147320000Y-119380000D03*
%TD*%
D12*
%TO.P,J8,1,Pin_1*%
%TO.N,+3.3V*%
X106680000Y-112141000D03*
D13*
%TO.P,J8,2,Pin_2*%
%TO.N,GND*%
X106680000Y-114681000D03*
%TD*%
D12*
%TO.P,J3,1,Pin_1*%
%TO.N,/MISO*%
X182245000Y-97155000D03*
D13*
%TO.P,J3,2,Pin_2*%
%TO.N,/RTD_CS*%
X182245000Y-99695000D03*
%TO.P,J3,3,Pin_3*%
%TO.N,/SCK*%
X182245000Y-102235000D03*
%TO.P,J3,4,Pin_4*%
%TO.N,/MOSI*%
X182245000Y-104775000D03*
%TO.P,J3,5,Pin_5*%
%TO.N,unconnected-(J3-Pin_5-Pad5)*%
X182245000Y-107315000D03*
%TO.P,J3,6,Pin_6*%
%TO.N,GND*%
X182245000Y-109855000D03*
%TO.P,J3,7,Pin_7*%
%TO.N,+3.3V*%
X182245000Y-112395000D03*
%TD*%
D12*
%TO.P,J7,1,Pin_1*%
%TO.N,+3.3V*%
X106680000Y-94615000D03*
D13*
%TO.P,J7,2,Pin_2*%
%TO.N,/PHOTO_SENS*%
X106680000Y-97155000D03*
%TD*%
D12*
%TO.P,J6,1,Pin_1*%
%TO.N,+3.3V*%
X106680000Y-83820000D03*
D13*
%TO.P,J6,2,Pin_2*%
%TO.N,GND*%
X106680000Y-86360000D03*
%TO.P,J6,3,Pin_3*%
%TO.N,/WATER_SENS*%
X106680000Y-88900000D03*
%TD*%
D12*
%TO.P,J5,1,Pin_1*%
%TO.N,/BME_CS*%
X106680000Y-78232000D03*
D13*
%TO.P,J5,2,Pin_2*%
%TO.N,/MOSI*%
X106680000Y-75692000D03*
%TO.P,J5,3,Pin_3*%
%TO.N,/MISO*%
X106680000Y-73152000D03*
%TO.P,J5,4,Pin_4*%
%TO.N,/SCK*%
X106680000Y-70612000D03*
%TO.P,J5,5,Pin_5*%
%TO.N,+3.3V*%
X106680000Y-68072000D03*
%TO.P,J5,6,Pin_6*%
%TO.N,GND*%
X106680000Y-65532000D03*
%TD*%
D10*
%TO.P,R1,1*%
%TO.N,GND*%
X170180000Y-75184000D03*
D11*
%TO.P,R1,2*%
%TO.N,Net-(D1-K)*%
X160020000Y-75184000D03*
%TD*%
D14*
%TO.P,D1,1,K*%
%TO.N,Net-(D1-K)*%
X156210000Y-75311000D03*
D15*
%TO.P,D1,2,A*%
%TO.N,/STAT_LED*%
X153670000Y-75311000D03*
%TD*%
D12*
%TO.P,J2,1,Pin_1*%
%TO.N,unconnected-(J2-Pin_1-Pad1)*%
X121920000Y-83820000D03*
D13*
%TO.P,J2,2,Pin_2*%
%TO.N,unconnected-(J2-Pin_2-Pad2)*%
X121920000Y-86360000D03*
%TO.P,J2,3,Pin_3*%
%TO.N,unconnected-(J2-Pin_3-Pad3)*%
X121920000Y-88900000D03*
%TO.P,J2,4,Pin_4*%
%TO.N,unconnected-(J2-Pin_4-Pad4)*%
X121920000Y-91440000D03*
%TO.P,J2,5,Pin_5*%
%TO.N,/WATER_SENS*%
X121920000Y-93980000D03*
%TO.P,J2,6,Pin_6*%
%TO.N,/PHOTO_SENS*%
X121920000Y-96520000D03*
%TO.P,J2,7,Pin_7*%
%TO.N,unconnected-(J2-Pin_7-Pad7)*%
X121920000Y-99060000D03*
%TO.P,J2,8,Pin_8*%
%TO.N,unconnected-(J2-Pin_8-Pad8)*%
X121920000Y-101600000D03*
%TO.P,J2,9,Pin_9*%
%TO.N,unconnected-(J2-Pin_9-Pad9)*%
X121920000Y-104140000D03*
%TO.P,J2,10,Pin_10*%
%TO.N,unconnected-(J2-Pin_10-Pad10)*%
X121920000Y-106680000D03*
%TO.P,J2,11,Pin_11*%
%TO.N,unconnected-(J2-Pin_11-Pad11)*%
X121920000Y-109220000D03*
%TO.P,J2,12,Pin_12*%
%TO.N,/STAT_LED*%
X121920000Y-111760000D03*
%TO.P,J2,13,Pin_13*%
%TO.N,unconnected-(J2-Pin_13-Pad13)*%
X121920000Y-114300000D03*
%TO.P,J2,14,Pin_14*%
%TO.N,GND*%
X121920000Y-116840000D03*
%TO.P,J2,15,Pin_15*%
%TO.N,unconnected-(J2-Pin_15-Pad15)*%
X121920000Y-119380000D03*
%TD*%
D16*
%TO.N,/MOSI*%
X115443000Y-65714500D03*
X115117492Y-63047492D03*
%TO.N,/MISO*%
X114554000Y-65714500D03*
X114554000Y-64333500D03*
%TO.N,/ESP_RX*%
X139700000Y-95250000D03*
X139700000Y-97790000D03*
%TO.N,/RTD_CS*%
X151765000Y-97845500D03*
X151765000Y-96464500D03*
%TO.N,/WATER_SENS*%
X116510462Y-93015462D03*
X114935000Y-92075000D03*
%TD*%
D17*
%TO.N,/MOSI*%
X115443000Y-63373000D02*
X115117492Y-63047492D01*
X115443000Y-65714500D02*
X115443000Y-63373000D01*
%TO.N,/MISO*%
X114554000Y-64333500D02*
X114554000Y-65714500D01*
%TO.N,/ESP_RX*%
X139700000Y-97790000D02*
X139700000Y-95250000D01*
%TO.N,/RTD_CS*%
X151765000Y-97845500D02*
X151765000Y-96464500D01*
%TO.N,/WATER_SENS*%
X115875462Y-93015462D02*
X114935000Y-92075000D01*
X116510462Y-93015462D02*
X115875462Y-93015462D01*
%TD*%
%TA.AperFunction,Conductor*%
%TO.N,GND*%
G36*
X152403243Y-56380669D02*
G01*
X152739450Y-56398290D01*
X152752358Y-56399647D01*
X153081677Y-56451806D01*
X153094342Y-56454497D01*
X153416422Y-56540798D01*
X153428749Y-56544803D01*
X153740038Y-56664296D01*
X153751873Y-56669565D01*
X154048976Y-56820947D01*
X154060191Y-56827423D01*
X154339832Y-57009023D01*
X154350313Y-57016638D01*
X154522886Y-57156384D01*
X154609441Y-57226475D01*
X154619086Y-57235160D01*
X154854839Y-57470913D01*
X154863524Y-57480558D01*
X155073359Y-57739683D01*
X155080978Y-57750171D01*
X155262573Y-58029802D01*
X155269055Y-58041029D01*
X155333515Y-58167537D01*
X155420429Y-58338115D01*
X155425708Y-58349972D01*
X155545193Y-58661241D01*
X155549204Y-58673586D01*
X155628963Y-58971255D01*
X155635498Y-58995642D01*
X155638196Y-59008337D01*
X155690353Y-59337642D01*
X155691710Y-59350551D01*
X155709134Y-59683040D01*
X155709267Y-59686505D01*
X155709463Y-59694540D01*
X155709500Y-59697564D01*
X155709500Y-59755891D01*
X155710415Y-59762843D01*
X155711439Y-59776017D01*
X155863564Y-66045518D01*
X155863600Y-66048526D01*
X155863600Y-66239283D01*
X155900374Y-66636148D01*
X155900375Y-66636149D01*
X155900376Y-66636157D01*
X155934825Y-66820443D01*
X155973613Y-67027943D01*
X155973615Y-67027949D01*
X156075513Y-67386090D01*
X156082686Y-67411298D01*
X156137810Y-67553588D01*
X156226668Y-67782959D01*
X156226669Y-67782960D01*
X156404320Y-68139734D01*
X156404328Y-68139750D01*
X156614144Y-68478614D01*
X156614147Y-68478619D01*
X156854323Y-68796666D01*
X156854339Y-68796685D01*
X156995732Y-68951786D01*
X157097456Y-69063373D01*
X157122856Y-69091235D01*
X157228472Y-69187517D01*
X157417398Y-69359747D01*
X157693946Y-69568588D01*
X157735468Y-69599944D01*
X157912407Y-69709500D01*
X158074336Y-69809763D01*
X158431121Y-69987423D01*
X158802777Y-70131405D01*
X159186133Y-70240481D01*
X159186139Y-70240482D01*
X159186147Y-70240484D01*
X159577906Y-70313719D01*
X159577917Y-70313721D01*
X159974788Y-70350499D01*
X160093768Y-70350499D01*
X160108206Y-70350499D01*
X160108208Y-70350500D01*
X160174074Y-70350500D01*
X160239966Y-70350501D01*
X160239970Y-70350500D01*
X184084108Y-70350500D01*
X184146754Y-70350500D01*
X184153243Y-70350669D01*
X184489450Y-70368290D01*
X184502358Y-70369647D01*
X184831677Y-70421806D01*
X184844342Y-70424497D01*
X185166422Y-70510798D01*
X185178749Y-70514803D01*
X185490038Y-70634296D01*
X185501873Y-70639565D01*
X185798976Y-70790947D01*
X185810191Y-70797423D01*
X186089832Y-70979023D01*
X186100313Y-70986638D01*
X186322162Y-71166287D01*
X186359441Y-71196475D01*
X186369086Y-71205160D01*
X186604839Y-71440913D01*
X186613524Y-71450558D01*
X186823359Y-71709683D01*
X186830978Y-71720171D01*
X187012573Y-71999802D01*
X187019055Y-72011029D01*
X187152133Y-72272208D01*
X187170429Y-72308115D01*
X187175708Y-72319972D01*
X187295193Y-72631241D01*
X187299204Y-72643586D01*
X187385498Y-72965642D01*
X187388196Y-72978337D01*
X187440352Y-73307641D01*
X187441709Y-73320549D01*
X187459330Y-73656756D01*
X187459500Y-73663246D01*
X187459500Y-122550124D01*
X187459118Y-122559853D01*
X187442973Y-122764984D01*
X187439929Y-122784202D01*
X187393037Y-122979524D01*
X187387024Y-122998030D01*
X187310152Y-123183615D01*
X187301318Y-123200952D01*
X187196363Y-123372221D01*
X187184926Y-123387962D01*
X187054468Y-123540709D01*
X187040709Y-123554468D01*
X186887962Y-123684926D01*
X186872221Y-123696363D01*
X186700952Y-123801318D01*
X186683615Y-123810152D01*
X186498030Y-123887024D01*
X186479524Y-123893037D01*
X186284202Y-123939929D01*
X186264984Y-123942973D01*
X186059854Y-123959118D01*
X186050125Y-123959500D01*
X106049067Y-123959500D01*
X106040957Y-123959235D01*
X105786895Y-123942583D01*
X105770814Y-123940465D01*
X105735770Y-123933494D01*
X105525111Y-123891591D01*
X105509445Y-123887393D01*
X105272213Y-123806864D01*
X105257227Y-123800657D01*
X105032539Y-123689853D01*
X105018492Y-123681743D01*
X104810188Y-123542559D01*
X104797320Y-123532685D01*
X104608966Y-123367502D01*
X104597497Y-123356033D01*
X104432314Y-123167679D01*
X104422440Y-123154811D01*
X104317682Y-122998030D01*
X104283256Y-122946507D01*
X104275146Y-122932460D01*
X104202033Y-122784202D01*
X104164339Y-122707765D01*
X104158135Y-122692786D01*
X104077606Y-122455554D01*
X104073408Y-122439888D01*
X104064736Y-122396292D01*
X104024532Y-122194172D01*
X104022417Y-122178114D01*
X104005765Y-121924042D01*
X104005500Y-121915933D01*
X104005500Y-120155780D01*
X108127500Y-120155780D01*
X108127500Y-120382219D01*
X108127501Y-120382235D01*
X108157056Y-120606731D01*
X108157057Y-120606736D01*
X108157058Y-120606742D01*
X108181308Y-120697246D01*
X108215667Y-120825476D01*
X108302322Y-121034681D01*
X108302329Y-121034696D01*
X108415553Y-121230806D01*
X108553408Y-121410462D01*
X108553414Y-121410469D01*
X108713530Y-121570585D01*
X108713537Y-121570591D01*
X108893193Y-121708446D01*
X109089303Y-121821670D01*
X109089318Y-121821677D01*
X109167614Y-121854108D01*
X109298522Y-121908332D01*
X109517258Y-121966942D01*
X109741774Y-121996500D01*
X109741781Y-121996500D01*
X109968219Y-121996500D01*
X109968226Y-121996500D01*
X110192742Y-121966942D01*
X110411478Y-121908332D01*
X110620693Y-121821672D01*
X110816807Y-121708446D01*
X110996464Y-121570590D01*
X111156590Y-121410464D01*
X111294446Y-121230807D01*
X111407672Y-121034693D01*
X111494332Y-120825478D01*
X111552942Y-120606742D01*
X111582500Y-120382226D01*
X111582500Y-120155774D01*
X111552942Y-119931258D01*
X111494332Y-119712522D01*
X111407672Y-119503307D01*
X111294446Y-119307193D01*
X111156590Y-119127536D01*
X111156585Y-119127530D01*
X110996469Y-118967414D01*
X110996462Y-118967408D01*
X110816806Y-118829553D01*
X110620696Y-118716329D01*
X110620681Y-118716322D01*
X110411476Y-118629667D01*
X110302110Y-118600363D01*
X110192742Y-118571058D01*
X110192736Y-118571057D01*
X110192731Y-118571056D01*
X109968235Y-118541501D01*
X109968232Y-118541500D01*
X109968226Y-118541500D01*
X109741774Y-118541500D01*
X109741768Y-118541500D01*
X109741764Y-118541501D01*
X109517268Y-118571056D01*
X109517261Y-118571057D01*
X109517258Y-118571058D01*
X109471031Y-118583444D01*
X109298523Y-118629667D01*
X109089318Y-118716322D01*
X109089303Y-118716329D01*
X108893193Y-118829553D01*
X108713537Y-118967408D01*
X108713530Y-118967414D01*
X108553414Y-119127530D01*
X108553408Y-119127537D01*
X108415553Y-119307193D01*
X108302329Y-119503303D01*
X108302322Y-119503318D01*
X108215667Y-119712523D01*
X108157059Y-119931255D01*
X108157056Y-119931268D01*
X108127501Y-120155764D01*
X108127500Y-120155780D01*
X104005500Y-120155780D01*
X104005500Y-111243135D01*
X105329500Y-111243135D01*
X105329500Y-113038870D01*
X105329501Y-113038876D01*
X105335908Y-113098483D01*
X105386202Y-113233328D01*
X105386206Y-113233335D01*
X105472452Y-113348544D01*
X105472455Y-113348547D01*
X105587664Y-113434793D01*
X105587671Y-113434797D01*
X105587674Y-113434798D01*
X105719598Y-113484002D01*
X105775531Y-113525873D01*
X105799949Y-113591337D01*
X105785098Y-113659610D01*
X105763947Y-113687865D01*
X105650271Y-113801541D01*
X105525379Y-113973442D01*
X105428904Y-114162782D01*
X105363242Y-114364870D01*
X105363242Y-114364873D01*
X105352769Y-114431000D01*
X106246988Y-114431000D01*
X106214075Y-114488007D01*
X106180000Y-114615174D01*
X106180000Y-114746826D01*
X106214075Y-114873993D01*
X106246988Y-114931000D01*
X105352769Y-114931000D01*
X105363242Y-114997126D01*
X105363242Y-114997129D01*
X105428904Y-115199217D01*
X105525379Y-115388557D01*
X105650272Y-115560459D01*
X105650276Y-115560464D01*
X105800535Y-115710723D01*
X105800540Y-115710727D01*
X105972442Y-115835620D01*
X106161782Y-115932095D01*
X106363871Y-115997757D01*
X106430000Y-116008231D01*
X106430000Y-115114012D01*
X106487007Y-115146925D01*
X106614174Y-115181000D01*
X106745826Y-115181000D01*
X106872993Y-115146925D01*
X106930000Y-115114012D01*
X106930000Y-116008230D01*
X106996126Y-115997757D01*
X106996129Y-115997757D01*
X107198217Y-115932095D01*
X107387557Y-115835620D01*
X107559459Y-115710727D01*
X107559464Y-115710723D01*
X107709723Y-115560464D01*
X107709727Y-115560459D01*
X107834620Y-115388557D01*
X107931095Y-115199217D01*
X107996757Y-114997129D01*
X107996757Y-114997126D01*
X108007231Y-114931000D01*
X107113012Y-114931000D01*
X107145925Y-114873993D01*
X107180000Y-114746826D01*
X107180000Y-114615174D01*
X107145925Y-114488007D01*
X107113012Y-114431000D01*
X108007231Y-114431000D01*
X107996757Y-114364873D01*
X107996757Y-114364870D01*
X107931095Y-114162782D01*
X107834620Y-113973442D01*
X107709727Y-113801540D01*
X107709723Y-113801535D01*
X107596053Y-113687865D01*
X107562568Y-113626542D01*
X107567552Y-113556850D01*
X107609424Y-113500917D01*
X107640400Y-113484002D01*
X107772331Y-113434796D01*
X107887546Y-113348546D01*
X107973796Y-113233331D01*
X108024091Y-113098483D01*
X108030500Y-113038873D01*
X108030499Y-111243128D01*
X108024091Y-111183517D01*
X108009144Y-111143443D01*
X107973797Y-111048671D01*
X107973793Y-111048664D01*
X107887547Y-110933455D01*
X107887544Y-110933452D01*
X107772335Y-110847206D01*
X107772328Y-110847202D01*
X107637482Y-110796908D01*
X107637483Y-110796908D01*
X107577883Y-110790501D01*
X107577881Y-110790500D01*
X107577873Y-110790500D01*
X107577864Y-110790500D01*
X105782129Y-110790500D01*
X105782123Y-110790501D01*
X105722516Y-110796908D01*
X105587671Y-110847202D01*
X105587664Y-110847206D01*
X105472455Y-110933452D01*
X105472452Y-110933455D01*
X105386206Y-111048664D01*
X105386202Y-111048671D01*
X105335908Y-111183517D01*
X105329666Y-111241585D01*
X105329501Y-111243123D01*
X105329500Y-111243135D01*
X104005500Y-111243135D01*
X104005500Y-107212682D01*
X115540000Y-107212682D01*
X115540000Y-107417317D01*
X115572009Y-107619417D01*
X115635244Y-107814031D01*
X115728141Y-107996350D01*
X115728147Y-107996359D01*
X115760523Y-108040921D01*
X115760524Y-108040922D01*
X116440000Y-107361446D01*
X116440000Y-107367661D01*
X116467259Y-107469394D01*
X116519920Y-107560606D01*
X116594394Y-107635080D01*
X116685606Y-107687741D01*
X116787339Y-107715000D01*
X116793553Y-107715000D01*
X116114076Y-108394474D01*
X116158650Y-108426859D01*
X116340968Y-108519755D01*
X116535582Y-108582990D01*
X116737683Y-108615000D01*
X116942317Y-108615000D01*
X117144417Y-108582990D01*
X117339031Y-108519755D01*
X117521349Y-108426859D01*
X117565921Y-108394474D01*
X116886447Y-107715000D01*
X116892661Y-107715000D01*
X116994394Y-107687741D01*
X117085606Y-107635080D01*
X117160080Y-107560606D01*
X117212741Y-107469394D01*
X117240000Y-107367661D01*
X117240000Y-107361448D01*
X117919474Y-108040922D01*
X117919474Y-108040921D01*
X117951859Y-107996349D01*
X118044755Y-107814031D01*
X118107990Y-107619417D01*
X118140000Y-107417317D01*
X118140000Y-107212682D01*
X118107990Y-107010582D01*
X118044755Y-106815968D01*
X117951859Y-106633650D01*
X117919474Y-106589077D01*
X117919474Y-106589076D01*
X117240000Y-107268551D01*
X117240000Y-107262339D01*
X117212741Y-107160606D01*
X117160080Y-107069394D01*
X117085606Y-106994920D01*
X116994394Y-106942259D01*
X116892661Y-106915000D01*
X116886446Y-106915000D01*
X117565922Y-106235524D01*
X117565921Y-106235523D01*
X117521359Y-106203147D01*
X117521350Y-106203141D01*
X117339031Y-106110244D01*
X117144417Y-106047009D01*
X116942317Y-106015000D01*
X116737683Y-106015000D01*
X116535582Y-106047009D01*
X116340968Y-106110244D01*
X116158644Y-106203143D01*
X116114077Y-106235523D01*
X116114077Y-106235524D01*
X116793554Y-106915000D01*
X116787339Y-106915000D01*
X116685606Y-106942259D01*
X116594394Y-106994920D01*
X116519920Y-107069394D01*
X116467259Y-107160606D01*
X116440000Y-107262339D01*
X116440000Y-107268553D01*
X115760524Y-106589077D01*
X115760523Y-106589077D01*
X115728143Y-106633644D01*
X115635244Y-106815968D01*
X115572009Y-107010582D01*
X115540000Y-107212682D01*
X104005500Y-107212682D01*
X104005500Y-93717135D01*
X105329500Y-93717135D01*
X105329500Y-95512870D01*
X105329501Y-95512876D01*
X105335908Y-95572483D01*
X105386202Y-95707328D01*
X105386206Y-95707335D01*
X105472452Y-95822544D01*
X105472455Y-95822547D01*
X105587664Y-95908793D01*
X105587671Y-95908797D01*
X105719082Y-95957810D01*
X105775016Y-95999681D01*
X105799433Y-96065145D01*
X105784582Y-96133418D01*
X105763431Y-96161673D01*
X105649889Y-96275215D01*
X105524951Y-96447179D01*
X105428444Y-96636585D01*
X105362753Y-96838760D01*
X105329500Y-97048713D01*
X105329500Y-97261286D01*
X105361975Y-97466328D01*
X105362754Y-97471243D01*
X105408492Y-97612010D01*
X105428444Y-97673414D01*
X105524951Y-97862820D01*
X105649890Y-98034786D01*
X105800213Y-98185109D01*
X105972179Y-98310048D01*
X105972181Y-98310049D01*
X105972184Y-98310051D01*
X106161588Y-98406557D01*
X106363757Y-98472246D01*
X106573713Y-98505500D01*
X106573714Y-98505500D01*
X106786286Y-98505500D01*
X106786287Y-98505500D01*
X106996243Y-98472246D01*
X107198412Y-98406557D01*
X107387816Y-98310051D01*
X107474138Y-98247335D01*
X107559786Y-98185109D01*
X107559788Y-98185106D01*
X107559792Y-98185104D01*
X107710104Y-98034792D01*
X107710106Y-98034788D01*
X107710109Y-98034786D01*
X107835048Y-97862820D01*
X107835047Y-97862820D01*
X107835051Y-97862816D01*
X107931557Y-97673412D01*
X107997246Y-97471243D01*
X108030500Y-97261287D01*
X108030500Y-97052648D01*
X115539500Y-97052648D01*
X115539500Y-97257351D01*
X115571522Y-97459534D01*
X115634781Y-97654223D01*
X115727715Y-97836613D01*
X115848028Y-98002213D01*
X115992786Y-98146971D01*
X116130928Y-98247335D01*
X116158390Y-98267287D01*
X116242319Y-98310051D01*
X116340776Y-98360218D01*
X116340778Y-98360218D01*
X116340781Y-98360220D01*
X116445137Y-98394127D01*
X116535465Y-98423477D01*
X116636557Y-98439488D01*
X116737648Y-98455500D01*
X116737649Y-98455500D01*
X116942351Y-98455500D01*
X116942352Y-98455500D01*
X117144534Y-98423477D01*
X117339219Y-98360220D01*
X117521610Y-98267287D01*
X117656637Y-98169185D01*
X117687213Y-98146971D01*
X117687215Y-98146968D01*
X117687219Y-98146966D01*
X117831966Y-98002219D01*
X117831968Y-98002215D01*
X117831971Y-98002213D01*
X117902636Y-97904949D01*
X117952287Y-97836610D01*
X118045220Y-97654219D01*
X118108477Y-97459534D01*
X118140500Y-97257352D01*
X118140500Y-97052648D01*
X118108477Y-96850466D01*
X118108390Y-96850199D01*
X118045218Y-96655776D01*
X117987929Y-96543342D01*
X117952287Y-96473390D01*
X117944556Y-96462749D01*
X117831971Y-96307786D01*
X117687213Y-96163028D01*
X117521613Y-96042715D01*
X117521612Y-96042714D01*
X117521610Y-96042713D01*
X117437681Y-95999949D01*
X117339223Y-95949781D01*
X117144534Y-95886522D01*
X116969995Y-95858878D01*
X116942352Y-95854500D01*
X116737648Y-95854500D01*
X116713329Y-95858351D01*
X116535465Y-95886522D01*
X116340776Y-95949781D01*
X116158386Y-96042715D01*
X115992786Y-96163028D01*
X115848028Y-96307786D01*
X115727715Y-96473386D01*
X115634781Y-96655776D01*
X115571522Y-96850465D01*
X115539500Y-97052648D01*
X108030500Y-97052648D01*
X108030500Y-97048713D01*
X107997246Y-96838757D01*
X107931557Y-96636588D01*
X107835051Y-96447184D01*
X107835049Y-96447181D01*
X107835048Y-96447179D01*
X107710109Y-96275213D01*
X107596569Y-96161673D01*
X107563084Y-96100350D01*
X107568068Y-96030658D01*
X107609940Y-95974725D01*
X107640915Y-95957810D01*
X107772331Y-95908796D01*
X107887546Y-95822546D01*
X107973796Y-95707331D01*
X108024091Y-95572483D01*
X108030500Y-95512873D01*
X108030499Y-93717128D01*
X108024091Y-93657517D01*
X108016532Y-93637251D01*
X107973797Y-93522671D01*
X107973793Y-93522664D01*
X107887547Y-93407455D01*
X107887544Y-93407452D01*
X107772335Y-93321206D01*
X107772328Y-93321202D01*
X107637482Y-93270908D01*
X107637483Y-93270908D01*
X107577883Y-93264501D01*
X107577881Y-93264500D01*
X107577873Y-93264500D01*
X107577864Y-93264500D01*
X105782129Y-93264500D01*
X105782123Y-93264501D01*
X105722516Y-93270908D01*
X105587671Y-93321202D01*
X105587664Y-93321206D01*
X105472455Y-93407452D01*
X105472452Y-93407455D01*
X105386206Y-93522664D01*
X105386202Y-93522671D01*
X105335908Y-93657517D01*
X105329501Y-93717116D01*
X105329501Y-93717123D01*
X105329500Y-93717135D01*
X104005500Y-93717135D01*
X104005500Y-91996153D01*
X114134500Y-91996153D01*
X114134500Y-92153846D01*
X114165261Y-92308489D01*
X114165264Y-92308501D01*
X114225602Y-92454172D01*
X114225609Y-92454185D01*
X114313210Y-92585288D01*
X114313213Y-92585292D01*
X114424707Y-92696786D01*
X114424711Y-92696789D01*
X114555814Y-92784390D01*
X114555823Y-92784395D01*
X114701503Y-92844737D01*
X114707325Y-92846503D01*
X114706612Y-92848851D01*
X114758964Y-92876214D01*
X114760571Y-92877793D01*
X115434969Y-93552192D01*
X115434972Y-93552195D01*
X115434975Y-93552197D01*
X115494436Y-93591927D01*
X115548151Y-93627818D01*
X115548152Y-93627818D01*
X115548153Y-93627819D01*
X115673900Y-93679905D01*
X115673905Y-93679907D01*
X115673909Y-93679907D01*
X115673910Y-93679908D01*
X115807401Y-93706462D01*
X115807404Y-93706462D01*
X115807405Y-93706462D01*
X115943519Y-93706462D01*
X116066139Y-93706462D01*
X116124971Y-93723737D01*
X116125909Y-93721983D01*
X116131277Y-93724852D01*
X116131283Y-93724856D01*
X116276965Y-93785199D01*
X116431615Y-93815961D01*
X116431618Y-93815962D01*
X116431620Y-93815962D01*
X116589306Y-93815962D01*
X116589307Y-93815961D01*
X116743959Y-93785199D01*
X116889641Y-93724856D01*
X117020751Y-93637251D01*
X117132251Y-93525751D01*
X117219856Y-93394641D01*
X117280199Y-93248959D01*
X117310962Y-93094304D01*
X117310962Y-92936620D01*
X117310962Y-92936617D01*
X117310961Y-92936615D01*
X117280199Y-92781965D01*
X117280197Y-92781960D01*
X117219859Y-92636289D01*
X117219852Y-92636276D01*
X117132251Y-92505173D01*
X117132248Y-92505169D01*
X117020754Y-92393675D01*
X117020750Y-92393672D01*
X116889647Y-92306071D01*
X116889634Y-92306064D01*
X116743963Y-92245726D01*
X116743951Y-92245723D01*
X116589307Y-92214962D01*
X116589304Y-92214962D01*
X116431620Y-92214962D01*
X116431617Y-92214962D01*
X116276973Y-92245722D01*
X116276964Y-92245725D01*
X116216317Y-92270845D01*
X116146848Y-92278312D01*
X116084369Y-92247036D01*
X116081186Y-92243964D01*
X115737793Y-91900571D01*
X115708403Y-91846748D01*
X115706503Y-91847325D01*
X115704737Y-91841503D01*
X115644395Y-91695823D01*
X115644390Y-91695814D01*
X115556789Y-91564711D01*
X115556786Y-91564707D01*
X115445292Y-91453213D01*
X115445288Y-91453210D01*
X115314185Y-91365609D01*
X115314172Y-91365602D01*
X115168501Y-91305264D01*
X115168489Y-91305261D01*
X115013845Y-91274500D01*
X115013842Y-91274500D01*
X114856158Y-91274500D01*
X114856155Y-91274500D01*
X114701510Y-91305261D01*
X114701498Y-91305264D01*
X114555827Y-91365602D01*
X114555814Y-91365609D01*
X114424711Y-91453210D01*
X114424707Y-91453213D01*
X114313213Y-91564707D01*
X114313210Y-91564711D01*
X114225609Y-91695814D01*
X114225602Y-91695827D01*
X114165264Y-91841498D01*
X114165261Y-91841510D01*
X114134500Y-91996153D01*
X104005500Y-91996153D01*
X104005500Y-82922135D01*
X105329500Y-82922135D01*
X105329500Y-84717870D01*
X105329501Y-84717876D01*
X105335908Y-84777483D01*
X105386202Y-84912328D01*
X105386206Y-84912335D01*
X105472452Y-85027544D01*
X105472455Y-85027547D01*
X105587664Y-85113793D01*
X105587671Y-85113797D01*
X105587674Y-85113798D01*
X105719598Y-85163002D01*
X105775531Y-85204873D01*
X105799949Y-85270337D01*
X105785098Y-85338610D01*
X105763947Y-85366865D01*
X105650271Y-85480541D01*
X105525379Y-85652442D01*
X105428904Y-85841782D01*
X105363242Y-86043870D01*
X105363242Y-86043873D01*
X105352769Y-86110000D01*
X106246988Y-86110000D01*
X106214075Y-86167007D01*
X106180000Y-86294174D01*
X106180000Y-86425826D01*
X106214075Y-86552993D01*
X106246988Y-86610000D01*
X105352769Y-86610000D01*
X105363242Y-86676126D01*
X105363242Y-86676129D01*
X105428904Y-86878217D01*
X105525379Y-87067557D01*
X105650272Y-87239459D01*
X105650276Y-87239464D01*
X105800535Y-87389723D01*
X105800540Y-87389727D01*
X105972444Y-87514622D01*
X105981495Y-87519234D01*
X106032292Y-87567208D01*
X106049087Y-87635029D01*
X106026550Y-87701164D01*
X105981499Y-87740202D01*
X105972182Y-87744949D01*
X105800213Y-87869890D01*
X105649890Y-88020213D01*
X105524951Y-88192179D01*
X105428444Y-88381585D01*
X105362753Y-88583760D01*
X105329500Y-88793713D01*
X105329500Y-89006286D01*
X105362753Y-89216239D01*
X105428444Y-89418414D01*
X105524951Y-89607820D01*
X105649890Y-89779786D01*
X105800213Y-89930109D01*
X105972179Y-90055048D01*
X105972181Y-90055049D01*
X105972184Y-90055051D01*
X106161588Y-90151557D01*
X106363757Y-90217246D01*
X106573713Y-90250500D01*
X106573714Y-90250500D01*
X106786286Y-90250500D01*
X106786287Y-90250500D01*
X106996243Y-90217246D01*
X107198412Y-90151557D01*
X107387816Y-90055051D01*
X107409789Y-90039086D01*
X107559786Y-89930109D01*
X107559788Y-89930106D01*
X107559792Y-89930104D01*
X107710104Y-89779792D01*
X107710106Y-89779788D01*
X107710109Y-89779786D01*
X107835048Y-89607820D01*
X107835047Y-89607820D01*
X107835051Y-89607816D01*
X107931557Y-89418412D01*
X107997246Y-89216243D01*
X108030500Y-89006287D01*
X108030500Y-88793713D01*
X107997246Y-88583757D01*
X107931557Y-88381588D01*
X107835051Y-88192184D01*
X107835049Y-88192181D01*
X107835048Y-88192179D01*
X107710109Y-88020213D01*
X107559786Y-87869890D01*
X107387817Y-87744949D01*
X107378504Y-87740204D01*
X107327707Y-87692230D01*
X107310912Y-87624409D01*
X107333449Y-87558274D01*
X107378507Y-87519232D01*
X107387558Y-87514620D01*
X107559459Y-87389727D01*
X107559464Y-87389723D01*
X107709723Y-87239464D01*
X107709727Y-87239459D01*
X107834620Y-87067557D01*
X107931095Y-86878217D01*
X107996757Y-86676129D01*
X107996757Y-86676126D01*
X108007231Y-86610000D01*
X107113012Y-86610000D01*
X107145925Y-86552993D01*
X107180000Y-86425826D01*
X107180000Y-86294174D01*
X107145925Y-86167007D01*
X107113012Y-86110000D01*
X108007231Y-86110000D01*
X107996757Y-86043873D01*
X107996757Y-86043870D01*
X107931095Y-85841782D01*
X107834620Y-85652442D01*
X107709727Y-85480540D01*
X107709723Y-85480535D01*
X107596053Y-85366865D01*
X107562568Y-85305542D01*
X107567552Y-85235850D01*
X107609424Y-85179917D01*
X107640400Y-85163002D01*
X107772331Y-85113796D01*
X107887546Y-85027546D01*
X107973796Y-84912331D01*
X108024091Y-84777483D01*
X108030500Y-84717873D01*
X108030499Y-82922135D01*
X120569500Y-82922135D01*
X120569500Y-84717870D01*
X120569501Y-84717876D01*
X120575908Y-84777483D01*
X120626202Y-84912328D01*
X120626206Y-84912335D01*
X120712452Y-85027544D01*
X120712455Y-85027547D01*
X120827664Y-85113793D01*
X120827671Y-85113797D01*
X120959082Y-85162810D01*
X121015016Y-85204681D01*
X121039433Y-85270145D01*
X121024582Y-85338418D01*
X121003431Y-85366673D01*
X120889889Y-85480215D01*
X120764951Y-85652179D01*
X120668444Y-85841585D01*
X120602753Y-86043760D01*
X120569500Y-86253713D01*
X120569500Y-86466286D01*
X120602753Y-86676239D01*
X120668444Y-86878414D01*
X120764951Y-87067820D01*
X120889890Y-87239786D01*
X121040213Y-87390109D01*
X121212182Y-87515050D01*
X121220946Y-87519516D01*
X121271742Y-87567491D01*
X121288536Y-87635312D01*
X121265998Y-87701447D01*
X121220946Y-87740484D01*
X121212182Y-87744949D01*
X121040213Y-87869890D01*
X120889890Y-88020213D01*
X120764951Y-88192179D01*
X120668444Y-88381585D01*
X120602753Y-88583760D01*
X120569500Y-88793713D01*
X120569500Y-89006286D01*
X120602753Y-89216239D01*
X120668444Y-89418414D01*
X120764951Y-89607820D01*
X120889890Y-89779786D01*
X121040213Y-89930109D01*
X121212182Y-90055050D01*
X121220946Y-90059516D01*
X121271742Y-90107491D01*
X121288536Y-90175312D01*
X121265998Y-90241447D01*
X121220946Y-90280484D01*
X121212182Y-90284949D01*
X121040213Y-90409890D01*
X120889890Y-90560213D01*
X120764951Y-90732179D01*
X120668444Y-90921585D01*
X120602753Y-91123760D01*
X120578878Y-91274500D01*
X120569500Y-91333713D01*
X120569500Y-91546287D01*
X120602754Y-91756243D01*
X120649649Y-91900571D01*
X120668444Y-91958414D01*
X120764951Y-92147820D01*
X120889890Y-92319786D01*
X121040213Y-92470109D01*
X121212182Y-92595050D01*
X121220946Y-92599516D01*
X121271742Y-92647491D01*
X121288536Y-92715312D01*
X121265998Y-92781447D01*
X121220946Y-92820484D01*
X121212182Y-92824949D01*
X121040213Y-92949890D01*
X120889890Y-93100213D01*
X120764951Y-93272179D01*
X120668444Y-93461585D01*
X120602753Y-93663760D01*
X120583519Y-93785199D01*
X120569500Y-93873713D01*
X120569500Y-94086287D01*
X120602754Y-94296243D01*
X120662546Y-94480264D01*
X120668444Y-94498414D01*
X120764951Y-94687820D01*
X120889890Y-94859786D01*
X121040213Y-95010109D01*
X121212182Y-95135050D01*
X121220946Y-95139516D01*
X121271742Y-95187491D01*
X121288536Y-95255312D01*
X121265998Y-95321447D01*
X121220946Y-95360484D01*
X121212182Y-95364949D01*
X121040213Y-95489890D01*
X120889890Y-95640213D01*
X120764951Y-95812179D01*
X120668444Y-96001585D01*
X120602753Y-96203760D01*
X120571837Y-96398960D01*
X120569500Y-96413713D01*
X120569500Y-96626287D01*
X120602754Y-96836243D01*
X120626336Y-96908822D01*
X120668444Y-97038414D01*
X120764951Y-97227820D01*
X120889890Y-97399786D01*
X121040213Y-97550109D01*
X121212182Y-97675050D01*
X121220946Y-97679516D01*
X121271742Y-97727491D01*
X121288536Y-97795312D01*
X121265998Y-97861447D01*
X121220946Y-97900484D01*
X121212182Y-97904949D01*
X121040213Y-98029890D01*
X120889890Y-98180213D01*
X120764951Y-98352179D01*
X120668444Y-98541585D01*
X120602753Y-98743760D01*
X120569500Y-98953713D01*
X120569500Y-99166286D01*
X120602753Y-99376239D01*
X120668444Y-99578414D01*
X120764951Y-99767820D01*
X120889890Y-99939786D01*
X121040213Y-100090109D01*
X121212182Y-100215050D01*
X121220946Y-100219516D01*
X121271742Y-100267491D01*
X121288536Y-100335312D01*
X121265998Y-100401447D01*
X121220946Y-100440484D01*
X121212182Y-100444949D01*
X121040213Y-100569890D01*
X120889890Y-100720213D01*
X120764951Y-100892179D01*
X120668444Y-101081585D01*
X120602753Y-101283760D01*
X120569500Y-101493713D01*
X120569500Y-101706286D01*
X120602753Y-101916239D01*
X120668444Y-102118414D01*
X120764951Y-102307820D01*
X120889890Y-102479786D01*
X121040213Y-102630109D01*
X121212182Y-102755050D01*
X121220946Y-102759516D01*
X121271742Y-102807491D01*
X121288536Y-102875312D01*
X121265998Y-102941447D01*
X121220946Y-102980484D01*
X121212182Y-102984949D01*
X121040213Y-103109890D01*
X120889890Y-103260213D01*
X120764951Y-103432179D01*
X120668444Y-103621585D01*
X120602753Y-103823760D01*
X120569500Y-104033713D01*
X120569500Y-104246286D01*
X120602753Y-104456239D01*
X120668444Y-104658414D01*
X120764951Y-104847820D01*
X120889890Y-105019786D01*
X121040213Y-105170109D01*
X121212182Y-105295050D01*
X121220946Y-105299516D01*
X121271742Y-105347491D01*
X121288536Y-105415312D01*
X121265998Y-105481447D01*
X121220946Y-105520484D01*
X121212182Y-105524949D01*
X121040213Y-105649890D01*
X120889890Y-105800213D01*
X120764951Y-105972179D01*
X120668444Y-106161585D01*
X120602753Y-106363760D01*
X120569500Y-106573713D01*
X120569500Y-106786286D01*
X120597242Y-106961446D01*
X120602754Y-106996243D01*
X120626522Y-107069394D01*
X120668444Y-107198414D01*
X120764951Y-107387820D01*
X120889890Y-107559786D01*
X121040213Y-107710109D01*
X121212182Y-107835050D01*
X121220946Y-107839516D01*
X121271742Y-107887491D01*
X121288536Y-107955312D01*
X121265998Y-108021447D01*
X121220946Y-108060484D01*
X121212182Y-108064949D01*
X121040213Y-108189890D01*
X120889890Y-108340213D01*
X120764951Y-108512179D01*
X120668444Y-108701585D01*
X120602753Y-108903760D01*
X120569500Y-109113713D01*
X120569500Y-109326286D01*
X120589870Y-109454901D01*
X120602754Y-109536243D01*
X120643617Y-109662007D01*
X120668444Y-109738414D01*
X120764951Y-109927820D01*
X120889890Y-110099786D01*
X121040213Y-110250109D01*
X121212182Y-110375050D01*
X121220946Y-110379516D01*
X121271742Y-110427491D01*
X121288536Y-110495312D01*
X121265998Y-110561447D01*
X121220946Y-110600484D01*
X121212182Y-110604949D01*
X121040213Y-110729890D01*
X120889890Y-110880213D01*
X120764951Y-111052179D01*
X120668444Y-111241585D01*
X120602753Y-111443760D01*
X120569500Y-111653713D01*
X120569500Y-111866286D01*
X120602753Y-112076239D01*
X120668444Y-112278414D01*
X120764951Y-112467820D01*
X120889890Y-112639786D01*
X121040213Y-112790109D01*
X121212182Y-112915050D01*
X121220946Y-112919516D01*
X121271742Y-112967491D01*
X121288536Y-113035312D01*
X121265998Y-113101447D01*
X121220946Y-113140484D01*
X121212182Y-113144949D01*
X121040213Y-113269890D01*
X120889890Y-113420213D01*
X120764951Y-113592179D01*
X120668444Y-113781585D01*
X120602753Y-113983760D01*
X120569500Y-114193713D01*
X120569500Y-114406286D01*
X120602584Y-114615174D01*
X120602754Y-114616243D01*
X120645183Y-114746826D01*
X120668444Y-114818414D01*
X120764951Y-115007820D01*
X120889890Y-115179786D01*
X121040213Y-115330109D01*
X121212179Y-115455048D01*
X121212181Y-115455049D01*
X121212184Y-115455051D01*
X121221493Y-115459794D01*
X121272290Y-115507766D01*
X121289087Y-115575587D01*
X121266552Y-115641722D01*
X121221502Y-115680762D01*
X121212443Y-115685378D01*
X121040540Y-115810272D01*
X121040535Y-115810276D01*
X120890276Y-115960535D01*
X120890272Y-115960540D01*
X120765379Y-116132442D01*
X120668904Y-116321782D01*
X120603242Y-116523870D01*
X120603242Y-116523873D01*
X120592769Y-116590000D01*
X121486988Y-116590000D01*
X121454075Y-116647007D01*
X121420000Y-116774174D01*
X121420000Y-116905826D01*
X121454075Y-117032993D01*
X121486988Y-117090000D01*
X120592769Y-117090000D01*
X120603242Y-117156126D01*
X120603242Y-117156129D01*
X120668904Y-117358217D01*
X120765379Y-117547557D01*
X120890272Y-117719459D01*
X120890276Y-117719464D01*
X121040535Y-117869723D01*
X121040540Y-117869727D01*
X121212444Y-117994622D01*
X121221495Y-117999234D01*
X121272292Y-118047208D01*
X121289087Y-118115029D01*
X121266550Y-118181164D01*
X121221499Y-118220202D01*
X121212182Y-118224949D01*
X121040213Y-118349890D01*
X120889890Y-118500213D01*
X120764951Y-118672179D01*
X120668444Y-118861585D01*
X120602753Y-119063760D01*
X120592653Y-119127530D01*
X120569500Y-119273713D01*
X120569500Y-119486287D01*
X120602754Y-119696243D01*
X120608043Y-119712522D01*
X120668444Y-119898414D01*
X120764951Y-120087820D01*
X120889890Y-120259786D01*
X121040213Y-120410109D01*
X121212179Y-120535048D01*
X121212181Y-120535049D01*
X121212184Y-120535051D01*
X121401588Y-120631557D01*
X121603757Y-120697246D01*
X121813713Y-120730500D01*
X121813714Y-120730500D01*
X122026286Y-120730500D01*
X122026287Y-120730500D01*
X122236243Y-120697246D01*
X122438412Y-120631557D01*
X122627816Y-120535051D01*
X122649789Y-120519086D01*
X122799786Y-120410109D01*
X122799788Y-120410106D01*
X122799792Y-120410104D01*
X122950104Y-120259792D01*
X122950106Y-120259788D01*
X122950109Y-120259786D01*
X123075048Y-120087820D01*
X123075047Y-120087820D01*
X123075051Y-120087816D01*
X123171557Y-119898412D01*
X123237246Y-119696243D01*
X123270500Y-119486287D01*
X123270500Y-119273713D01*
X123237246Y-119063757D01*
X123171557Y-118861588D01*
X123075051Y-118672184D01*
X123075049Y-118672181D01*
X123075048Y-118672179D01*
X122950109Y-118500213D01*
X122799786Y-118349890D01*
X122627817Y-118224949D01*
X122618504Y-118220204D01*
X122567707Y-118172230D01*
X122550912Y-118104409D01*
X122573449Y-118038274D01*
X122618507Y-117999232D01*
X122627558Y-117994620D01*
X122799459Y-117869727D01*
X122799464Y-117869723D01*
X122949723Y-117719464D01*
X122949727Y-117719459D01*
X123074620Y-117547557D01*
X123171095Y-117358217D01*
X123236757Y-117156129D01*
X123236757Y-117156126D01*
X123247231Y-117090000D01*
X122353012Y-117090000D01*
X122385925Y-117032993D01*
X122420000Y-116905826D01*
X122420000Y-116774174D01*
X122385925Y-116647007D01*
X122353012Y-116590000D01*
X123247231Y-116590000D01*
X123236757Y-116523873D01*
X123236757Y-116523870D01*
X123171095Y-116321782D01*
X123074620Y-116132442D01*
X122949727Y-115960540D01*
X122949723Y-115960535D01*
X122799464Y-115810276D01*
X122799459Y-115810272D01*
X122627555Y-115685377D01*
X122618500Y-115680763D01*
X122567706Y-115632788D01*
X122550912Y-115564966D01*
X122573451Y-115498832D01*
X122618508Y-115459793D01*
X122627816Y-115455051D01*
X122719338Y-115388557D01*
X122799786Y-115330109D01*
X122799788Y-115330106D01*
X122799792Y-115330104D01*
X122950104Y-115179792D01*
X122950106Y-115179788D01*
X122950109Y-115179786D01*
X123075048Y-115007820D01*
X123075047Y-115007820D01*
X123075051Y-115007816D01*
X123171557Y-114818412D01*
X123237246Y-114616243D01*
X123270500Y-114406287D01*
X123270500Y-114193713D01*
X123237246Y-113983757D01*
X123171557Y-113781588D01*
X123075051Y-113592184D01*
X123075049Y-113592181D01*
X123075048Y-113592179D01*
X122950109Y-113420213D01*
X122799786Y-113269890D01*
X122627820Y-113144951D01*
X122627115Y-113144591D01*
X122619054Y-113140485D01*
X122568259Y-113092512D01*
X122551463Y-113024692D01*
X122573999Y-112958556D01*
X122619054Y-112919515D01*
X122627816Y-112915051D01*
X122649789Y-112899086D01*
X122799786Y-112790109D01*
X122799788Y-112790106D01*
X122799792Y-112790104D01*
X122950104Y-112639792D01*
X122950106Y-112639788D01*
X122950109Y-112639786D01*
X123075048Y-112467820D01*
X123075047Y-112467820D01*
X123075051Y-112467816D01*
X123171557Y-112278412D01*
X123237246Y-112076243D01*
X123270500Y-111866287D01*
X123270500Y-111653713D01*
X123237246Y-111443757D01*
X123171557Y-111241588D01*
X123075051Y-111052184D01*
X123075049Y-111052181D01*
X123075048Y-111052179D01*
X122950109Y-110880213D01*
X122799786Y-110729890D01*
X122627820Y-110604951D01*
X122627115Y-110604591D01*
X122619054Y-110600485D01*
X122568259Y-110552512D01*
X122551463Y-110484692D01*
X122573999Y-110418556D01*
X122619054Y-110379515D01*
X122627816Y-110375051D01*
X122702315Y-110320925D01*
X122799786Y-110250109D01*
X122799788Y-110250106D01*
X122799792Y-110250104D01*
X122950104Y-110099792D01*
X122950106Y-110099788D01*
X122950109Y-110099786D01*
X123075048Y-109927820D01*
X123075047Y-109927820D01*
X123075051Y-109927816D01*
X123171557Y-109738412D01*
X123237246Y-109536243D01*
X123270500Y-109326287D01*
X123270500Y-109113713D01*
X123237246Y-108903757D01*
X123171557Y-108701588D01*
X123075051Y-108512184D01*
X123075049Y-108512181D01*
X123075048Y-108512179D01*
X122950109Y-108340213D01*
X122799786Y-108189890D01*
X122627820Y-108064951D01*
X122627115Y-108064591D01*
X122619054Y-108060485D01*
X122568259Y-108012512D01*
X122551463Y-107944692D01*
X122573999Y-107878556D01*
X122619054Y-107839515D01*
X122627816Y-107835051D01*
X122656748Y-107814031D01*
X122799786Y-107710109D01*
X122799788Y-107710106D01*
X122799792Y-107710104D01*
X122950104Y-107559792D01*
X122950106Y-107559788D01*
X122950109Y-107559786D01*
X123075048Y-107387820D01*
X123075047Y-107387820D01*
X123075051Y-107387816D01*
X123171557Y-107198412D01*
X123237246Y-106996243D01*
X123270500Y-106786287D01*
X123270500Y-106573713D01*
X123237246Y-106363757D01*
X123171557Y-106161588D01*
X123075051Y-105972184D01*
X123075049Y-105972181D01*
X123075048Y-105972179D01*
X122950109Y-105800213D01*
X122799786Y-105649890D01*
X122627820Y-105524951D01*
X122627115Y-105524591D01*
X122619054Y-105520485D01*
X122568259Y-105472512D01*
X122551463Y-105404692D01*
X122573999Y-105338556D01*
X122619054Y-105299515D01*
X122627816Y-105295051D01*
X122649789Y-105279086D01*
X122799786Y-105170109D01*
X122799788Y-105170106D01*
X122799792Y-105170104D01*
X122950104Y-105019792D01*
X122950106Y-105019788D01*
X122950109Y-105019786D01*
X123075048Y-104847820D01*
X123075047Y-104847820D01*
X123075051Y-104847816D01*
X123171557Y-104658412D01*
X123237246Y-104456243D01*
X123270500Y-104246287D01*
X123270500Y-104033713D01*
X123237246Y-103823757D01*
X123171557Y-103621588D01*
X123075051Y-103432184D01*
X123075049Y-103432181D01*
X123075048Y-103432179D01*
X122950109Y-103260213D01*
X122799786Y-103109890D01*
X122627820Y-102984951D01*
X122627115Y-102984591D01*
X122619054Y-102980485D01*
X122568259Y-102932512D01*
X122551463Y-102864692D01*
X122573999Y-102798556D01*
X122619054Y-102759515D01*
X122627816Y-102755051D01*
X122649789Y-102739086D01*
X122799786Y-102630109D01*
X122799788Y-102630106D01*
X122799792Y-102630104D01*
X122950104Y-102479792D01*
X122950106Y-102479788D01*
X122950109Y-102479786D01*
X123075048Y-102307820D01*
X123075047Y-102307820D01*
X123075051Y-102307816D01*
X123171557Y-102118412D01*
X123237246Y-101916243D01*
X123270500Y-101706287D01*
X123270500Y-101493713D01*
X123237246Y-101283757D01*
X123171557Y-101081588D01*
X123075051Y-100892184D01*
X123075049Y-100892181D01*
X123075048Y-100892179D01*
X122950109Y-100720213D01*
X122799786Y-100569890D01*
X122627820Y-100444951D01*
X122627115Y-100444591D01*
X122619054Y-100440485D01*
X122568259Y-100392512D01*
X122551463Y-100324692D01*
X122573999Y-100258556D01*
X122619054Y-100219515D01*
X122627816Y-100215051D01*
X122649789Y-100199086D01*
X122799786Y-100090109D01*
X122799788Y-100090106D01*
X122799792Y-100090104D01*
X122950104Y-99939792D01*
X122950106Y-99939788D01*
X122950109Y-99939786D01*
X123075048Y-99767820D01*
X123075047Y-99767820D01*
X123075051Y-99767816D01*
X123171557Y-99578412D01*
X123237246Y-99376243D01*
X123270500Y-99166287D01*
X123270500Y-98953713D01*
X123237246Y-98743757D01*
X123171557Y-98541588D01*
X123075051Y-98352184D01*
X123075049Y-98352181D01*
X123075048Y-98352179D01*
X122950109Y-98180213D01*
X122799786Y-98029890D01*
X122627820Y-97904951D01*
X122627115Y-97904591D01*
X122619054Y-97900485D01*
X122568259Y-97852512D01*
X122551463Y-97784692D01*
X122573999Y-97718556D01*
X122619054Y-97679515D01*
X122627816Y-97675051D01*
X122649789Y-97659086D01*
X122799786Y-97550109D01*
X122799788Y-97550106D01*
X122799792Y-97550104D01*
X122950104Y-97399792D01*
X122950106Y-97399788D01*
X122950109Y-97399786D01*
X123075048Y-97227820D01*
X123075047Y-97227820D01*
X123075051Y-97227816D01*
X123171557Y-97038412D01*
X123237246Y-96836243D01*
X123270500Y-96626287D01*
X123270500Y-96413713D01*
X123237246Y-96203757D01*
X123171557Y-96001588D01*
X123075051Y-95812184D01*
X123075049Y-95812181D01*
X123075048Y-95812179D01*
X122950109Y-95640213D01*
X122799786Y-95489890D01*
X122627820Y-95364951D01*
X122627115Y-95364591D01*
X122619054Y-95360485D01*
X122616100Y-95357695D01*
X122612161Y-95356693D01*
X122590909Y-95333903D01*
X122568259Y-95312512D01*
X122567281Y-95308566D01*
X122564510Y-95305594D01*
X122558953Y-95274937D01*
X122551463Y-95244692D01*
X122552774Y-95240844D01*
X122552049Y-95236844D01*
X122563948Y-95208049D01*
X122573999Y-95178556D01*
X122577628Y-95174949D01*
X122578735Y-95172272D01*
X122580112Y-95171153D01*
X138899500Y-95171153D01*
X138899500Y-95328846D01*
X138930261Y-95483489D01*
X138930264Y-95483501D01*
X138990603Y-95629174D01*
X138993475Y-95634546D01*
X138991317Y-95635699D01*
X139008980Y-95692108D01*
X139009000Y-95694322D01*
X139009000Y-97345677D01*
X138991724Y-97404509D01*
X138993479Y-97405447D01*
X138990602Y-97410828D01*
X138930264Y-97556498D01*
X138930261Y-97556510D01*
X138899500Y-97711153D01*
X138899500Y-97868846D01*
X138930261Y-98023489D01*
X138930264Y-98023501D01*
X138990602Y-98169172D01*
X138990609Y-98169185D01*
X139078210Y-98300288D01*
X139078213Y-98300292D01*
X139189707Y-98411786D01*
X139189711Y-98411789D01*
X139320814Y-98499390D01*
X139320827Y-98499397D01*
X139422687Y-98541588D01*
X139466503Y-98559737D01*
X139621153Y-98590499D01*
X139621156Y-98590500D01*
X139621158Y-98590500D01*
X139778844Y-98590500D01*
X139778845Y-98590499D01*
X139933497Y-98559737D01*
X140079179Y-98499394D01*
X140210289Y-98411789D01*
X140321789Y-98300289D01*
X140409394Y-98169179D01*
X140469737Y-98023497D01*
X140500500Y-97868842D01*
X140500500Y-97711158D01*
X140500500Y-97711155D01*
X140500499Y-97711153D01*
X140494206Y-97679516D01*
X140469737Y-97556503D01*
X140467089Y-97550109D01*
X140409397Y-97410828D01*
X140409396Y-97410827D01*
X140409394Y-97410821D01*
X140409390Y-97410815D01*
X140406521Y-97405447D01*
X140408676Y-97404294D01*
X140391019Y-97347869D01*
X140391000Y-97345677D01*
X140391000Y-95694322D01*
X140408277Y-95635482D01*
X140406525Y-95634546D01*
X140409390Y-95629184D01*
X140409394Y-95629179D01*
X140469737Y-95483497D01*
X140500500Y-95328842D01*
X140500500Y-95171158D01*
X140500500Y-95171155D01*
X140500499Y-95171153D01*
X140499315Y-95165199D01*
X140469737Y-95016503D01*
X140467087Y-95010105D01*
X140409397Y-94870827D01*
X140409390Y-94870814D01*
X140321789Y-94739711D01*
X140321786Y-94739707D01*
X140210292Y-94628213D01*
X140210288Y-94628210D01*
X140079185Y-94540609D01*
X140079172Y-94540602D01*
X139933501Y-94480264D01*
X139933489Y-94480261D01*
X139778845Y-94449500D01*
X139778842Y-94449500D01*
X139621158Y-94449500D01*
X139621155Y-94449500D01*
X139466510Y-94480261D01*
X139466498Y-94480264D01*
X139320827Y-94540602D01*
X139320814Y-94540609D01*
X139189711Y-94628210D01*
X139189707Y-94628213D01*
X139078213Y-94739707D01*
X139078210Y-94739711D01*
X138990609Y-94870814D01*
X138990602Y-94870827D01*
X138930264Y-95016498D01*
X138930261Y-95016510D01*
X138899500Y-95171153D01*
X122580112Y-95171153D01*
X122587440Y-95165199D01*
X122604547Y-95148201D01*
X122611503Y-95143362D01*
X122627816Y-95135051D01*
X122799792Y-95010104D01*
X122950104Y-94859792D01*
X122950106Y-94859788D01*
X122950109Y-94859786D01*
X123075048Y-94687820D01*
X123075047Y-94687820D01*
X123075051Y-94687816D01*
X123171557Y-94498412D01*
X123237246Y-94296243D01*
X123270500Y-94086287D01*
X123270500Y-93873713D01*
X123237246Y-93663757D01*
X123171557Y-93461588D01*
X123075051Y-93272184D01*
X123075049Y-93272181D01*
X123075048Y-93272179D01*
X122950109Y-93100213D01*
X122799786Y-92949890D01*
X122627820Y-92824951D01*
X122627115Y-92824591D01*
X122619054Y-92820485D01*
X122568259Y-92772512D01*
X122551463Y-92704692D01*
X122573999Y-92638556D01*
X122619054Y-92599515D01*
X122627816Y-92595051D01*
X122649789Y-92579086D01*
X122799786Y-92470109D01*
X122799788Y-92470106D01*
X122799792Y-92470104D01*
X122950104Y-92319792D01*
X122950106Y-92319788D01*
X122950109Y-92319786D01*
X123075048Y-92147820D01*
X123075047Y-92147820D01*
X123075051Y-92147816D01*
X123171557Y-91958412D01*
X123237246Y-91756243D01*
X123270500Y-91546287D01*
X123270500Y-91333713D01*
X123237246Y-91123757D01*
X123171557Y-90921588D01*
X123075051Y-90732184D01*
X123075049Y-90732181D01*
X123075048Y-90732179D01*
X122950109Y-90560213D01*
X122799786Y-90409890D01*
X122627820Y-90284951D01*
X122627115Y-90284591D01*
X122619054Y-90280485D01*
X122568259Y-90232512D01*
X122551463Y-90164692D01*
X122573999Y-90098556D01*
X122619054Y-90059515D01*
X122627816Y-90055051D01*
X122649789Y-90039086D01*
X122799786Y-89930109D01*
X122799788Y-89930106D01*
X122799792Y-89930104D01*
X122950104Y-89779792D01*
X122950106Y-89779788D01*
X122950109Y-89779786D01*
X123075048Y-89607820D01*
X123075047Y-89607820D01*
X123075051Y-89607816D01*
X123171557Y-89418412D01*
X123237246Y-89216243D01*
X123270500Y-89006287D01*
X123270500Y-88793713D01*
X123237246Y-88583757D01*
X123171557Y-88381588D01*
X123075051Y-88192184D01*
X123075049Y-88192181D01*
X123075048Y-88192179D01*
X122950109Y-88020213D01*
X122799786Y-87869890D01*
X122627820Y-87744951D01*
X122627115Y-87744591D01*
X122619054Y-87740485D01*
X122568259Y-87692512D01*
X122551463Y-87624692D01*
X122573999Y-87558556D01*
X122619054Y-87519515D01*
X122627816Y-87515051D01*
X122649789Y-87499086D01*
X122799786Y-87390109D01*
X122799788Y-87390106D01*
X122799792Y-87390104D01*
X122950104Y-87239792D01*
X122950106Y-87239788D01*
X122950109Y-87239786D01*
X123075048Y-87067820D01*
X123075047Y-87067820D01*
X123075051Y-87067816D01*
X123171557Y-86878412D01*
X123237246Y-86676243D01*
X123270500Y-86466287D01*
X123270500Y-86253713D01*
X123237246Y-86043757D01*
X123171557Y-85841588D01*
X123075051Y-85652184D01*
X123075049Y-85652181D01*
X123075048Y-85652179D01*
X122950109Y-85480213D01*
X122836569Y-85366673D01*
X122803084Y-85305350D01*
X122808068Y-85235658D01*
X122849940Y-85179725D01*
X122880915Y-85162810D01*
X123012331Y-85113796D01*
X123127546Y-85027546D01*
X123213796Y-84912331D01*
X123264091Y-84777483D01*
X123270500Y-84717873D01*
X123270499Y-82922135D01*
X145969500Y-82922135D01*
X145969500Y-84717870D01*
X145969501Y-84717876D01*
X145975908Y-84777483D01*
X146026202Y-84912328D01*
X146026206Y-84912335D01*
X146112452Y-85027544D01*
X146112455Y-85027547D01*
X146227664Y-85113793D01*
X146227671Y-85113797D01*
X146359082Y-85162810D01*
X146415016Y-85204681D01*
X146439433Y-85270145D01*
X146424582Y-85338418D01*
X146403431Y-85366673D01*
X146289889Y-85480215D01*
X146164951Y-85652179D01*
X146068444Y-85841585D01*
X146002753Y-86043760D01*
X145969500Y-86253713D01*
X145969500Y-86466286D01*
X146002753Y-86676239D01*
X146068444Y-86878414D01*
X146164951Y-87067820D01*
X146289890Y-87239786D01*
X146440213Y-87390109D01*
X146612182Y-87515050D01*
X146620946Y-87519516D01*
X146671742Y-87567491D01*
X146688536Y-87635312D01*
X146665998Y-87701447D01*
X146620946Y-87740484D01*
X146612182Y-87744949D01*
X146440213Y-87869890D01*
X146289890Y-88020213D01*
X146164951Y-88192179D01*
X146068444Y-88381585D01*
X146002753Y-88583760D01*
X145969500Y-88793713D01*
X145969500Y-89006286D01*
X146002753Y-89216239D01*
X146068444Y-89418414D01*
X146164951Y-89607820D01*
X146289890Y-89779786D01*
X146440213Y-89930109D01*
X146612182Y-90055050D01*
X146620946Y-90059516D01*
X146671742Y-90107491D01*
X146688536Y-90175312D01*
X146665998Y-90241447D01*
X146620946Y-90280484D01*
X146612182Y-90284949D01*
X146440213Y-90409890D01*
X146289890Y-90560213D01*
X146164951Y-90732179D01*
X146068444Y-90921585D01*
X146002753Y-91123760D01*
X145978878Y-91274500D01*
X145969500Y-91333713D01*
X145969500Y-91546287D01*
X146002754Y-91756243D01*
X146049649Y-91900571D01*
X146068444Y-91958414D01*
X146164951Y-92147820D01*
X146289890Y-92319786D01*
X146440213Y-92470109D01*
X146612182Y-92595050D01*
X146620946Y-92599516D01*
X146671742Y-92647491D01*
X146688536Y-92715312D01*
X146665998Y-92781447D01*
X146620946Y-92820484D01*
X146612182Y-92824949D01*
X146440213Y-92949890D01*
X146289890Y-93100213D01*
X146164951Y-93272179D01*
X146068444Y-93461585D01*
X146002753Y-93663760D01*
X145983519Y-93785199D01*
X145969500Y-93873713D01*
X145969500Y-94086287D01*
X146002754Y-94296243D01*
X146062546Y-94480264D01*
X146068444Y-94498414D01*
X146164951Y-94687820D01*
X146289890Y-94859786D01*
X146440213Y-95010109D01*
X146612182Y-95135050D01*
X146620946Y-95139516D01*
X146671742Y-95187491D01*
X146688536Y-95255312D01*
X146665998Y-95321447D01*
X146620946Y-95360484D01*
X146612182Y-95364949D01*
X146440213Y-95489890D01*
X146289890Y-95640213D01*
X146164951Y-95812179D01*
X146068444Y-96001585D01*
X146002753Y-96203760D01*
X145971837Y-96398960D01*
X145969500Y-96413713D01*
X145969500Y-96626287D01*
X146002754Y-96836243D01*
X146026336Y-96908822D01*
X146068444Y-97038414D01*
X146164951Y-97227820D01*
X146289890Y-97399786D01*
X146440213Y-97550109D01*
X146612182Y-97675050D01*
X146620946Y-97679516D01*
X146671742Y-97727491D01*
X146688536Y-97795312D01*
X146665998Y-97861447D01*
X146620946Y-97900484D01*
X146612182Y-97904949D01*
X146440213Y-98029890D01*
X146289890Y-98180213D01*
X146164951Y-98352179D01*
X146068444Y-98541585D01*
X146002753Y-98743760D01*
X145969500Y-98953713D01*
X145969500Y-99166286D01*
X146002753Y-99376239D01*
X146068444Y-99578414D01*
X146164951Y-99767820D01*
X146289890Y-99939786D01*
X146440213Y-100090109D01*
X146612182Y-100215050D01*
X146620946Y-100219516D01*
X146671742Y-100267491D01*
X146688536Y-100335312D01*
X146665998Y-100401447D01*
X146620946Y-100440484D01*
X146612182Y-100444949D01*
X146440213Y-100569890D01*
X146289890Y-100720213D01*
X146164951Y-100892179D01*
X146068444Y-101081585D01*
X146002753Y-101283760D01*
X145969500Y-101493713D01*
X145969500Y-101706286D01*
X146002753Y-101916239D01*
X146068444Y-102118414D01*
X146164951Y-102307820D01*
X146289890Y-102479786D01*
X146440213Y-102630109D01*
X146612182Y-102755050D01*
X146620946Y-102759516D01*
X146671742Y-102807491D01*
X146688536Y-102875312D01*
X146665998Y-102941447D01*
X146620946Y-102980484D01*
X146612182Y-102984949D01*
X146440213Y-103109890D01*
X146289890Y-103260213D01*
X146164951Y-103432179D01*
X146068444Y-103621585D01*
X146002753Y-103823760D01*
X145969500Y-104033713D01*
X145969500Y-104246286D01*
X146002753Y-104456239D01*
X146068444Y-104658414D01*
X146164951Y-104847820D01*
X146289890Y-105019786D01*
X146440213Y-105170109D01*
X146612182Y-105295050D01*
X146620946Y-105299516D01*
X146671742Y-105347491D01*
X146688536Y-105415312D01*
X146665998Y-105481447D01*
X146620946Y-105520484D01*
X146612182Y-105524949D01*
X146440213Y-105649890D01*
X146289890Y-105800213D01*
X146164951Y-105972179D01*
X146068444Y-106161585D01*
X146002753Y-106363760D01*
X145969500Y-106573713D01*
X145969500Y-106786286D01*
X145997242Y-106961446D01*
X146002754Y-106996243D01*
X146026522Y-107069394D01*
X146068444Y-107198414D01*
X146164951Y-107387820D01*
X146289890Y-107559786D01*
X146440213Y-107710109D01*
X146612182Y-107835050D01*
X146620946Y-107839516D01*
X146671742Y-107887491D01*
X146688536Y-107955312D01*
X146665998Y-108021447D01*
X146620946Y-108060484D01*
X146612182Y-108064949D01*
X146440213Y-108189890D01*
X146289890Y-108340213D01*
X146164951Y-108512179D01*
X146068444Y-108701585D01*
X146002753Y-108903760D01*
X145969500Y-109113713D01*
X145969500Y-109326286D01*
X145989870Y-109454901D01*
X146002754Y-109536243D01*
X146043617Y-109662007D01*
X146068444Y-109738414D01*
X146164951Y-109927820D01*
X146289890Y-110099786D01*
X146440213Y-110250109D01*
X146612182Y-110375050D01*
X146620946Y-110379516D01*
X146671742Y-110427491D01*
X146688536Y-110495312D01*
X146665998Y-110561447D01*
X146620946Y-110600484D01*
X146612182Y-110604949D01*
X146440213Y-110729890D01*
X146289890Y-110880213D01*
X146164951Y-111052179D01*
X146068444Y-111241585D01*
X146002753Y-111443760D01*
X145969500Y-111653713D01*
X145969500Y-111866286D01*
X146002753Y-112076239D01*
X146068444Y-112278414D01*
X146164951Y-112467820D01*
X146289890Y-112639786D01*
X146440213Y-112790109D01*
X146612182Y-112915050D01*
X146620946Y-112919516D01*
X146671742Y-112967491D01*
X146688536Y-113035312D01*
X146665998Y-113101447D01*
X146620946Y-113140484D01*
X146612182Y-113144949D01*
X146440213Y-113269890D01*
X146289890Y-113420213D01*
X146164951Y-113592179D01*
X146068444Y-113781585D01*
X146002753Y-113983760D01*
X145969500Y-114193713D01*
X145969500Y-114406286D01*
X146002584Y-114615174D01*
X146002754Y-114616243D01*
X146045183Y-114746826D01*
X146068444Y-114818414D01*
X146164951Y-115007820D01*
X146289890Y-115179786D01*
X146440213Y-115330109D01*
X146612179Y-115455048D01*
X146612181Y-115455049D01*
X146612184Y-115455051D01*
X146621493Y-115459794D01*
X146672290Y-115507766D01*
X146689087Y-115575587D01*
X146666552Y-115641722D01*
X146621502Y-115680762D01*
X146612443Y-115685378D01*
X146440540Y-115810272D01*
X146440535Y-115810276D01*
X146290276Y-115960535D01*
X146290272Y-115960540D01*
X146165379Y-116132442D01*
X146068904Y-116321782D01*
X146003242Y-116523870D01*
X146003242Y-116523873D01*
X145992769Y-116590000D01*
X146886988Y-116590000D01*
X146854075Y-116647007D01*
X146820000Y-116774174D01*
X146820000Y-116905826D01*
X146854075Y-117032993D01*
X146886988Y-117090000D01*
X145992769Y-117090000D01*
X146003242Y-117156126D01*
X146003242Y-117156129D01*
X146068904Y-117358217D01*
X146165379Y-117547557D01*
X146290272Y-117719459D01*
X146290276Y-117719464D01*
X146440535Y-117869723D01*
X146440540Y-117869727D01*
X146612444Y-117994622D01*
X146621495Y-117999234D01*
X146672292Y-118047208D01*
X146689087Y-118115029D01*
X146666550Y-118181164D01*
X146621499Y-118220202D01*
X146612182Y-118224949D01*
X146440213Y-118349890D01*
X146289890Y-118500213D01*
X146164951Y-118672179D01*
X146068444Y-118861585D01*
X146002753Y-119063760D01*
X145992653Y-119127530D01*
X145969500Y-119273713D01*
X145969500Y-119486287D01*
X146002754Y-119696243D01*
X146008043Y-119712522D01*
X146068444Y-119898414D01*
X146164951Y-120087820D01*
X146289890Y-120259786D01*
X146440213Y-120410109D01*
X146612179Y-120535048D01*
X146612181Y-120535049D01*
X146612184Y-120535051D01*
X146801588Y-120631557D01*
X147003757Y-120697246D01*
X147213713Y-120730500D01*
X147213714Y-120730500D01*
X147426286Y-120730500D01*
X147426287Y-120730500D01*
X147636243Y-120697246D01*
X147838412Y-120631557D01*
X148027816Y-120535051D01*
X148049789Y-120519086D01*
X148199786Y-120410109D01*
X148199788Y-120410106D01*
X148199792Y-120410104D01*
X148350104Y-120259792D01*
X148350106Y-120259788D01*
X148350109Y-120259786D01*
X148425673Y-120155780D01*
X181787500Y-120155780D01*
X181787500Y-120382219D01*
X181787501Y-120382235D01*
X181817056Y-120606731D01*
X181817057Y-120606736D01*
X181817058Y-120606742D01*
X181841308Y-120697246D01*
X181875667Y-120825476D01*
X181962322Y-121034681D01*
X181962329Y-121034696D01*
X182075553Y-121230806D01*
X182213408Y-121410462D01*
X182213414Y-121410469D01*
X182373530Y-121570585D01*
X182373537Y-121570591D01*
X182553193Y-121708446D01*
X182749303Y-121821670D01*
X182749318Y-121821677D01*
X182827614Y-121854108D01*
X182958522Y-121908332D01*
X183177258Y-121966942D01*
X183401774Y-121996500D01*
X183401781Y-121996500D01*
X183628219Y-121996500D01*
X183628226Y-121996500D01*
X183852742Y-121966942D01*
X184071478Y-121908332D01*
X184280693Y-121821672D01*
X184476807Y-121708446D01*
X184656464Y-121570590D01*
X184816590Y-121410464D01*
X184954446Y-121230807D01*
X185067672Y-121034693D01*
X185154332Y-120825478D01*
X185212942Y-120606742D01*
X185242500Y-120382226D01*
X185242500Y-120155774D01*
X185212942Y-119931258D01*
X185154332Y-119712522D01*
X185067672Y-119503307D01*
X184954446Y-119307193D01*
X184816590Y-119127536D01*
X184816585Y-119127530D01*
X184656469Y-118967414D01*
X184656462Y-118967408D01*
X184476806Y-118829553D01*
X184280696Y-118716329D01*
X184280681Y-118716322D01*
X184071476Y-118629667D01*
X183962110Y-118600363D01*
X183852742Y-118571058D01*
X183852736Y-118571057D01*
X183852731Y-118571056D01*
X183628235Y-118541501D01*
X183628232Y-118541500D01*
X183628226Y-118541500D01*
X183401774Y-118541500D01*
X183401768Y-118541500D01*
X183401764Y-118541501D01*
X183177268Y-118571056D01*
X183177261Y-118571057D01*
X183177258Y-118571058D01*
X183131031Y-118583444D01*
X182958523Y-118629667D01*
X182749318Y-118716322D01*
X182749303Y-118716329D01*
X182553193Y-118829553D01*
X182373537Y-118967408D01*
X182373530Y-118967414D01*
X182213414Y-119127530D01*
X182213408Y-119127537D01*
X182075553Y-119307193D01*
X181962329Y-119503303D01*
X181962322Y-119503318D01*
X181875667Y-119712523D01*
X181817059Y-119931255D01*
X181817056Y-119931268D01*
X181787501Y-120155764D01*
X181787500Y-120155780D01*
X148425673Y-120155780D01*
X148475044Y-120087825D01*
X148475051Y-120087816D01*
X148571557Y-119898412D01*
X148637246Y-119696243D01*
X148670500Y-119486287D01*
X148670500Y-119273713D01*
X148637246Y-119063757D01*
X148571557Y-118861588D01*
X148475051Y-118672184D01*
X148475049Y-118672181D01*
X148475048Y-118672179D01*
X148350109Y-118500213D01*
X148199786Y-118349890D01*
X148027817Y-118224949D01*
X148018504Y-118220204D01*
X147967707Y-118172230D01*
X147950912Y-118104409D01*
X147973449Y-118038274D01*
X148018507Y-117999232D01*
X148027558Y-117994620D01*
X148199459Y-117869727D01*
X148199464Y-117869723D01*
X148349723Y-117719464D01*
X148349727Y-117719459D01*
X148474620Y-117547557D01*
X148571095Y-117358217D01*
X148636757Y-117156129D01*
X148636757Y-117156126D01*
X148647231Y-117090000D01*
X147753012Y-117090000D01*
X147785925Y-117032993D01*
X147820000Y-116905826D01*
X147820000Y-116774174D01*
X147785925Y-116647007D01*
X147753012Y-116590000D01*
X148647231Y-116590000D01*
X148636757Y-116523873D01*
X148636757Y-116523870D01*
X148571095Y-116321782D01*
X148474620Y-116132442D01*
X148349727Y-115960540D01*
X148349723Y-115960535D01*
X148199464Y-115810276D01*
X148199459Y-115810272D01*
X148027555Y-115685377D01*
X148018500Y-115680763D01*
X147967706Y-115632788D01*
X147950912Y-115564966D01*
X147973451Y-115498832D01*
X148018508Y-115459793D01*
X148027816Y-115455051D01*
X148119338Y-115388557D01*
X148199786Y-115330109D01*
X148199788Y-115330106D01*
X148199792Y-115330104D01*
X148350104Y-115179792D01*
X148350106Y-115179788D01*
X148350109Y-115179786D01*
X148475048Y-115007820D01*
X148475047Y-115007820D01*
X148475051Y-115007816D01*
X148571557Y-114818412D01*
X148637246Y-114616243D01*
X148670500Y-114406287D01*
X148670500Y-114193713D01*
X148637246Y-113983757D01*
X148571557Y-113781588D01*
X148475051Y-113592184D01*
X148475049Y-113592181D01*
X148475048Y-113592179D01*
X148350109Y-113420213D01*
X148199786Y-113269890D01*
X148027820Y-113144951D01*
X148027115Y-113144591D01*
X148019054Y-113140485D01*
X147968259Y-113092512D01*
X147951463Y-113024692D01*
X147973999Y-112958556D01*
X148019054Y-112919515D01*
X148027816Y-112915051D01*
X148049789Y-112899086D01*
X148199786Y-112790109D01*
X148199788Y-112790106D01*
X148199792Y-112790104D01*
X148350104Y-112639792D01*
X148350106Y-112639788D01*
X148350109Y-112639786D01*
X148475048Y-112467820D01*
X148475047Y-112467820D01*
X148475051Y-112467816D01*
X148571557Y-112278412D01*
X148637246Y-112076243D01*
X148670500Y-111866287D01*
X148670500Y-111653713D01*
X148637246Y-111443757D01*
X148571557Y-111241588D01*
X148475051Y-111052184D01*
X148475049Y-111052181D01*
X148475048Y-111052179D01*
X148350109Y-110880213D01*
X148199786Y-110729890D01*
X148027820Y-110604951D01*
X148027115Y-110604591D01*
X148019054Y-110600485D01*
X147968259Y-110552512D01*
X147951463Y-110484692D01*
X147973999Y-110418556D01*
X148019054Y-110379515D01*
X148027816Y-110375051D01*
X148102315Y-110320925D01*
X148199786Y-110250109D01*
X148199788Y-110250106D01*
X148199792Y-110250104D01*
X148350104Y-110099792D01*
X148350106Y-110099788D01*
X148350109Y-110099786D01*
X148475048Y-109927820D01*
X148475047Y-109927820D01*
X148475051Y-109927816D01*
X148571557Y-109738412D01*
X148637246Y-109536243D01*
X148670500Y-109326287D01*
X148670500Y-109113713D01*
X148637246Y-108903757D01*
X148571557Y-108701588D01*
X148475051Y-108512184D01*
X148475049Y-108512181D01*
X148475048Y-108512179D01*
X148350109Y-108340213D01*
X148199786Y-108189890D01*
X148027820Y-108064951D01*
X148027115Y-108064591D01*
X148019054Y-108060485D01*
X147968259Y-108012512D01*
X147951463Y-107944692D01*
X147973999Y-107878556D01*
X148019054Y-107839515D01*
X148027816Y-107835051D01*
X148056748Y-107814031D01*
X148199786Y-107710109D01*
X148199788Y-107710106D01*
X148199792Y-107710104D01*
X148350104Y-107559792D01*
X148350106Y-107559788D01*
X148350109Y-107559786D01*
X148475048Y-107387820D01*
X148475047Y-107387820D01*
X148475051Y-107387816D01*
X148571557Y-107198412D01*
X148637246Y-106996243D01*
X148670500Y-106786287D01*
X148670500Y-106573713D01*
X148637246Y-106363757D01*
X148571557Y-106161588D01*
X148475051Y-105972184D01*
X148475049Y-105972181D01*
X148475048Y-105972179D01*
X148350109Y-105800213D01*
X148199786Y-105649890D01*
X148027820Y-105524951D01*
X148027115Y-105524591D01*
X148019054Y-105520485D01*
X147968259Y-105472512D01*
X147951463Y-105404692D01*
X147973999Y-105338556D01*
X148019054Y-105299515D01*
X148027816Y-105295051D01*
X148049789Y-105279086D01*
X148199786Y-105170109D01*
X148199788Y-105170106D01*
X148199792Y-105170104D01*
X148350104Y-105019792D01*
X148350106Y-105019788D01*
X148350109Y-105019786D01*
X148475048Y-104847820D01*
X148475047Y-104847820D01*
X148475051Y-104847816D01*
X148571557Y-104658412D01*
X148637246Y-104456243D01*
X148670500Y-104246287D01*
X148670500Y-104033713D01*
X148637246Y-103823757D01*
X148571557Y-103621588D01*
X148475051Y-103432184D01*
X148475049Y-103432181D01*
X148475048Y-103432179D01*
X148350109Y-103260213D01*
X148199786Y-103109890D01*
X148027820Y-102984951D01*
X148027115Y-102984591D01*
X148019054Y-102980485D01*
X147968259Y-102932512D01*
X147951463Y-102864692D01*
X147973999Y-102798556D01*
X148019054Y-102759515D01*
X148027816Y-102755051D01*
X148049789Y-102739086D01*
X148199786Y-102630109D01*
X148199788Y-102630106D01*
X148199792Y-102630104D01*
X148350104Y-102479792D01*
X148350106Y-102479788D01*
X148350109Y-102479786D01*
X148475048Y-102307820D01*
X148475047Y-102307820D01*
X148475051Y-102307816D01*
X148571557Y-102118412D01*
X148637246Y-101916243D01*
X148670500Y-101706287D01*
X148670500Y-101493713D01*
X148637246Y-101283757D01*
X148571557Y-101081588D01*
X148475051Y-100892184D01*
X148475049Y-100892181D01*
X148475048Y-100892179D01*
X148350109Y-100720213D01*
X148199786Y-100569890D01*
X148027820Y-100444951D01*
X148027115Y-100444591D01*
X148019054Y-100440485D01*
X147968259Y-100392512D01*
X147951463Y-100324692D01*
X147973999Y-100258556D01*
X148019054Y-100219515D01*
X148027816Y-100215051D01*
X148049789Y-100199086D01*
X148199786Y-100090109D01*
X148199788Y-100090106D01*
X148199792Y-100090104D01*
X148350104Y-99939792D01*
X148350106Y-99939788D01*
X148350109Y-99939786D01*
X148475048Y-99767820D01*
X148475047Y-99767820D01*
X148475051Y-99767816D01*
X148571557Y-99578412D01*
X148637246Y-99376243D01*
X148670500Y-99166287D01*
X148670500Y-98953713D01*
X148637246Y-98743757D01*
X148571557Y-98541588D01*
X148475051Y-98352184D01*
X148475049Y-98352181D01*
X148475048Y-98352179D01*
X148350109Y-98180213D01*
X148199786Y-98029890D01*
X148027820Y-97904951D01*
X148027115Y-97904591D01*
X148019054Y-97900485D01*
X147968259Y-97852512D01*
X147951463Y-97784692D01*
X147973999Y-97718556D01*
X148019054Y-97679515D01*
X148027816Y-97675051D01*
X148049789Y-97659086D01*
X148199786Y-97550109D01*
X148199788Y-97550106D01*
X148199792Y-97550104D01*
X148350104Y-97399792D01*
X148350106Y-97399788D01*
X148350109Y-97399786D01*
X148475048Y-97227820D01*
X148475047Y-97227820D01*
X148475051Y-97227816D01*
X148571557Y-97038412D01*
X148637246Y-96836243D01*
X148670500Y-96626287D01*
X148670500Y-96413713D01*
X148666056Y-96385653D01*
X150964500Y-96385653D01*
X150964500Y-96543346D01*
X150995261Y-96697989D01*
X150995264Y-96698001D01*
X151055603Y-96843674D01*
X151058475Y-96849046D01*
X151056317Y-96850199D01*
X151073980Y-96906608D01*
X151074000Y-96908822D01*
X151074000Y-97401177D01*
X151056724Y-97460009D01*
X151058479Y-97460947D01*
X151055602Y-97466328D01*
X150995264Y-97611998D01*
X150995261Y-97612010D01*
X150964500Y-97766653D01*
X150964500Y-97924346D01*
X150995261Y-98078989D01*
X150995264Y-98079001D01*
X151055602Y-98224672D01*
X151055609Y-98224685D01*
X151143210Y-98355788D01*
X151143213Y-98355792D01*
X151254707Y-98467286D01*
X151254711Y-98467289D01*
X151385814Y-98554890D01*
X151385827Y-98554897D01*
X151531498Y-98615235D01*
X151531503Y-98615237D01*
X151657754Y-98640350D01*
X151686153Y-98645999D01*
X151686156Y-98646000D01*
X151686158Y-98646000D01*
X151843844Y-98646000D01*
X151843845Y-98645999D01*
X151998497Y-98615237D01*
X152111166Y-98568567D01*
X152144172Y-98554897D01*
X152144172Y-98554896D01*
X152144179Y-98554894D01*
X152275289Y-98467289D01*
X152386789Y-98355789D01*
X152474394Y-98224679D01*
X152534737Y-98078997D01*
X152565500Y-97924342D01*
X152565500Y-97766658D01*
X152565500Y-97766655D01*
X152565499Y-97766653D01*
X152547278Y-97675050D01*
X152534737Y-97612003D01*
X152474394Y-97466321D01*
X152474390Y-97466315D01*
X152471521Y-97460947D01*
X152473676Y-97459794D01*
X152456019Y-97403369D01*
X152456000Y-97401177D01*
X152456000Y-96908822D01*
X152473277Y-96849982D01*
X152471525Y-96849046D01*
X152474390Y-96843684D01*
X152474394Y-96843679D01*
X152534737Y-96697997D01*
X152565500Y-96543342D01*
X152565500Y-96385658D01*
X152565500Y-96385655D01*
X152544085Y-96277998D01*
X152544085Y-96277997D01*
X152539935Y-96257135D01*
X180894500Y-96257135D01*
X180894500Y-98052870D01*
X180894501Y-98052876D01*
X180900908Y-98112483D01*
X180951202Y-98247328D01*
X180951206Y-98247335D01*
X181037452Y-98362544D01*
X181037455Y-98362547D01*
X181152664Y-98448793D01*
X181152671Y-98448797D01*
X181284082Y-98497810D01*
X181340016Y-98539681D01*
X181364433Y-98605145D01*
X181349582Y-98673418D01*
X181328431Y-98701673D01*
X181214889Y-98815215D01*
X181089951Y-98987179D01*
X180993444Y-99176585D01*
X180927753Y-99378760D01*
X180896132Y-99578412D01*
X180894500Y-99588713D01*
X180894500Y-99801287D01*
X180927754Y-100011243D01*
X180953379Y-100090109D01*
X180993444Y-100213414D01*
X181089951Y-100402820D01*
X181214890Y-100574786D01*
X181365213Y-100725109D01*
X181537182Y-100850050D01*
X181545946Y-100854516D01*
X181596742Y-100902491D01*
X181613536Y-100970312D01*
X181590998Y-101036447D01*
X181545946Y-101075484D01*
X181537182Y-101079949D01*
X181365213Y-101204890D01*
X181214890Y-101355213D01*
X181089951Y-101527179D01*
X180993444Y-101716585D01*
X180927753Y-101918760D01*
X180896132Y-102118412D01*
X180894500Y-102128713D01*
X180894500Y-102341287D01*
X180927754Y-102551243D01*
X180953379Y-102630109D01*
X180993444Y-102753414D01*
X181089951Y-102942820D01*
X181214890Y-103114786D01*
X181365213Y-103265109D01*
X181537182Y-103390050D01*
X181545946Y-103394516D01*
X181596742Y-103442491D01*
X181613536Y-103510312D01*
X181590998Y-103576447D01*
X181545946Y-103615484D01*
X181537182Y-103619949D01*
X181365213Y-103744890D01*
X181214890Y-103895213D01*
X181089951Y-104067179D01*
X180993444Y-104256585D01*
X180927753Y-104458760D01*
X180896132Y-104658412D01*
X180894500Y-104668713D01*
X180894500Y-104881287D01*
X180927754Y-105091243D01*
X180953379Y-105170109D01*
X180993444Y-105293414D01*
X181089951Y-105482820D01*
X181214890Y-105654786D01*
X181365213Y-105805109D01*
X181537182Y-105930050D01*
X181545946Y-105934516D01*
X181596742Y-105982491D01*
X181613536Y-106050312D01*
X181590998Y-106116447D01*
X181545946Y-106155484D01*
X181537182Y-106159949D01*
X181365213Y-106284890D01*
X181214890Y-106435213D01*
X181089951Y-106607179D01*
X180993444Y-106796585D01*
X180927753Y-106998760D01*
X180925881Y-107010582D01*
X180894500Y-107208713D01*
X180894500Y-107421287D01*
X180927754Y-107631243D01*
X180954968Y-107715000D01*
X180993444Y-107833414D01*
X181089951Y-108022820D01*
X181214890Y-108194786D01*
X181365213Y-108345109D01*
X181537179Y-108470048D01*
X181537181Y-108470049D01*
X181537184Y-108470051D01*
X181546493Y-108474794D01*
X181597290Y-108522766D01*
X181614087Y-108590587D01*
X181591552Y-108656722D01*
X181546502Y-108695762D01*
X181537443Y-108700378D01*
X181365540Y-108825272D01*
X181365535Y-108825276D01*
X181215276Y-108975535D01*
X181215272Y-108975540D01*
X181090379Y-109147442D01*
X180993904Y-109336782D01*
X180928242Y-109538870D01*
X180928242Y-109538873D01*
X180917769Y-109605000D01*
X181811988Y-109605000D01*
X181779075Y-109662007D01*
X181745000Y-109789174D01*
X181745000Y-109920826D01*
X181779075Y-110047993D01*
X181811988Y-110105000D01*
X180917769Y-110105000D01*
X180928242Y-110171126D01*
X180928242Y-110171129D01*
X180993904Y-110373217D01*
X181090379Y-110562557D01*
X181215272Y-110734459D01*
X181215276Y-110734464D01*
X181365535Y-110884723D01*
X181365540Y-110884727D01*
X181537444Y-111009622D01*
X181546495Y-111014234D01*
X181597292Y-111062208D01*
X181614087Y-111130029D01*
X181591550Y-111196164D01*
X181546499Y-111235202D01*
X181537182Y-111239949D01*
X181365213Y-111364890D01*
X181214890Y-111515213D01*
X181089951Y-111687179D01*
X180993444Y-111876585D01*
X180927753Y-112078760D01*
X180901341Y-112245523D01*
X180894500Y-112288713D01*
X180894500Y-112501287D01*
X180927754Y-112711243D01*
X180953379Y-112790109D01*
X180993444Y-112913414D01*
X181089951Y-113102820D01*
X181214890Y-113274786D01*
X181365213Y-113425109D01*
X181537179Y-113550048D01*
X181537181Y-113550049D01*
X181537184Y-113550051D01*
X181726588Y-113646557D01*
X181928757Y-113712246D01*
X182138713Y-113745500D01*
X182138714Y-113745500D01*
X182351286Y-113745500D01*
X182351287Y-113745500D01*
X182561243Y-113712246D01*
X182763412Y-113646557D01*
X182952816Y-113550051D01*
X183033405Y-113491500D01*
X183124786Y-113425109D01*
X183124788Y-113425106D01*
X183124792Y-113425104D01*
X183275104Y-113274792D01*
X183275106Y-113274788D01*
X183275109Y-113274786D01*
X183400048Y-113102820D01*
X183400047Y-113102820D01*
X183400051Y-113102816D01*
X183496557Y-112913412D01*
X183562246Y-112711243D01*
X183595500Y-112501287D01*
X183595500Y-112288713D01*
X183562246Y-112078757D01*
X183496557Y-111876588D01*
X183400051Y-111687184D01*
X183400049Y-111687181D01*
X183400048Y-111687179D01*
X183275109Y-111515213D01*
X183124786Y-111364890D01*
X182952817Y-111239949D01*
X182943504Y-111235204D01*
X182892707Y-111187230D01*
X182875912Y-111119409D01*
X182898449Y-111053274D01*
X182943507Y-111014232D01*
X182952558Y-111009620D01*
X183124459Y-110884727D01*
X183124464Y-110884723D01*
X183274723Y-110734464D01*
X183274727Y-110734459D01*
X183399620Y-110562557D01*
X183496095Y-110373217D01*
X183561757Y-110171129D01*
X183561757Y-110171126D01*
X183572231Y-110105000D01*
X182678012Y-110105000D01*
X182710925Y-110047993D01*
X182745000Y-109920826D01*
X182745000Y-109789174D01*
X182710925Y-109662007D01*
X182678012Y-109605000D01*
X183572231Y-109605000D01*
X183561757Y-109538873D01*
X183561757Y-109538870D01*
X183496095Y-109336782D01*
X183399620Y-109147442D01*
X183274727Y-108975540D01*
X183274723Y-108975535D01*
X183124464Y-108825276D01*
X183124459Y-108825272D01*
X182952555Y-108700377D01*
X182943500Y-108695763D01*
X182892706Y-108647788D01*
X182875912Y-108579966D01*
X182898451Y-108513832D01*
X182943508Y-108474793D01*
X182952816Y-108470051D01*
X183056840Y-108394474D01*
X183124786Y-108345109D01*
X183124788Y-108345106D01*
X183124792Y-108345104D01*
X183275104Y-108194792D01*
X183275106Y-108194788D01*
X183275109Y-108194786D01*
X183400048Y-108022820D01*
X183400047Y-108022820D01*
X183400051Y-108022816D01*
X183496557Y-107833412D01*
X183562246Y-107631243D01*
X183595500Y-107421287D01*
X183595500Y-107208713D01*
X183562246Y-106998757D01*
X183496557Y-106796588D01*
X183400051Y-106607184D01*
X183400049Y-106607181D01*
X183400048Y-106607179D01*
X183275109Y-106435213D01*
X183124786Y-106284890D01*
X182952820Y-106159951D01*
X182952115Y-106159591D01*
X182944054Y-106155485D01*
X182893259Y-106107512D01*
X182876463Y-106039692D01*
X182898999Y-105973556D01*
X182944054Y-105934515D01*
X182952816Y-105930051D01*
X182974789Y-105914086D01*
X183124786Y-105805109D01*
X183124788Y-105805106D01*
X183124792Y-105805104D01*
X183275104Y-105654792D01*
X183275106Y-105654788D01*
X183275109Y-105654786D01*
X183400048Y-105482820D01*
X183400047Y-105482820D01*
X183400051Y-105482816D01*
X183496557Y-105293412D01*
X183562246Y-105091243D01*
X183595500Y-104881287D01*
X183595500Y-104668713D01*
X183562246Y-104458757D01*
X183496557Y-104256588D01*
X183400051Y-104067184D01*
X183400049Y-104067181D01*
X183400048Y-104067179D01*
X183275109Y-103895213D01*
X183124786Y-103744890D01*
X182952820Y-103619951D01*
X182952115Y-103619591D01*
X182944054Y-103615485D01*
X182893259Y-103567512D01*
X182876463Y-103499692D01*
X182898999Y-103433556D01*
X182944054Y-103394515D01*
X182952816Y-103390051D01*
X182974789Y-103374086D01*
X183124786Y-103265109D01*
X183124788Y-103265106D01*
X183124792Y-103265104D01*
X183275104Y-103114792D01*
X183275106Y-103114788D01*
X183275109Y-103114786D01*
X183400048Y-102942820D01*
X183400047Y-102942820D01*
X183400051Y-102942816D01*
X183496557Y-102753412D01*
X183562246Y-102551243D01*
X183595500Y-102341287D01*
X183595500Y-102128713D01*
X183562246Y-101918757D01*
X183496557Y-101716588D01*
X183400051Y-101527184D01*
X183400049Y-101527181D01*
X183400048Y-101527179D01*
X183275109Y-101355213D01*
X183124786Y-101204890D01*
X182952820Y-101079951D01*
X182952115Y-101079591D01*
X182944054Y-101075485D01*
X182893259Y-101027512D01*
X182876463Y-100959692D01*
X182898999Y-100893556D01*
X182944054Y-100854515D01*
X182952816Y-100850051D01*
X182974789Y-100834086D01*
X183124786Y-100725109D01*
X183124788Y-100725106D01*
X183124792Y-100725104D01*
X183275104Y-100574792D01*
X183275106Y-100574788D01*
X183275109Y-100574786D01*
X183400048Y-100402820D01*
X183400047Y-100402820D01*
X183400051Y-100402816D01*
X183496557Y-100213412D01*
X183562246Y-100011243D01*
X183595500Y-99801287D01*
X183595500Y-99588713D01*
X183562246Y-99378757D01*
X183496557Y-99176588D01*
X183400051Y-98987184D01*
X183400049Y-98987181D01*
X183400048Y-98987179D01*
X183275109Y-98815213D01*
X183161569Y-98701673D01*
X183128084Y-98640350D01*
X183133068Y-98570658D01*
X183174940Y-98514725D01*
X183205915Y-98497810D01*
X183337331Y-98448796D01*
X183452546Y-98362546D01*
X183538796Y-98247331D01*
X183589091Y-98112483D01*
X183595500Y-98052873D01*
X183595499Y-96257128D01*
X183589091Y-96197517D01*
X183576227Y-96163028D01*
X183538797Y-96062671D01*
X183538793Y-96062664D01*
X183452547Y-95947455D01*
X183452544Y-95947452D01*
X183337335Y-95861206D01*
X183337328Y-95861202D01*
X183202482Y-95810908D01*
X183202483Y-95810908D01*
X183142883Y-95804501D01*
X183142881Y-95804500D01*
X183142873Y-95804500D01*
X183142864Y-95804500D01*
X181347129Y-95804500D01*
X181347123Y-95804501D01*
X181287516Y-95810908D01*
X181152671Y-95861202D01*
X181152664Y-95861206D01*
X181037455Y-95947452D01*
X181037452Y-95947455D01*
X180951206Y-96062664D01*
X180951202Y-96062671D01*
X180900908Y-96197517D01*
X180894501Y-96257116D01*
X180894501Y-96257123D01*
X180894500Y-96257135D01*
X152539935Y-96257135D01*
X152534738Y-96231010D01*
X152534737Y-96231003D01*
X152523453Y-96203760D01*
X152474397Y-96085327D01*
X152474390Y-96085314D01*
X152386789Y-95954211D01*
X152386786Y-95954207D01*
X152275292Y-95842713D01*
X152275288Y-95842710D01*
X152144185Y-95755109D01*
X152144172Y-95755102D01*
X151998501Y-95694764D01*
X151998489Y-95694761D01*
X151843845Y-95664000D01*
X151843842Y-95664000D01*
X151686158Y-95664000D01*
X151686155Y-95664000D01*
X151531510Y-95694761D01*
X151531498Y-95694764D01*
X151385827Y-95755102D01*
X151385814Y-95755109D01*
X151254711Y-95842710D01*
X151254707Y-95842713D01*
X151143213Y-95954207D01*
X151143210Y-95954211D01*
X151055609Y-96085314D01*
X151055602Y-96085327D01*
X150995264Y-96230998D01*
X150995261Y-96231010D01*
X150964500Y-96385653D01*
X148666056Y-96385653D01*
X148637246Y-96203757D01*
X148571557Y-96001588D01*
X148475051Y-95812184D01*
X148475049Y-95812181D01*
X148475048Y-95812179D01*
X148350109Y-95640213D01*
X148199786Y-95489890D01*
X148027820Y-95364951D01*
X148027115Y-95364591D01*
X148019054Y-95360485D01*
X147968259Y-95312512D01*
X147951463Y-95244692D01*
X147973999Y-95178556D01*
X148019054Y-95139515D01*
X148027816Y-95135051D01*
X148125621Y-95063992D01*
X148199786Y-95010109D01*
X148199788Y-95010106D01*
X148199792Y-95010104D01*
X148350104Y-94859792D01*
X148350106Y-94859788D01*
X148350109Y-94859786D01*
X148475048Y-94687820D01*
X148475047Y-94687820D01*
X148475051Y-94687816D01*
X148571557Y-94498412D01*
X148637246Y-94296243D01*
X148670500Y-94086287D01*
X148670500Y-93873713D01*
X148637246Y-93663757D01*
X148571557Y-93461588D01*
X148475051Y-93272184D01*
X148475049Y-93272181D01*
X148475048Y-93272179D01*
X148350109Y-93100213D01*
X148199786Y-92949890D01*
X148027820Y-92824951D01*
X148027115Y-92824591D01*
X148019054Y-92820485D01*
X147968259Y-92772512D01*
X147951463Y-92704692D01*
X147973999Y-92638556D01*
X148019054Y-92599515D01*
X148027816Y-92595051D01*
X148049789Y-92579086D01*
X148199786Y-92470109D01*
X148199788Y-92470106D01*
X148199792Y-92470104D01*
X148350104Y-92319792D01*
X148350106Y-92319788D01*
X148350109Y-92319786D01*
X148475048Y-92147820D01*
X148475047Y-92147820D01*
X148475051Y-92147816D01*
X148571557Y-91958412D01*
X148637246Y-91756243D01*
X148670500Y-91546287D01*
X148670500Y-91333713D01*
X148637246Y-91123757D01*
X148571557Y-90921588D01*
X148475051Y-90732184D01*
X148475049Y-90732181D01*
X148475048Y-90732179D01*
X148350109Y-90560213D01*
X148199786Y-90409890D01*
X148027820Y-90284951D01*
X148027115Y-90284591D01*
X148019054Y-90280485D01*
X147968259Y-90232512D01*
X147951463Y-90164692D01*
X147973999Y-90098556D01*
X148019054Y-90059515D01*
X148027816Y-90055051D01*
X148049789Y-90039086D01*
X148199786Y-89930109D01*
X148199788Y-89930106D01*
X148199792Y-89930104D01*
X148350104Y-89779792D01*
X148350106Y-89779788D01*
X148350109Y-89779786D01*
X148475048Y-89607820D01*
X148475047Y-89607820D01*
X148475051Y-89607816D01*
X148571557Y-89418412D01*
X148637246Y-89216243D01*
X148670500Y-89006287D01*
X148670500Y-88793713D01*
X148637246Y-88583757D01*
X148571557Y-88381588D01*
X148475051Y-88192184D01*
X148475049Y-88192181D01*
X148475048Y-88192179D01*
X148350109Y-88020213D01*
X148199786Y-87869890D01*
X148027820Y-87744951D01*
X148027115Y-87744591D01*
X148019054Y-87740485D01*
X147968259Y-87692512D01*
X147951463Y-87624692D01*
X147973999Y-87558556D01*
X148019054Y-87519515D01*
X148027816Y-87515051D01*
X148049789Y-87499086D01*
X148199786Y-87390109D01*
X148199788Y-87390106D01*
X148199792Y-87390104D01*
X148350104Y-87239792D01*
X148350106Y-87239788D01*
X148350109Y-87239786D01*
X148475048Y-87067820D01*
X148475047Y-87067820D01*
X148475051Y-87067816D01*
X148571557Y-86878412D01*
X148637246Y-86676243D01*
X148670500Y-86466287D01*
X148670500Y-86253713D01*
X148637246Y-86043757D01*
X148571557Y-85841588D01*
X148475051Y-85652184D01*
X148475049Y-85652181D01*
X148475048Y-85652179D01*
X148350109Y-85480213D01*
X148236569Y-85366673D01*
X148203084Y-85305350D01*
X148208068Y-85235658D01*
X148249940Y-85179725D01*
X148280915Y-85162810D01*
X148412331Y-85113796D01*
X148527546Y-85027546D01*
X148613796Y-84912331D01*
X148664091Y-84777483D01*
X148670500Y-84717873D01*
X148670499Y-82922128D01*
X148664091Y-82862517D01*
X148613796Y-82727669D01*
X148613795Y-82727668D01*
X148613793Y-82727664D01*
X148527547Y-82612455D01*
X148527544Y-82612452D01*
X148412335Y-82526206D01*
X148412328Y-82526202D01*
X148277482Y-82475908D01*
X148277483Y-82475908D01*
X148217883Y-82469501D01*
X148217881Y-82469500D01*
X148217873Y-82469500D01*
X148217864Y-82469500D01*
X146422129Y-82469500D01*
X146422123Y-82469501D01*
X146362516Y-82475908D01*
X146227671Y-82526202D01*
X146227664Y-82526206D01*
X146112455Y-82612452D01*
X146112452Y-82612455D01*
X146026206Y-82727664D01*
X146026202Y-82727671D01*
X145975908Y-82862517D01*
X145969501Y-82922116D01*
X145969501Y-82922123D01*
X145969500Y-82922135D01*
X123270499Y-82922135D01*
X123270499Y-82922128D01*
X123264091Y-82862517D01*
X123213796Y-82727669D01*
X123213795Y-82727668D01*
X123213793Y-82727664D01*
X123127547Y-82612455D01*
X123127544Y-82612452D01*
X123012335Y-82526206D01*
X123012328Y-82526202D01*
X122877482Y-82475908D01*
X122877483Y-82475908D01*
X122817883Y-82469501D01*
X122817881Y-82469500D01*
X122817873Y-82469500D01*
X122817864Y-82469500D01*
X121022129Y-82469500D01*
X121022123Y-82469501D01*
X120962516Y-82475908D01*
X120827671Y-82526202D01*
X120827664Y-82526206D01*
X120712455Y-82612452D01*
X120712452Y-82612455D01*
X120626206Y-82727664D01*
X120626202Y-82727671D01*
X120575908Y-82862517D01*
X120569501Y-82922116D01*
X120569501Y-82922123D01*
X120569500Y-82922135D01*
X108030499Y-82922135D01*
X108030499Y-82922128D01*
X108024091Y-82862517D01*
X107973796Y-82727669D01*
X107973795Y-82727668D01*
X107973793Y-82727664D01*
X107887547Y-82612455D01*
X107887544Y-82612452D01*
X107772335Y-82526206D01*
X107772328Y-82526202D01*
X107637482Y-82475908D01*
X107637483Y-82475908D01*
X107577883Y-82469501D01*
X107577881Y-82469500D01*
X107577873Y-82469500D01*
X107577864Y-82469500D01*
X105782129Y-82469500D01*
X105782123Y-82469501D01*
X105722516Y-82475908D01*
X105587671Y-82526202D01*
X105587664Y-82526206D01*
X105472455Y-82612452D01*
X105472452Y-82612455D01*
X105386206Y-82727664D01*
X105386202Y-82727671D01*
X105335908Y-82862517D01*
X105329501Y-82922116D01*
X105329501Y-82922123D01*
X105329500Y-82922135D01*
X104005500Y-82922135D01*
X104005500Y-67965713D01*
X105329500Y-67965713D01*
X105329500Y-68178287D01*
X105362754Y-68388243D01*
X105398881Y-68499431D01*
X105428444Y-68590414D01*
X105524951Y-68779820D01*
X105649890Y-68951786D01*
X105800213Y-69102109D01*
X105972182Y-69227050D01*
X105980946Y-69231516D01*
X106031742Y-69279491D01*
X106048536Y-69347312D01*
X106025998Y-69413447D01*
X105980946Y-69452484D01*
X105972182Y-69456949D01*
X105800213Y-69581890D01*
X105649890Y-69732213D01*
X105524951Y-69904179D01*
X105428444Y-70093585D01*
X105362753Y-70295760D01*
X105344296Y-70412295D01*
X105329500Y-70505713D01*
X105329500Y-70718287D01*
X105362754Y-70928243D01*
X105384176Y-70994174D01*
X105428444Y-71130414D01*
X105524951Y-71319820D01*
X105649890Y-71491786D01*
X105800213Y-71642109D01*
X105972182Y-71767050D01*
X105980946Y-71771516D01*
X106031742Y-71819491D01*
X106048536Y-71887312D01*
X106025998Y-71953447D01*
X105980946Y-71992484D01*
X105972182Y-71996949D01*
X105800213Y-72121890D01*
X105649890Y-72272213D01*
X105524951Y-72444179D01*
X105428444Y-72633585D01*
X105362753Y-72835760D01*
X105329500Y-73045713D01*
X105329500Y-73258286D01*
X105361561Y-73460714D01*
X105362754Y-73468243D01*
X105403650Y-73594108D01*
X105428444Y-73670414D01*
X105524951Y-73859820D01*
X105649890Y-74031786D01*
X105800213Y-74182109D01*
X105972182Y-74307050D01*
X105980946Y-74311516D01*
X106031742Y-74359491D01*
X106048536Y-74427312D01*
X106025998Y-74493447D01*
X105980946Y-74532484D01*
X105972182Y-74536949D01*
X105800213Y-74661890D01*
X105649890Y-74812213D01*
X105524951Y-74984179D01*
X105428444Y-75173585D01*
X105362753Y-75375760D01*
X105344910Y-75488417D01*
X105329500Y-75585713D01*
X105329500Y-75798287D01*
X105362754Y-76008243D01*
X105417252Y-76175971D01*
X105428444Y-76210414D01*
X105524951Y-76399820D01*
X105649890Y-76571786D01*
X105763430Y-76685326D01*
X105796915Y-76746649D01*
X105791931Y-76816341D01*
X105750059Y-76872274D01*
X105719083Y-76889189D01*
X105587669Y-76938203D01*
X105587664Y-76938206D01*
X105472455Y-77024452D01*
X105472452Y-77024455D01*
X105386206Y-77139664D01*
X105386202Y-77139671D01*
X105335908Y-77274517D01*
X105329501Y-77334116D01*
X105329501Y-77334123D01*
X105329500Y-77334135D01*
X105329500Y-79129870D01*
X105329501Y-79129876D01*
X105335908Y-79189483D01*
X105386202Y-79324328D01*
X105386206Y-79324335D01*
X105472452Y-79439544D01*
X105472455Y-79439547D01*
X105587664Y-79525793D01*
X105587671Y-79525797D01*
X105722517Y-79576091D01*
X105722516Y-79576091D01*
X105729444Y-79576835D01*
X105782127Y-79582500D01*
X107577872Y-79582499D01*
X107637483Y-79576091D01*
X107772331Y-79525796D01*
X107887546Y-79439546D01*
X107973796Y-79324331D01*
X108024091Y-79189483D01*
X108030500Y-79129873D01*
X108030499Y-77334128D01*
X108024091Y-77274517D01*
X107973796Y-77139669D01*
X107973795Y-77139668D01*
X107973793Y-77139664D01*
X107887547Y-77024455D01*
X107887544Y-77024452D01*
X107772335Y-76938206D01*
X107772328Y-76938202D01*
X107640917Y-76889189D01*
X107584983Y-76847318D01*
X107560566Y-76781853D01*
X107575418Y-76713580D01*
X107596563Y-76685332D01*
X107710104Y-76571792D01*
X107712463Y-76568546D01*
X107835048Y-76399820D01*
X107835047Y-76399820D01*
X107835051Y-76399816D01*
X107931557Y-76210412D01*
X107997246Y-76008243D01*
X108030500Y-75798287D01*
X108030500Y-75585713D01*
X107997246Y-75375757D01*
X107940391Y-75200776D01*
X152269500Y-75200776D01*
X152269500Y-75421221D01*
X152303985Y-75638952D01*
X152372103Y-75848603D01*
X152372104Y-75848606D01*
X152472187Y-76045025D01*
X152601752Y-76223358D01*
X152601756Y-76223363D01*
X152757636Y-76379243D01*
X152757641Y-76379247D01*
X152858435Y-76452477D01*
X152935978Y-76508815D01*
X153059560Y-76571784D01*
X153132393Y-76608895D01*
X153132396Y-76608896D01*
X153237221Y-76642955D01*
X153342049Y-76677015D01*
X153559778Y-76711500D01*
X153559779Y-76711500D01*
X153780221Y-76711500D01*
X153780222Y-76711500D01*
X153997951Y-76677015D01*
X154207606Y-76608895D01*
X154404022Y-76508815D01*
X154582365Y-76379242D01*
X154632536Y-76329070D01*
X154693857Y-76295586D01*
X154763548Y-76300570D01*
X154819482Y-76342441D01*
X154836398Y-76373419D01*
X154866202Y-76453328D01*
X154866206Y-76453335D01*
X154952452Y-76568544D01*
X154952455Y-76568547D01*
X155067664Y-76654793D01*
X155067671Y-76654797D01*
X155202517Y-76705091D01*
X155202516Y-76705091D01*
X155209444Y-76705835D01*
X155262127Y-76711500D01*
X157157872Y-76711499D01*
X157217483Y-76705091D01*
X157352331Y-76654796D01*
X157467546Y-76568546D01*
X157553796Y-76453331D01*
X157604091Y-76318483D01*
X157610500Y-76258873D01*
X157610499Y-75081648D01*
X158719500Y-75081648D01*
X158719500Y-75286351D01*
X158751522Y-75488534D01*
X158814781Y-75683223D01*
X158826272Y-75705774D01*
X158907585Y-75865359D01*
X158907715Y-75865613D01*
X159028028Y-76031213D01*
X159172786Y-76175971D01*
X159286907Y-76258883D01*
X159338390Y-76296287D01*
X159454607Y-76355503D01*
X159520776Y-76389218D01*
X159520778Y-76389218D01*
X159520781Y-76389220D01*
X159625137Y-76423127D01*
X159715465Y-76452477D01*
X159816557Y-76468488D01*
X159917648Y-76484500D01*
X159917649Y-76484500D01*
X160122351Y-76484500D01*
X160122352Y-76484500D01*
X160324534Y-76452477D01*
X160519219Y-76389220D01*
X160701610Y-76296287D01*
X160819808Y-76210412D01*
X160867213Y-76175971D01*
X160867215Y-76175968D01*
X160867219Y-76175966D01*
X161011966Y-76031219D01*
X161011968Y-76031215D01*
X161011971Y-76031213D01*
X161083893Y-75932219D01*
X161132287Y-75865610D01*
X161225220Y-75683219D01*
X161288477Y-75488534D01*
X161320500Y-75286352D01*
X161320500Y-75081682D01*
X168880000Y-75081682D01*
X168880000Y-75286317D01*
X168912009Y-75488417D01*
X168975244Y-75683031D01*
X169068141Y-75865350D01*
X169068147Y-75865359D01*
X169100523Y-75909921D01*
X169100524Y-75909922D01*
X169780000Y-75230446D01*
X169780000Y-75236661D01*
X169807259Y-75338394D01*
X169859920Y-75429606D01*
X169934394Y-75504080D01*
X170025606Y-75556741D01*
X170127339Y-75584000D01*
X170133553Y-75584000D01*
X169454076Y-76263474D01*
X169498650Y-76295859D01*
X169680968Y-76388755D01*
X169875582Y-76451990D01*
X170077683Y-76484000D01*
X170282317Y-76484000D01*
X170484417Y-76451990D01*
X170679031Y-76388755D01*
X170861349Y-76295859D01*
X170905921Y-76263474D01*
X170226447Y-75584000D01*
X170232661Y-75584000D01*
X170334394Y-75556741D01*
X170425606Y-75504080D01*
X170500080Y-75429606D01*
X170552741Y-75338394D01*
X170580000Y-75236661D01*
X170580000Y-75230448D01*
X171259474Y-75909922D01*
X171259474Y-75909921D01*
X171291859Y-75865349D01*
X171373164Y-75705780D01*
X181914500Y-75705780D01*
X181914500Y-75932219D01*
X181914501Y-75932235D01*
X181944056Y-76156731D01*
X181944057Y-76156736D01*
X181944058Y-76156742D01*
X181961908Y-76223358D01*
X182002667Y-76375476D01*
X182089322Y-76584681D01*
X182089329Y-76584696D01*
X182202553Y-76780806D01*
X182340408Y-76960462D01*
X182340414Y-76960469D01*
X182500530Y-77120585D01*
X182500537Y-77120591D01*
X182680193Y-77258446D01*
X182876303Y-77371670D01*
X182876318Y-77371677D01*
X182984507Y-77416490D01*
X183085522Y-77458332D01*
X183304258Y-77516942D01*
X183528774Y-77546500D01*
X183528781Y-77546500D01*
X183755219Y-77546500D01*
X183755226Y-77546500D01*
X183979742Y-77516942D01*
X184198478Y-77458332D01*
X184407693Y-77371672D01*
X184603807Y-77258446D01*
X184783464Y-77120590D01*
X184943590Y-76960464D01*
X185081446Y-76780807D01*
X185194672Y-76584693D01*
X185281332Y-76375478D01*
X185339942Y-76156742D01*
X185369500Y-75932226D01*
X185369500Y-75705774D01*
X185339942Y-75481258D01*
X185281332Y-75262522D01*
X185226994Y-75131339D01*
X185194677Y-75053318D01*
X185194670Y-75053303D01*
X185081446Y-74857193D01*
X184943591Y-74677537D01*
X184943585Y-74677530D01*
X184783469Y-74517414D01*
X184783462Y-74517408D01*
X184603806Y-74379553D01*
X184407696Y-74266329D01*
X184407681Y-74266322D01*
X184198476Y-74179667D01*
X184089110Y-74150363D01*
X183979742Y-74121058D01*
X183979736Y-74121057D01*
X183979731Y-74121056D01*
X183755235Y-74091501D01*
X183755232Y-74091500D01*
X183755226Y-74091500D01*
X183528774Y-74091500D01*
X183528768Y-74091500D01*
X183528764Y-74091501D01*
X183304268Y-74121056D01*
X183304261Y-74121057D01*
X183304258Y-74121058D01*
X183258031Y-74133444D01*
X183085523Y-74179667D01*
X182876318Y-74266322D01*
X182876303Y-74266329D01*
X182680193Y-74379553D01*
X182500537Y-74517408D01*
X182500530Y-74517414D01*
X182340414Y-74677530D01*
X182340408Y-74677537D01*
X182202553Y-74857193D01*
X182089329Y-75053303D01*
X182089322Y-75053318D01*
X182002667Y-75262523D01*
X181944059Y-75481255D01*
X181944056Y-75481268D01*
X181914501Y-75705764D01*
X181914500Y-75705780D01*
X171373164Y-75705780D01*
X171384755Y-75683031D01*
X171391135Y-75663396D01*
X171447990Y-75488417D01*
X171480000Y-75286317D01*
X171480000Y-75081682D01*
X171447990Y-74879582D01*
X171384755Y-74684968D01*
X171291859Y-74502650D01*
X171259474Y-74458077D01*
X171259474Y-74458076D01*
X170580000Y-75137551D01*
X170580000Y-75131339D01*
X170552741Y-75029606D01*
X170500080Y-74938394D01*
X170425606Y-74863920D01*
X170334394Y-74811259D01*
X170232661Y-74784000D01*
X170226446Y-74784000D01*
X170905922Y-74104524D01*
X170905921Y-74104523D01*
X170861359Y-74072147D01*
X170861350Y-74072141D01*
X170679031Y-73979244D01*
X170484417Y-73916009D01*
X170282317Y-73884000D01*
X170077683Y-73884000D01*
X169875582Y-73916009D01*
X169680968Y-73979244D01*
X169498644Y-74072143D01*
X169454077Y-74104523D01*
X169454077Y-74104524D01*
X170133554Y-74784000D01*
X170127339Y-74784000D01*
X170025606Y-74811259D01*
X169934394Y-74863920D01*
X169859920Y-74938394D01*
X169807259Y-75029606D01*
X169780000Y-75131339D01*
X169780000Y-75137553D01*
X169100524Y-74458077D01*
X169100523Y-74458077D01*
X169068143Y-74502644D01*
X168975244Y-74684968D01*
X168912009Y-74879582D01*
X168880000Y-75081682D01*
X161320500Y-75081682D01*
X161320500Y-75081648D01*
X161304883Y-74983047D01*
X161288477Y-74879465D01*
X161254012Y-74773393D01*
X161225220Y-74684781D01*
X161225218Y-74684778D01*
X161225218Y-74684776D01*
X161191503Y-74618607D01*
X161132287Y-74502390D01*
X161100092Y-74458077D01*
X161011971Y-74336786D01*
X160867213Y-74192028D01*
X160701613Y-74071715D01*
X160701612Y-74071714D01*
X160701610Y-74071713D01*
X160586584Y-74013104D01*
X160519223Y-73978781D01*
X160324534Y-73915522D01*
X160149995Y-73887878D01*
X160122352Y-73883500D01*
X159917648Y-73883500D01*
X159893329Y-73887351D01*
X159715465Y-73915522D01*
X159520776Y-73978781D01*
X159338386Y-74071715D01*
X159172786Y-74192028D01*
X159028028Y-74336786D01*
X158907715Y-74502386D01*
X158814781Y-74684776D01*
X158751522Y-74879465D01*
X158719500Y-75081648D01*
X157610499Y-75081648D01*
X157610499Y-74363128D01*
X157604091Y-74303517D01*
X157590220Y-74266328D01*
X157553797Y-74168671D01*
X157553793Y-74168664D01*
X157467547Y-74053455D01*
X157467544Y-74053452D01*
X157352335Y-73967206D01*
X157352328Y-73967202D01*
X157217482Y-73916908D01*
X157217483Y-73916908D01*
X157157883Y-73910501D01*
X157157881Y-73910500D01*
X157157873Y-73910500D01*
X157157864Y-73910500D01*
X155262129Y-73910500D01*
X155262123Y-73910501D01*
X155202516Y-73916908D01*
X155067671Y-73967202D01*
X155067664Y-73967206D01*
X154952455Y-74053452D01*
X154952452Y-74053455D01*
X154866206Y-74168664D01*
X154866203Y-74168669D01*
X154836398Y-74248581D01*
X154794526Y-74304514D01*
X154729062Y-74328931D01*
X154660789Y-74314079D01*
X154632535Y-74292928D01*
X154582363Y-74242756D01*
X154582358Y-74242752D01*
X154404025Y-74113187D01*
X154404024Y-74113186D01*
X154404022Y-74113185D01*
X154323481Y-74072147D01*
X154207606Y-74013104D01*
X154207603Y-74013103D01*
X153997952Y-73944985D01*
X153889086Y-73927742D01*
X153780222Y-73910500D01*
X153559778Y-73910500D01*
X153487201Y-73921995D01*
X153342047Y-73944985D01*
X153132396Y-74013103D01*
X153132393Y-74013104D01*
X152935974Y-74113187D01*
X152757641Y-74242752D01*
X152757636Y-74242756D01*
X152601756Y-74398636D01*
X152601752Y-74398641D01*
X152472187Y-74576974D01*
X152372104Y-74773393D01*
X152372103Y-74773396D01*
X152303985Y-74983047D01*
X152269500Y-75200776D01*
X107940391Y-75200776D01*
X107931557Y-75173588D01*
X107931555Y-75173585D01*
X107931555Y-75173583D01*
X107870269Y-75053303D01*
X107835051Y-74984184D01*
X107835049Y-74984181D01*
X107835048Y-74984179D01*
X107710109Y-74812213D01*
X107559786Y-74661890D01*
X107387820Y-74536951D01*
X107387115Y-74536591D01*
X107379054Y-74532485D01*
X107328259Y-74484512D01*
X107311463Y-74416692D01*
X107333999Y-74350556D01*
X107379054Y-74311515D01*
X107387816Y-74307051D01*
X107409789Y-74291086D01*
X107559786Y-74182109D01*
X107559788Y-74182106D01*
X107559792Y-74182104D01*
X107710104Y-74031792D01*
X107710106Y-74031788D01*
X107710109Y-74031786D01*
X107835048Y-73859820D01*
X107835047Y-73859820D01*
X107835051Y-73859816D01*
X107931557Y-73670412D01*
X107997246Y-73468243D01*
X108030500Y-73258287D01*
X108030500Y-73045713D01*
X107997246Y-72835757D01*
X107931557Y-72633588D01*
X107835051Y-72444184D01*
X107835049Y-72444181D01*
X107835048Y-72444179D01*
X107710109Y-72272213D01*
X107559786Y-72121890D01*
X107387820Y-71996951D01*
X107387115Y-71996591D01*
X107379054Y-71992485D01*
X107328259Y-71944512D01*
X107311463Y-71876692D01*
X107333999Y-71810556D01*
X107379054Y-71771515D01*
X107387816Y-71767051D01*
X107459837Y-71714725D01*
X107559786Y-71642109D01*
X107559788Y-71642106D01*
X107559792Y-71642104D01*
X107710104Y-71491792D01*
X107710106Y-71491788D01*
X107710109Y-71491786D01*
X107835048Y-71319820D01*
X107835047Y-71319820D01*
X107835051Y-71319816D01*
X107931557Y-71130412D01*
X107997246Y-70928243D01*
X108030500Y-70718287D01*
X108030500Y-70505713D01*
X107997246Y-70295757D01*
X107953829Y-70162135D01*
X128824500Y-70162135D01*
X128824500Y-71957870D01*
X128824501Y-71957876D01*
X128830908Y-72017483D01*
X128881202Y-72152328D01*
X128881206Y-72152335D01*
X128967452Y-72267544D01*
X128967455Y-72267547D01*
X129082664Y-72353793D01*
X129082671Y-72353797D01*
X129217517Y-72404091D01*
X129217516Y-72404091D01*
X129224444Y-72404835D01*
X129277127Y-72410500D01*
X131072872Y-72410499D01*
X131132483Y-72404091D01*
X131267331Y-72353796D01*
X131382546Y-72267546D01*
X131468796Y-72152331D01*
X131517810Y-72020916D01*
X131559681Y-71964984D01*
X131625145Y-71940566D01*
X131693418Y-71955417D01*
X131721673Y-71976569D01*
X131835213Y-72090109D01*
X132007179Y-72215048D01*
X132007181Y-72215049D01*
X132007184Y-72215051D01*
X132196588Y-72311557D01*
X132398757Y-72377246D01*
X132608713Y-72410500D01*
X132608714Y-72410500D01*
X132821286Y-72410500D01*
X132821287Y-72410500D01*
X133031243Y-72377246D01*
X133233412Y-72311557D01*
X133422816Y-72215051D01*
X133509138Y-72152335D01*
X133594786Y-72090109D01*
X133594788Y-72090106D01*
X133594792Y-72090104D01*
X133745104Y-71939792D01*
X133745106Y-71939788D01*
X133745109Y-71939786D01*
X133870048Y-71767820D01*
X133870047Y-71767820D01*
X133870051Y-71767816D01*
X133874514Y-71759054D01*
X133922488Y-71708259D01*
X133990308Y-71691463D01*
X134056444Y-71713999D01*
X134095486Y-71759056D01*
X134099951Y-71767820D01*
X134224890Y-71939786D01*
X134375213Y-72090109D01*
X134547179Y-72215048D01*
X134547181Y-72215049D01*
X134547184Y-72215051D01*
X134736588Y-72311557D01*
X134938757Y-72377246D01*
X135148713Y-72410500D01*
X135148714Y-72410500D01*
X135361286Y-72410500D01*
X135361287Y-72410500D01*
X135571243Y-72377246D01*
X135773412Y-72311557D01*
X135962816Y-72215051D01*
X136049138Y-72152335D01*
X136134786Y-72090109D01*
X136134788Y-72090106D01*
X136134792Y-72090104D01*
X136285104Y-71939792D01*
X136285106Y-71939788D01*
X136285109Y-71939786D01*
X136410048Y-71767820D01*
X136410047Y-71767820D01*
X136410051Y-71767816D01*
X136414514Y-71759054D01*
X136462488Y-71708259D01*
X136530308Y-71691463D01*
X136596444Y-71713999D01*
X136635486Y-71759056D01*
X136639951Y-71767820D01*
X136764890Y-71939786D01*
X136915213Y-72090109D01*
X137087179Y-72215048D01*
X137087181Y-72215049D01*
X137087184Y-72215051D01*
X137276588Y-72311557D01*
X137478757Y-72377246D01*
X137688713Y-72410500D01*
X137688714Y-72410500D01*
X137901286Y-72410500D01*
X137901287Y-72410500D01*
X138111243Y-72377246D01*
X138313412Y-72311557D01*
X138502816Y-72215051D01*
X138589138Y-72152335D01*
X138674786Y-72090109D01*
X138674788Y-72090106D01*
X138674792Y-72090104D01*
X138825104Y-71939792D01*
X138825106Y-71939788D01*
X138825109Y-71939786D01*
X138950048Y-71767820D01*
X138950047Y-71767820D01*
X138950051Y-71767816D01*
X138954514Y-71759054D01*
X139002488Y-71708259D01*
X139070308Y-71691463D01*
X139136444Y-71713999D01*
X139175486Y-71759056D01*
X139179951Y-71767820D01*
X139304890Y-71939786D01*
X139455213Y-72090109D01*
X139627179Y-72215048D01*
X139627181Y-72215049D01*
X139627184Y-72215051D01*
X139816588Y-72311557D01*
X140018757Y-72377246D01*
X140228713Y-72410500D01*
X140228714Y-72410500D01*
X140441286Y-72410500D01*
X140441287Y-72410500D01*
X140651243Y-72377246D01*
X140853412Y-72311557D01*
X141042816Y-72215051D01*
X141129138Y-72152335D01*
X141214786Y-72090109D01*
X141214788Y-72090106D01*
X141214792Y-72090104D01*
X141365104Y-71939792D01*
X141365106Y-71939788D01*
X141365109Y-71939786D01*
X141458999Y-71810556D01*
X141490051Y-71767816D01*
X141494793Y-71758508D01*
X141542763Y-71707711D01*
X141610583Y-71690911D01*
X141676719Y-71713445D01*
X141715763Y-71758500D01*
X141720377Y-71767555D01*
X141845272Y-71939459D01*
X141845276Y-71939464D01*
X141995535Y-72089723D01*
X141995540Y-72089727D01*
X142167442Y-72214620D01*
X142356782Y-72311095D01*
X142558871Y-72376757D01*
X142625000Y-72387231D01*
X142625000Y-71493012D01*
X142682007Y-71525925D01*
X142809174Y-71560000D01*
X142940826Y-71560000D01*
X143067993Y-71525925D01*
X143125000Y-71493012D01*
X143125000Y-72387230D01*
X143191126Y-72376757D01*
X143191129Y-72376757D01*
X143393217Y-72311095D01*
X143582557Y-72214620D01*
X143754459Y-72089727D01*
X143754464Y-72089723D01*
X143904723Y-71939464D01*
X143904727Y-71939459D01*
X144029620Y-71767557D01*
X144126095Y-71578217D01*
X144191757Y-71376129D01*
X144191757Y-71376126D01*
X144202231Y-71310000D01*
X143308012Y-71310000D01*
X143340925Y-71252993D01*
X143375000Y-71125826D01*
X143375000Y-70994174D01*
X143340925Y-70867007D01*
X143308012Y-70810000D01*
X144202231Y-70810000D01*
X144191757Y-70743873D01*
X144191757Y-70743870D01*
X144126095Y-70541782D01*
X144029620Y-70352442D01*
X143904727Y-70180540D01*
X143904723Y-70180535D01*
X143754464Y-70030276D01*
X143754459Y-70030272D01*
X143582557Y-69905379D01*
X143393215Y-69808903D01*
X143191124Y-69743241D01*
X143125000Y-69732768D01*
X143125000Y-70626988D01*
X143067993Y-70594075D01*
X142940826Y-70560000D01*
X142809174Y-70560000D01*
X142682007Y-70594075D01*
X142625000Y-70626988D01*
X142625000Y-69732768D01*
X142624999Y-69732768D01*
X142558875Y-69743241D01*
X142356784Y-69808903D01*
X142167442Y-69905379D01*
X141995540Y-70030272D01*
X141995535Y-70030276D01*
X141845276Y-70180535D01*
X141845272Y-70180540D01*
X141720378Y-70352443D01*
X141715762Y-70361502D01*
X141667784Y-70412295D01*
X141599963Y-70429087D01*
X141533829Y-70406546D01*
X141494794Y-70361493D01*
X141490051Y-70352184D01*
X141490049Y-70352181D01*
X141490048Y-70352179D01*
X141365109Y-70180213D01*
X141214786Y-70029890D01*
X141042820Y-69904951D01*
X140853414Y-69808444D01*
X140853413Y-69808443D01*
X140853412Y-69808443D01*
X140651243Y-69742754D01*
X140651241Y-69742753D01*
X140651240Y-69742753D01*
X140489957Y-69717208D01*
X140441287Y-69709500D01*
X140228713Y-69709500D01*
X140180042Y-69717208D01*
X140018760Y-69742753D01*
X139816585Y-69808444D01*
X139627179Y-69904951D01*
X139455213Y-70029890D01*
X139304890Y-70180213D01*
X139179949Y-70352182D01*
X139175484Y-70360946D01*
X139127509Y-70411742D01*
X139059688Y-70428536D01*
X138993553Y-70405998D01*
X138954516Y-70360946D01*
X138950050Y-70352182D01*
X138825109Y-70180213D01*
X138674786Y-70029890D01*
X138502820Y-69904951D01*
X138313414Y-69808444D01*
X138313413Y-69808443D01*
X138313412Y-69808443D01*
X138111243Y-69742754D01*
X138111241Y-69742753D01*
X138111240Y-69742753D01*
X137949957Y-69717208D01*
X137901287Y-69709500D01*
X137688713Y-69709500D01*
X137640042Y-69717208D01*
X137478760Y-69742753D01*
X137276585Y-69808444D01*
X137087179Y-69904951D01*
X136915213Y-70029890D01*
X136764890Y-70180213D01*
X136639949Y-70352182D01*
X136635484Y-70360946D01*
X136587509Y-70411742D01*
X136519688Y-70428536D01*
X136453553Y-70405998D01*
X136414516Y-70360946D01*
X136410050Y-70352182D01*
X136285109Y-70180213D01*
X136134786Y-70029890D01*
X135962820Y-69904951D01*
X135773414Y-69808444D01*
X135773413Y-69808443D01*
X135773412Y-69808443D01*
X135571243Y-69742754D01*
X135571241Y-69742753D01*
X135571240Y-69742753D01*
X135409957Y-69717208D01*
X135361287Y-69709500D01*
X135148713Y-69709500D01*
X135100042Y-69717208D01*
X134938760Y-69742753D01*
X134736585Y-69808444D01*
X134547179Y-69904951D01*
X134375213Y-70029890D01*
X134224890Y-70180213D01*
X134099949Y-70352182D01*
X134095484Y-70360946D01*
X134047509Y-70411742D01*
X133979688Y-70428536D01*
X133913553Y-70405998D01*
X133874516Y-70360946D01*
X133870050Y-70352182D01*
X133745109Y-70180213D01*
X133594786Y-70029890D01*
X133422820Y-69904951D01*
X133233414Y-69808444D01*
X133233413Y-69808443D01*
X133233412Y-69808443D01*
X133031243Y-69742754D01*
X133031241Y-69742753D01*
X133031240Y-69742753D01*
X132869957Y-69717208D01*
X132821287Y-69709500D01*
X132608713Y-69709500D01*
X132560042Y-69717208D01*
X132398760Y-69742753D01*
X132196585Y-69808444D01*
X132007179Y-69904951D01*
X131835215Y-70029889D01*
X131721673Y-70143431D01*
X131660350Y-70176915D01*
X131590658Y-70171931D01*
X131534725Y-70130059D01*
X131517810Y-70099082D01*
X131468797Y-69967671D01*
X131468793Y-69967664D01*
X131382547Y-69852455D01*
X131382544Y-69852452D01*
X131267335Y-69766206D01*
X131267328Y-69766202D01*
X131132482Y-69715908D01*
X131132483Y-69715908D01*
X131072883Y-69709501D01*
X131072881Y-69709500D01*
X131072873Y-69709500D01*
X131072864Y-69709500D01*
X129277129Y-69709500D01*
X129277123Y-69709501D01*
X129217516Y-69715908D01*
X129082671Y-69766202D01*
X129082664Y-69766206D01*
X128967455Y-69852452D01*
X128967452Y-69852455D01*
X128881206Y-69967664D01*
X128881202Y-69967671D01*
X128830908Y-70102517D01*
X128824501Y-70162116D01*
X128824500Y-70162135D01*
X107953829Y-70162135D01*
X107931557Y-70093588D01*
X107931555Y-70093585D01*
X107931555Y-70093583D01*
X107867396Y-69967664D01*
X107835051Y-69904184D01*
X107835049Y-69904181D01*
X107835048Y-69904179D01*
X107710109Y-69732213D01*
X107559786Y-69581890D01*
X107387820Y-69456951D01*
X107387115Y-69456591D01*
X107379054Y-69452485D01*
X107328259Y-69404512D01*
X107311463Y-69336692D01*
X107333999Y-69270556D01*
X107379054Y-69231515D01*
X107387816Y-69227051D01*
X107442230Y-69187517D01*
X107559786Y-69102109D01*
X107559788Y-69102106D01*
X107559792Y-69102104D01*
X107710104Y-68951792D01*
X107710106Y-68951788D01*
X107710109Y-68951786D01*
X107835048Y-68779820D01*
X107835047Y-68779820D01*
X107835051Y-68779816D01*
X107931557Y-68590412D01*
X107997246Y-68388243D01*
X108030500Y-68178287D01*
X108030500Y-67965713D01*
X107997246Y-67755757D01*
X107931557Y-67553588D01*
X107835051Y-67364184D01*
X107835049Y-67364181D01*
X107835048Y-67364179D01*
X107710109Y-67192213D01*
X107559786Y-67041890D01*
X107387817Y-66916949D01*
X107378504Y-66912204D01*
X107327707Y-66864230D01*
X107310912Y-66796409D01*
X107333449Y-66730274D01*
X107378507Y-66691232D01*
X107387558Y-66686620D01*
X107559459Y-66561727D01*
X107559464Y-66561723D01*
X107709723Y-66411464D01*
X107709727Y-66411459D01*
X107834620Y-66239557D01*
X107931095Y-66050217D01*
X107996757Y-65848129D01*
X107996757Y-65848126D01*
X108007231Y-65782000D01*
X107113012Y-65782000D01*
X107145925Y-65724993D01*
X107180000Y-65597826D01*
X107180000Y-65466174D01*
X107145925Y-65339007D01*
X107113012Y-65282000D01*
X108007231Y-65282000D01*
X107996757Y-65215873D01*
X107996757Y-65215870D01*
X107931095Y-65013782D01*
X107834620Y-64824442D01*
X107709727Y-64652540D01*
X107709723Y-64652535D01*
X107559464Y-64502276D01*
X107559459Y-64502272D01*
X107387557Y-64377379D01*
X107351587Y-64359051D01*
X107198215Y-64280903D01*
X107117424Y-64254653D01*
X113753500Y-64254653D01*
X113753500Y-64412346D01*
X113784261Y-64566989D01*
X113784264Y-64567001D01*
X113844603Y-64712674D01*
X113847475Y-64718046D01*
X113845317Y-64719199D01*
X113862980Y-64775608D01*
X113863000Y-64777822D01*
X113863000Y-65270177D01*
X113845724Y-65329009D01*
X113847479Y-65329947D01*
X113844602Y-65335328D01*
X113784264Y-65480998D01*
X113784261Y-65481010D01*
X113753500Y-65635653D01*
X113753500Y-65793346D01*
X113784261Y-65947989D01*
X113784264Y-65948001D01*
X113844602Y-66093672D01*
X113844609Y-66093685D01*
X113932210Y-66224788D01*
X113932213Y-66224792D01*
X114043707Y-66336286D01*
X114043711Y-66336289D01*
X114174814Y-66423890D01*
X114174827Y-66423897D01*
X114320498Y-66484235D01*
X114320503Y-66484237D01*
X114475153Y-66514999D01*
X114475156Y-66515000D01*
X114475158Y-66515000D01*
X114632844Y-66515000D01*
X114632845Y-66514999D01*
X114787497Y-66484237D01*
X114933179Y-66423894D01*
X114933184Y-66423890D01*
X114938546Y-66421025D01*
X114939670Y-66423129D01*
X114996283Y-66405401D01*
X115057787Y-66422271D01*
X115058454Y-66421025D01*
X115063825Y-66423896D01*
X115209498Y-66484235D01*
X115209503Y-66484237D01*
X115364153Y-66514999D01*
X115364156Y-66515000D01*
X115364158Y-66515000D01*
X115521844Y-66515000D01*
X115521845Y-66514999D01*
X115676497Y-66484237D01*
X115822179Y-66423894D01*
X115953289Y-66336289D01*
X116064789Y-66224789D01*
X116152394Y-66093679D01*
X116212737Y-65947997D01*
X116243500Y-65793342D01*
X116243500Y-65635658D01*
X116243500Y-65635655D01*
X116243499Y-65635653D01*
X116212738Y-65481010D01*
X116212737Y-65481003D01*
X116152394Y-65335321D01*
X116152390Y-65335315D01*
X116149521Y-65329947D01*
X116151676Y-65328794D01*
X116134019Y-65272369D01*
X116134000Y-65270177D01*
X116134000Y-63304939D01*
X116107446Y-63171448D01*
X116107445Y-63171447D01*
X116107445Y-63171443D01*
X116088760Y-63126334D01*
X116055359Y-63045695D01*
X116055355Y-63045688D01*
X116017592Y-62989172D01*
X116013751Y-62983423D01*
X115979735Y-62932514D01*
X115916561Y-62869339D01*
X115913164Y-62865310D01*
X115901121Y-62837966D01*
X115890901Y-62819249D01*
X115888998Y-62819827D01*
X115887227Y-62813990D01*
X115826889Y-62668319D01*
X115826882Y-62668306D01*
X115739281Y-62537203D01*
X115739278Y-62537199D01*
X115627784Y-62425705D01*
X115627780Y-62425702D01*
X115496677Y-62338101D01*
X115496664Y-62338094D01*
X115350993Y-62277756D01*
X115350981Y-62277753D01*
X115196337Y-62246992D01*
X115196334Y-62246992D01*
X115038650Y-62246992D01*
X115038647Y-62246992D01*
X114884002Y-62277753D01*
X114883990Y-62277756D01*
X114738319Y-62338094D01*
X114738306Y-62338101D01*
X114607203Y-62425702D01*
X114607199Y-62425705D01*
X114495705Y-62537199D01*
X114495702Y-62537203D01*
X114408101Y-62668306D01*
X114408094Y-62668319D01*
X114347756Y-62813990D01*
X114347753Y-62814002D01*
X114316992Y-62968645D01*
X114316992Y-63126338D01*
X114347753Y-63280981D01*
X114347756Y-63280993D01*
X114396410Y-63398456D01*
X114403879Y-63467926D01*
X114372603Y-63530405D01*
X114325464Y-63559824D01*
X114326130Y-63561432D01*
X114174827Y-63624102D01*
X114174814Y-63624109D01*
X114043711Y-63711710D01*
X114043707Y-63711713D01*
X113932213Y-63823207D01*
X113932210Y-63823211D01*
X113844609Y-63954314D01*
X113844602Y-63954327D01*
X113784264Y-64099998D01*
X113784261Y-64100010D01*
X113753500Y-64254653D01*
X107117424Y-64254653D01*
X106996124Y-64215241D01*
X106930000Y-64204768D01*
X106930000Y-65098988D01*
X106872993Y-65066075D01*
X106745826Y-65032000D01*
X106614174Y-65032000D01*
X106487007Y-65066075D01*
X106430000Y-65098988D01*
X106430000Y-64204768D01*
X106429999Y-64204768D01*
X106363875Y-64215241D01*
X106161784Y-64280903D01*
X105972442Y-64377379D01*
X105800540Y-64502272D01*
X105800535Y-64502276D01*
X105650276Y-64652535D01*
X105650272Y-64652540D01*
X105525379Y-64824442D01*
X105428904Y-65013782D01*
X105363242Y-65215870D01*
X105363242Y-65215873D01*
X105352769Y-65282000D01*
X106246988Y-65282000D01*
X106214075Y-65339007D01*
X106180000Y-65466174D01*
X106180000Y-65597826D01*
X106214075Y-65724993D01*
X106246988Y-65782000D01*
X105352769Y-65782000D01*
X105363242Y-65848126D01*
X105363242Y-65848129D01*
X105428904Y-66050217D01*
X105525379Y-66239557D01*
X105650272Y-66411459D01*
X105650276Y-66411464D01*
X105800535Y-66561723D01*
X105800540Y-66561727D01*
X105972444Y-66686622D01*
X105981495Y-66691234D01*
X106032292Y-66739208D01*
X106049087Y-66807029D01*
X106026550Y-66873164D01*
X105981499Y-66912202D01*
X105972182Y-66916949D01*
X105800213Y-67041890D01*
X105649890Y-67192213D01*
X105524951Y-67364179D01*
X105428444Y-67553585D01*
X105362753Y-67755760D01*
X105358445Y-67782960D01*
X105329500Y-67965713D01*
X104005500Y-67965713D01*
X104005500Y-59195780D01*
X108127500Y-59195780D01*
X108127500Y-59422219D01*
X108127501Y-59422235D01*
X108157056Y-59646731D01*
X108157057Y-59646736D01*
X108157058Y-59646742D01*
X108170275Y-59696068D01*
X108215667Y-59865476D01*
X108302322Y-60074681D01*
X108302329Y-60074696D01*
X108415553Y-60270806D01*
X108553408Y-60450462D01*
X108553414Y-60450469D01*
X108713530Y-60610585D01*
X108713537Y-60610591D01*
X108893193Y-60748446D01*
X109089303Y-60861670D01*
X109089318Y-60861677D01*
X109197507Y-60906490D01*
X109298522Y-60948332D01*
X109517258Y-61006942D01*
X109741774Y-61036500D01*
X109741781Y-61036500D01*
X109968219Y-61036500D01*
X109968226Y-61036500D01*
X110192742Y-61006942D01*
X110411478Y-60948332D01*
X110620693Y-60861672D01*
X110816807Y-60748446D01*
X110996464Y-60610590D01*
X111156590Y-60450464D01*
X111294446Y-60270807D01*
X111407672Y-60074693D01*
X111494332Y-59865478D01*
X111552942Y-59646742D01*
X111582500Y-59422226D01*
X111582500Y-59195774D01*
X111552942Y-58971258D01*
X111494332Y-58752522D01*
X111407672Y-58543307D01*
X111294446Y-58347193D01*
X111156590Y-58167536D01*
X111156585Y-58167530D01*
X110996469Y-58007414D01*
X110996462Y-58007408D01*
X110816806Y-57869553D01*
X110620696Y-57756329D01*
X110620681Y-57756322D01*
X110411476Y-57669667D01*
X110298867Y-57639494D01*
X110192742Y-57611058D01*
X110192736Y-57611057D01*
X110192731Y-57611056D01*
X109968235Y-57581501D01*
X109968232Y-57581500D01*
X109968226Y-57581500D01*
X109741774Y-57581500D01*
X109741768Y-57581500D01*
X109741764Y-57581501D01*
X109517268Y-57611056D01*
X109517261Y-57611057D01*
X109517258Y-57611058D01*
X109471031Y-57623444D01*
X109298523Y-57669667D01*
X109089318Y-57756322D01*
X109089303Y-57756329D01*
X108893193Y-57869553D01*
X108713537Y-58007408D01*
X108713530Y-58007414D01*
X108553414Y-58167530D01*
X108553408Y-58167537D01*
X108415553Y-58347193D01*
X108302329Y-58543303D01*
X108302322Y-58543318D01*
X108215667Y-58752523D01*
X108157059Y-58971255D01*
X108157056Y-58971268D01*
X108127501Y-59195764D01*
X108127500Y-59195780D01*
X104005500Y-59195780D01*
X104005500Y-57789875D01*
X104005882Y-57780146D01*
X104007756Y-57756329D01*
X104022026Y-57575009D01*
X104025068Y-57555803D01*
X104071965Y-57360464D01*
X104077971Y-57341979D01*
X104154848Y-57156380D01*
X104163681Y-57139047D01*
X104241195Y-57012558D01*
X104268637Y-56967776D01*
X104280073Y-56952037D01*
X104410531Y-56799290D01*
X104424290Y-56785531D01*
X104577037Y-56655073D01*
X104592778Y-56643636D01*
X104764050Y-56538679D01*
X104781380Y-56529848D01*
X104966979Y-56452971D01*
X104985464Y-56446965D01*
X105180803Y-56400068D01*
X105200009Y-56397026D01*
X105405146Y-56380881D01*
X105414875Y-56380500D01*
X105475892Y-56380500D01*
X152334108Y-56380500D01*
X152396754Y-56380500D01*
X152403243Y-56380669D01*
G37*
%TD.AperFunction*%
%TD*%
M02*
