%TF.GenerationSoftware,KiCad,Pcbnew,9.0.0*%
%TF.CreationDate,2025-03-28T21:12:20-05:00*%
%TF.ProjectId,ws-control-board,77732d63-6f6e-4747-926f-6c2d626f6172,rev?*%
%TF.SameCoordinates,Original*%
%TF.FileFunction,Legend,Top*%
%TF.FilePolarity,Positive*%
%FSLAX46Y46*%
G04 Gerber Fmt 4.6, Leading zero omitted, Abs format (unit mm)*
G04 Created by KiCad (PCBNEW 9.0.0) date 2025-03-28 21:12:20*
%MOMM*%
%LPD*%
G01*
G04 APERTURE LIST*
%ADD10C,0.100000*%
%ADD11C,0.152400*%
%ADD12C,0.158750*%
%ADD13C,0.127000*%
%ADD14C,0.150000*%
%ADD15C,0.120000*%
G04 APERTURE END LIST*
D10*
X185877200Y-112674400D02*
X176682400Y-121361200D01*
X185855000Y-88355000D02*
X185877200Y-112674400D01*
X153605000Y-121355000D02*
X176682400Y-121361200D01*
X153605000Y-88355000D02*
X153605000Y-121355000D01*
X153605000Y-88355000D02*
X185855000Y-88355000D01*
X157030000Y-115015000D02*
X172270000Y-115015000D01*
X172270000Y-120095000D01*
X157030000Y-120095000D01*
X157030000Y-115015000D01*
X122860000Y-59040000D02*
X149860000Y-59040000D01*
X149860000Y-73548000D01*
X122860000Y-73548000D01*
X122860000Y-59040000D01*
X160840000Y-117555000D02*
G75*
G02*
X158300000Y-117555000I-1270000J0D01*
G01*
X158300000Y-117555000D02*
G75*
G02*
X160840000Y-117555000I1270000J0D01*
G01*
X158300000Y-117555000D02*
X160840000Y-117555000D01*
X168460000Y-117555000D02*
X171000000Y-117555000D01*
X163380000Y-117555000D02*
X165920000Y-117555000D01*
X171000000Y-117555000D02*
G75*
G02*
X168460000Y-117555000I-1270000J0D01*
G01*
X168460000Y-117555000D02*
G75*
G02*
X171000000Y-117555000I1270000J0D01*
G01*
X165920000Y-117555000D02*
G75*
G02*
X163380000Y-117555000I-1270000J0D01*
G01*
X163380000Y-117555000D02*
G75*
G02*
X165920000Y-117555000I1270000J0D01*
G01*
D11*
X144474116Y-111209603D02*
X144534592Y-111149127D01*
X144534592Y-111149127D02*
X144655545Y-111088651D01*
X144655545Y-111088651D02*
X144957926Y-111088651D01*
X144957926Y-111088651D02*
X145078878Y-111149127D01*
X145078878Y-111149127D02*
X145139354Y-111209603D01*
X145139354Y-111209603D02*
X145199831Y-111330555D01*
X145199831Y-111330555D02*
X145199831Y-111451508D01*
X145199831Y-111451508D02*
X145139354Y-111632936D01*
X145139354Y-111632936D02*
X144413640Y-112358651D01*
X144413640Y-112358651D02*
X145199831Y-112358651D01*
D12*
X108870868Y-88736321D02*
X109173249Y-90006321D01*
X109173249Y-90006321D02*
X109415154Y-89099178D01*
X109415154Y-89099178D02*
X109657059Y-90006321D01*
X109657059Y-90006321D02*
X109959440Y-88736321D01*
X110261821Y-88736321D02*
X110987535Y-88736321D01*
X110624678Y-90006321D02*
X110624678Y-88736321D01*
X112136583Y-90006321D02*
X111713249Y-89401559D01*
X111410868Y-90006321D02*
X111410868Y-88736321D01*
X111410868Y-88736321D02*
X111894678Y-88736321D01*
X111894678Y-88736321D02*
X112015630Y-88796797D01*
X112015630Y-88796797D02*
X112076107Y-88857273D01*
X112076107Y-88857273D02*
X112136583Y-88978225D01*
X112136583Y-88978225D02*
X112136583Y-89159654D01*
X112136583Y-89159654D02*
X112076107Y-89280606D01*
X112076107Y-89280606D02*
X112015630Y-89341083D01*
X112015630Y-89341083D02*
X111894678Y-89401559D01*
X111894678Y-89401559D02*
X111410868Y-89401559D01*
X112680868Y-89522511D02*
X113648488Y-89522511D01*
X114192773Y-89945845D02*
X114374202Y-90006321D01*
X114374202Y-90006321D02*
X114676583Y-90006321D01*
X114676583Y-90006321D02*
X114797535Y-89945845D01*
X114797535Y-89945845D02*
X114858011Y-89885368D01*
X114858011Y-89885368D02*
X114918488Y-89764416D01*
X114918488Y-89764416D02*
X114918488Y-89643464D01*
X114918488Y-89643464D02*
X114858011Y-89522511D01*
X114858011Y-89522511D02*
X114797535Y-89462035D01*
X114797535Y-89462035D02*
X114676583Y-89401559D01*
X114676583Y-89401559D02*
X114434678Y-89341083D01*
X114434678Y-89341083D02*
X114313726Y-89280606D01*
X114313726Y-89280606D02*
X114253249Y-89220130D01*
X114253249Y-89220130D02*
X114192773Y-89099178D01*
X114192773Y-89099178D02*
X114192773Y-88978225D01*
X114192773Y-88978225D02*
X114253249Y-88857273D01*
X114253249Y-88857273D02*
X114313726Y-88796797D01*
X114313726Y-88796797D02*
X114434678Y-88736321D01*
X114434678Y-88736321D02*
X114737059Y-88736321D01*
X114737059Y-88736321D02*
X114918488Y-88796797D01*
X115462773Y-90006321D02*
X115462773Y-88736321D01*
X116732774Y-88796797D02*
X116611821Y-88736321D01*
X116611821Y-88736321D02*
X116430393Y-88736321D01*
X116430393Y-88736321D02*
X116248964Y-88796797D01*
X116248964Y-88796797D02*
X116128012Y-88917749D01*
X116128012Y-88917749D02*
X116067535Y-89038702D01*
X116067535Y-89038702D02*
X116007059Y-89280606D01*
X116007059Y-89280606D02*
X116007059Y-89462035D01*
X116007059Y-89462035D02*
X116067535Y-89703940D01*
X116067535Y-89703940D02*
X116128012Y-89824892D01*
X116128012Y-89824892D02*
X116248964Y-89945845D01*
X116248964Y-89945845D02*
X116430393Y-90006321D01*
X116430393Y-90006321D02*
X116551345Y-90006321D01*
X116551345Y-90006321D02*
X116732774Y-89945845D01*
X116732774Y-89945845D02*
X116793250Y-89885368D01*
X116793250Y-89885368D02*
X116793250Y-89462035D01*
X116793250Y-89462035D02*
X116551345Y-89462035D01*
X108991820Y-97626321D02*
X108991820Y-96356321D01*
X108991820Y-96356321D02*
X109475630Y-96356321D01*
X109475630Y-96356321D02*
X109596582Y-96416797D01*
X109596582Y-96416797D02*
X109657059Y-96477273D01*
X109657059Y-96477273D02*
X109717535Y-96598225D01*
X109717535Y-96598225D02*
X109717535Y-96779654D01*
X109717535Y-96779654D02*
X109657059Y-96900606D01*
X109657059Y-96900606D02*
X109596582Y-96961083D01*
X109596582Y-96961083D02*
X109475630Y-97021559D01*
X109475630Y-97021559D02*
X108991820Y-97021559D01*
X110261820Y-97626321D02*
X110261820Y-96356321D01*
X110261820Y-96961083D02*
X110987535Y-96961083D01*
X110987535Y-97626321D02*
X110987535Y-96356321D01*
X111410868Y-96356321D02*
X112136582Y-96356321D01*
X111773725Y-97626321D02*
X111773725Y-96356321D01*
X112801820Y-96356321D02*
X113043725Y-96356321D01*
X113043725Y-96356321D02*
X113164677Y-96416797D01*
X113164677Y-96416797D02*
X113285630Y-96537749D01*
X113285630Y-96537749D02*
X113346106Y-96779654D01*
X113346106Y-96779654D02*
X113346106Y-97202987D01*
X113346106Y-97202987D02*
X113285630Y-97444892D01*
X113285630Y-97444892D02*
X113164677Y-97565845D01*
X113164677Y-97565845D02*
X113043725Y-97626321D01*
X113043725Y-97626321D02*
X112801820Y-97626321D01*
X112801820Y-97626321D02*
X112680868Y-97565845D01*
X112680868Y-97565845D02*
X112559915Y-97444892D01*
X112559915Y-97444892D02*
X112499439Y-97202987D01*
X112499439Y-97202987D02*
X112499439Y-96779654D01*
X112499439Y-96779654D02*
X112559915Y-96537749D01*
X112559915Y-96537749D02*
X112680868Y-96416797D01*
X112680868Y-96416797D02*
X112801820Y-96356321D01*
X113890391Y-97142511D02*
X114858011Y-97142511D01*
D11*
X124281691Y-98388651D02*
X125067882Y-98388651D01*
X125067882Y-98388651D02*
X124644548Y-98872460D01*
X124644548Y-98872460D02*
X124825977Y-98872460D01*
X124825977Y-98872460D02*
X124946929Y-98932936D01*
X124946929Y-98932936D02*
X125007405Y-98993413D01*
X125007405Y-98993413D02*
X125067882Y-99114365D01*
X125067882Y-99114365D02*
X125067882Y-99416746D01*
X125067882Y-99416746D02*
X125007405Y-99537698D01*
X125007405Y-99537698D02*
X124946929Y-99598175D01*
X124946929Y-99598175D02*
X124825977Y-99658651D01*
X124825977Y-99658651D02*
X124463120Y-99658651D01*
X124463120Y-99658651D02*
X124342167Y-99598175D01*
X124342167Y-99598175D02*
X124281691Y-99537698D01*
X125491215Y-98388651D02*
X126277406Y-98388651D01*
X126277406Y-98388651D02*
X125854072Y-98872460D01*
X125854072Y-98872460D02*
X126035501Y-98872460D01*
X126035501Y-98872460D02*
X126156453Y-98932936D01*
X126156453Y-98932936D02*
X126216929Y-98993413D01*
X126216929Y-98993413D02*
X126277406Y-99114365D01*
X126277406Y-99114365D02*
X126277406Y-99416746D01*
X126277406Y-99416746D02*
X126216929Y-99537698D01*
X126216929Y-99537698D02*
X126156453Y-99598175D01*
X126156453Y-99598175D02*
X126035501Y-99658651D01*
X126035501Y-99658651D02*
X125672644Y-99658651D01*
X125672644Y-99658651D02*
X125551691Y-99598175D01*
X125551691Y-99598175D02*
X125491215Y-99537698D01*
X142176021Y-103468651D02*
X142901735Y-103468651D01*
X142538878Y-104738651D02*
X142538878Y-103468651D01*
X143204116Y-103468651D02*
X144050783Y-104738651D01*
X144050783Y-103468651D02*
X143204116Y-104738651D01*
X144474116Y-103589603D02*
X144534592Y-103529127D01*
X144534592Y-103529127D02*
X144655545Y-103468651D01*
X144655545Y-103468651D02*
X144957926Y-103468651D01*
X144957926Y-103468651D02*
X145078878Y-103529127D01*
X145078878Y-103529127D02*
X145139354Y-103589603D01*
X145139354Y-103589603D02*
X145199831Y-103710555D01*
X145199831Y-103710555D02*
X145199831Y-103831508D01*
X145199831Y-103831508D02*
X145139354Y-104012936D01*
X145139354Y-104012936D02*
X144413640Y-104738651D01*
X144413640Y-104738651D02*
X145199831Y-104738651D01*
X142538879Y-116229127D02*
X142417926Y-116168651D01*
X142417926Y-116168651D02*
X142236498Y-116168651D01*
X142236498Y-116168651D02*
X142055069Y-116229127D01*
X142055069Y-116229127D02*
X141934117Y-116350079D01*
X141934117Y-116350079D02*
X141873640Y-116471032D01*
X141873640Y-116471032D02*
X141813164Y-116712936D01*
X141813164Y-116712936D02*
X141813164Y-116894365D01*
X141813164Y-116894365D02*
X141873640Y-117136270D01*
X141873640Y-117136270D02*
X141934117Y-117257222D01*
X141934117Y-117257222D02*
X142055069Y-117378175D01*
X142055069Y-117378175D02*
X142236498Y-117438651D01*
X142236498Y-117438651D02*
X142357450Y-117438651D01*
X142357450Y-117438651D02*
X142538879Y-117378175D01*
X142538879Y-117378175D02*
X142599355Y-117317698D01*
X142599355Y-117317698D02*
X142599355Y-116894365D01*
X142599355Y-116894365D02*
X142357450Y-116894365D01*
X143143640Y-117438651D02*
X143143640Y-116168651D01*
X143143640Y-116168651D02*
X143869355Y-117438651D01*
X143869355Y-117438651D02*
X143869355Y-116168651D01*
X144474116Y-117438651D02*
X144474116Y-116168651D01*
X144474116Y-116168651D02*
X144776497Y-116168651D01*
X144776497Y-116168651D02*
X144957926Y-116229127D01*
X144957926Y-116229127D02*
X145078878Y-116350079D01*
X145078878Y-116350079D02*
X145139355Y-116471032D01*
X145139355Y-116471032D02*
X145199831Y-116712936D01*
X145199831Y-116712936D02*
X145199831Y-116894365D01*
X145199831Y-116894365D02*
X145139355Y-117136270D01*
X145139355Y-117136270D02*
X145078878Y-117257222D01*
X145078878Y-117257222D02*
X144957926Y-117378175D01*
X144957926Y-117378175D02*
X144776497Y-117438651D01*
X144776497Y-117438651D02*
X144474116Y-117438651D01*
X124342167Y-106129603D02*
X124402643Y-106069127D01*
X124402643Y-106069127D02*
X124523596Y-106008651D01*
X124523596Y-106008651D02*
X124825977Y-106008651D01*
X124825977Y-106008651D02*
X124946929Y-106069127D01*
X124946929Y-106069127D02*
X125007405Y-106129603D01*
X125007405Y-106129603D02*
X125067882Y-106250555D01*
X125067882Y-106250555D02*
X125067882Y-106371508D01*
X125067882Y-106371508D02*
X125007405Y-106552936D01*
X125007405Y-106552936D02*
X124281691Y-107278651D01*
X124281691Y-107278651D02*
X125067882Y-107278651D01*
X125491215Y-106008651D02*
X126337882Y-106008651D01*
X126337882Y-106008651D02*
X125793596Y-107278651D01*
D12*
X108810392Y-111342321D02*
X109233725Y-112612321D01*
X109233725Y-112612321D02*
X109657059Y-111342321D01*
X110080391Y-112612321D02*
X110080391Y-111342321D01*
X110685153Y-112612321D02*
X110685153Y-111342321D01*
X110685153Y-111342321D02*
X111410868Y-112612321D01*
X111410868Y-112612321D02*
X111410868Y-111342321D01*
D13*
X115911428Y-110329348D02*
X115911428Y-110996015D01*
X115673333Y-109948396D02*
X115435238Y-110662681D01*
X115435238Y-110662681D02*
X116054285Y-110662681D01*
X116435238Y-110900776D02*
X116482857Y-110948396D01*
X116482857Y-110948396D02*
X116435238Y-110996015D01*
X116435238Y-110996015D02*
X116387619Y-110948396D01*
X116387619Y-110948396D02*
X116435238Y-110900776D01*
X116435238Y-110900776D02*
X116435238Y-110996015D01*
X116816190Y-109996015D02*
X117482856Y-109996015D01*
X117482856Y-109996015D02*
X117054285Y-110996015D01*
X117863809Y-110996015D02*
X117863809Y-109996015D01*
X117959047Y-110615062D02*
X118244761Y-110996015D01*
X118244761Y-110329348D02*
X117863809Y-110710300D01*
D11*
X124221215Y-118708651D02*
X124644548Y-119978651D01*
X124644548Y-119978651D02*
X125067882Y-118708651D01*
X125491214Y-119978651D02*
X125491214Y-118708651D01*
X126095976Y-119978651D02*
X126095976Y-118708651D01*
X126095976Y-118708651D02*
X126821691Y-119978651D01*
X126821691Y-119978651D02*
X126821691Y-118708651D01*
X137601413Y-68812356D02*
X137601413Y-68389022D01*
X138266651Y-68207594D02*
X138266651Y-68812356D01*
X138266651Y-68812356D02*
X136996651Y-68812356D01*
X136996651Y-68812356D02*
X136996651Y-68207594D01*
X138206175Y-67723784D02*
X138266651Y-67542355D01*
X138266651Y-67542355D02*
X138266651Y-67239974D01*
X138266651Y-67239974D02*
X138206175Y-67119022D01*
X138206175Y-67119022D02*
X138145698Y-67058546D01*
X138145698Y-67058546D02*
X138024746Y-66998069D01*
X138024746Y-66998069D02*
X137903794Y-66998069D01*
X137903794Y-66998069D02*
X137782841Y-67058546D01*
X137782841Y-67058546D02*
X137722365Y-67119022D01*
X137722365Y-67119022D02*
X137661889Y-67239974D01*
X137661889Y-67239974D02*
X137601413Y-67481879D01*
X137601413Y-67481879D02*
X137540936Y-67602831D01*
X137540936Y-67602831D02*
X137480460Y-67663308D01*
X137480460Y-67663308D02*
X137359508Y-67723784D01*
X137359508Y-67723784D02*
X137238555Y-67723784D01*
X137238555Y-67723784D02*
X137117603Y-67663308D01*
X137117603Y-67663308D02*
X137057127Y-67602831D01*
X137057127Y-67602831D02*
X136996651Y-67481879D01*
X136996651Y-67481879D02*
X136996651Y-67179498D01*
X136996651Y-67179498D02*
X137057127Y-66998069D01*
X138266651Y-66453784D02*
X136996651Y-66453784D01*
X136996651Y-66453784D02*
X136996651Y-65969974D01*
X136996651Y-65969974D02*
X137057127Y-65849022D01*
X137057127Y-65849022D02*
X137117603Y-65788545D01*
X137117603Y-65788545D02*
X137238555Y-65728069D01*
X137238555Y-65728069D02*
X137419984Y-65728069D01*
X137419984Y-65728069D02*
X137540936Y-65788545D01*
X137540936Y-65788545D02*
X137601413Y-65849022D01*
X137601413Y-65849022D02*
X137661889Y-65969974D01*
X137661889Y-65969974D02*
X137661889Y-66453784D01*
X138266651Y-63490450D02*
X137661889Y-63913784D01*
X138266651Y-64216165D02*
X136996651Y-64216165D01*
X136996651Y-64216165D02*
X136996651Y-63732355D01*
X136996651Y-63732355D02*
X137057127Y-63611403D01*
X137057127Y-63611403D02*
X137117603Y-63550926D01*
X137117603Y-63550926D02*
X137238555Y-63490450D01*
X137238555Y-63490450D02*
X137419984Y-63490450D01*
X137419984Y-63490450D02*
X137540936Y-63550926D01*
X137540936Y-63550926D02*
X137601413Y-63611403D01*
X137601413Y-63611403D02*
X137661889Y-63732355D01*
X137661889Y-63732355D02*
X137661889Y-64216165D01*
X136996651Y-63067117D02*
X138266651Y-62220450D01*
X136996651Y-62220450D02*
X138266651Y-63067117D01*
X143990308Y-97118651D02*
X143264593Y-97118651D01*
X143627450Y-97118651D02*
X143627450Y-95848651D01*
X143627450Y-95848651D02*
X143506498Y-96030079D01*
X143506498Y-96030079D02*
X143385546Y-96151032D01*
X143385546Y-96151032D02*
X143264593Y-96211508D01*
X144595070Y-97118651D02*
X144836974Y-97118651D01*
X144836974Y-97118651D02*
X144957927Y-97058175D01*
X144957927Y-97058175D02*
X145018403Y-96997698D01*
X145018403Y-96997698D02*
X145139355Y-96816270D01*
X145139355Y-96816270D02*
X145199832Y-96574365D01*
X145199832Y-96574365D02*
X145199832Y-96090555D01*
X145199832Y-96090555D02*
X145139355Y-95969603D01*
X145139355Y-95969603D02*
X145078879Y-95909127D01*
X145078879Y-95909127D02*
X144957927Y-95848651D01*
X144957927Y-95848651D02*
X144716022Y-95848651D01*
X144716022Y-95848651D02*
X144595070Y-95909127D01*
X144595070Y-95909127D02*
X144534593Y-95969603D01*
X144534593Y-95969603D02*
X144474117Y-96090555D01*
X144474117Y-96090555D02*
X144474117Y-96392936D01*
X144474117Y-96392936D02*
X144534593Y-96513889D01*
X144534593Y-96513889D02*
X144595070Y-96574365D01*
X144595070Y-96574365D02*
X144716022Y-96634841D01*
X144716022Y-96634841D02*
X144957927Y-96634841D01*
X144957927Y-96634841D02*
X145078879Y-96574365D01*
X145078879Y-96574365D02*
X145139355Y-96513889D01*
X145139355Y-96513889D02*
X145199832Y-96392936D01*
X176859117Y-102773175D02*
X177040546Y-102833651D01*
X177040546Y-102833651D02*
X177342927Y-102833651D01*
X177342927Y-102833651D02*
X177463879Y-102773175D01*
X177463879Y-102773175D02*
X177524355Y-102712698D01*
X177524355Y-102712698D02*
X177584832Y-102591746D01*
X177584832Y-102591746D02*
X177584832Y-102470794D01*
X177584832Y-102470794D02*
X177524355Y-102349841D01*
X177524355Y-102349841D02*
X177463879Y-102289365D01*
X177463879Y-102289365D02*
X177342927Y-102228889D01*
X177342927Y-102228889D02*
X177101022Y-102168413D01*
X177101022Y-102168413D02*
X176980070Y-102107936D01*
X176980070Y-102107936D02*
X176919593Y-102047460D01*
X176919593Y-102047460D02*
X176859117Y-101926508D01*
X176859117Y-101926508D02*
X176859117Y-101805555D01*
X176859117Y-101805555D02*
X176919593Y-101684603D01*
X176919593Y-101684603D02*
X176980070Y-101624127D01*
X176980070Y-101624127D02*
X177101022Y-101563651D01*
X177101022Y-101563651D02*
X177403403Y-101563651D01*
X177403403Y-101563651D02*
X177584832Y-101624127D01*
X178854832Y-102712698D02*
X178794356Y-102773175D01*
X178794356Y-102773175D02*
X178612927Y-102833651D01*
X178612927Y-102833651D02*
X178491975Y-102833651D01*
X178491975Y-102833651D02*
X178310546Y-102773175D01*
X178310546Y-102773175D02*
X178189594Y-102652222D01*
X178189594Y-102652222D02*
X178129117Y-102531270D01*
X178129117Y-102531270D02*
X178068641Y-102289365D01*
X178068641Y-102289365D02*
X178068641Y-102107936D01*
X178068641Y-102107936D02*
X178129117Y-101866032D01*
X178129117Y-101866032D02*
X178189594Y-101745079D01*
X178189594Y-101745079D02*
X178310546Y-101624127D01*
X178310546Y-101624127D02*
X178491975Y-101563651D01*
X178491975Y-101563651D02*
X178612927Y-101563651D01*
X178612927Y-101563651D02*
X178794356Y-101624127D01*
X178794356Y-101624127D02*
X178854832Y-101684603D01*
X179399117Y-102833651D02*
X179399117Y-101563651D01*
X180124832Y-102833651D02*
X179580546Y-102107936D01*
X180124832Y-101563651D02*
X179399117Y-102289365D01*
X176072926Y-105246651D02*
X176072926Y-103976651D01*
X176072926Y-103976651D02*
X176496260Y-104883794D01*
X176496260Y-104883794D02*
X176919593Y-103976651D01*
X176919593Y-103976651D02*
X176919593Y-105246651D01*
X177766260Y-103976651D02*
X178008165Y-103976651D01*
X178008165Y-103976651D02*
X178129117Y-104037127D01*
X178129117Y-104037127D02*
X178250070Y-104158079D01*
X178250070Y-104158079D02*
X178310546Y-104399984D01*
X178310546Y-104399984D02*
X178310546Y-104823317D01*
X178310546Y-104823317D02*
X178250070Y-105065222D01*
X178250070Y-105065222D02*
X178129117Y-105186175D01*
X178129117Y-105186175D02*
X178008165Y-105246651D01*
X178008165Y-105246651D02*
X177766260Y-105246651D01*
X177766260Y-105246651D02*
X177645308Y-105186175D01*
X177645308Y-105186175D02*
X177524355Y-105065222D01*
X177524355Y-105065222D02*
X177463879Y-104823317D01*
X177463879Y-104823317D02*
X177463879Y-104399984D01*
X177463879Y-104399984D02*
X177524355Y-104158079D01*
X177524355Y-104158079D02*
X177645308Y-104037127D01*
X177645308Y-104037127D02*
X177766260Y-103976651D01*
X178794355Y-105186175D02*
X178975784Y-105246651D01*
X178975784Y-105246651D02*
X179278165Y-105246651D01*
X179278165Y-105246651D02*
X179399117Y-105186175D01*
X179399117Y-105186175D02*
X179459593Y-105125698D01*
X179459593Y-105125698D02*
X179520070Y-105004746D01*
X179520070Y-105004746D02*
X179520070Y-104883794D01*
X179520070Y-104883794D02*
X179459593Y-104762841D01*
X179459593Y-104762841D02*
X179399117Y-104702365D01*
X179399117Y-104702365D02*
X179278165Y-104641889D01*
X179278165Y-104641889D02*
X179036260Y-104581413D01*
X179036260Y-104581413D02*
X178915308Y-104520936D01*
X178915308Y-104520936D02*
X178854831Y-104460460D01*
X178854831Y-104460460D02*
X178794355Y-104339508D01*
X178794355Y-104339508D02*
X178794355Y-104218555D01*
X178794355Y-104218555D02*
X178854831Y-104097603D01*
X178854831Y-104097603D02*
X178915308Y-104037127D01*
X178915308Y-104037127D02*
X179036260Y-103976651D01*
X179036260Y-103976651D02*
X179338641Y-103976651D01*
X179338641Y-103976651D02*
X179520070Y-104037127D01*
X180064355Y-105246651D02*
X180064355Y-103976651D01*
D13*
X153182028Y-80087396D02*
X153324885Y-80135015D01*
X153324885Y-80135015D02*
X153562980Y-80135015D01*
X153562980Y-80135015D02*
X153658218Y-80087396D01*
X153658218Y-80087396D02*
X153705837Y-80039776D01*
X153705837Y-80039776D02*
X153753456Y-79944538D01*
X153753456Y-79944538D02*
X153753456Y-79849300D01*
X153753456Y-79849300D02*
X153705837Y-79754062D01*
X153705837Y-79754062D02*
X153658218Y-79706443D01*
X153658218Y-79706443D02*
X153562980Y-79658824D01*
X153562980Y-79658824D02*
X153372504Y-79611205D01*
X153372504Y-79611205D02*
X153277266Y-79563586D01*
X153277266Y-79563586D02*
X153229647Y-79515967D01*
X153229647Y-79515967D02*
X153182028Y-79420729D01*
X153182028Y-79420729D02*
X153182028Y-79325491D01*
X153182028Y-79325491D02*
X153229647Y-79230253D01*
X153229647Y-79230253D02*
X153277266Y-79182634D01*
X153277266Y-79182634D02*
X153372504Y-79135015D01*
X153372504Y-79135015D02*
X153610599Y-79135015D01*
X153610599Y-79135015D02*
X153753456Y-79182634D01*
X154039171Y-79135015D02*
X154610599Y-79135015D01*
X154324885Y-80135015D02*
X154324885Y-79135015D01*
X154896314Y-79849300D02*
X155372504Y-79849300D01*
X154801076Y-80135015D02*
X155134409Y-79135015D01*
X155134409Y-79135015D02*
X155467742Y-80135015D01*
X155658219Y-79135015D02*
X156229647Y-79135015D01*
X155943933Y-80135015D02*
X155943933Y-79135015D01*
D11*
X125067882Y-114898651D02*
X124342167Y-114898651D01*
X124705024Y-114898651D02*
X124705024Y-113628651D01*
X124705024Y-113628651D02*
X124584072Y-113810079D01*
X124584072Y-113810079D02*
X124463120Y-113931032D01*
X124463120Y-113931032D02*
X124342167Y-113991508D01*
X125491215Y-113628651D02*
X126277406Y-113628651D01*
X126277406Y-113628651D02*
X125854072Y-114112460D01*
X125854072Y-114112460D02*
X126035501Y-114112460D01*
X126035501Y-114112460D02*
X126156453Y-114172936D01*
X126156453Y-114172936D02*
X126216929Y-114233413D01*
X126216929Y-114233413D02*
X126277406Y-114354365D01*
X126277406Y-114354365D02*
X126277406Y-114656746D01*
X126277406Y-114656746D02*
X126216929Y-114777698D01*
X126216929Y-114777698D02*
X126156453Y-114838175D01*
X126156453Y-114838175D02*
X126035501Y-114898651D01*
X126035501Y-114898651D02*
X125672644Y-114898651D01*
X125672644Y-114898651D02*
X125551691Y-114838175D01*
X125551691Y-114838175D02*
X125491215Y-114777698D01*
X124402643Y-83671413D02*
X124825977Y-83671413D01*
X125007405Y-84336651D02*
X124402643Y-84336651D01*
X124402643Y-84336651D02*
X124402643Y-83066651D01*
X124402643Y-83066651D02*
X125007405Y-83066651D01*
X125551691Y-84336651D02*
X125551691Y-83066651D01*
X125551691Y-83066651D02*
X126277406Y-84336651D01*
X126277406Y-84336651D02*
X126277406Y-83066651D01*
X124281691Y-90768651D02*
X125067882Y-90768651D01*
X125067882Y-90768651D02*
X124644548Y-91252460D01*
X124644548Y-91252460D02*
X124825977Y-91252460D01*
X124825977Y-91252460D02*
X124946929Y-91312936D01*
X124946929Y-91312936D02*
X125007405Y-91373413D01*
X125007405Y-91373413D02*
X125067882Y-91494365D01*
X125067882Y-91494365D02*
X125067882Y-91796746D01*
X125067882Y-91796746D02*
X125007405Y-91917698D01*
X125007405Y-91917698D02*
X124946929Y-91978175D01*
X124946929Y-91978175D02*
X124825977Y-92038651D01*
X124825977Y-92038651D02*
X124463120Y-92038651D01*
X124463120Y-92038651D02*
X124342167Y-91978175D01*
X124342167Y-91978175D02*
X124281691Y-91917698D01*
X126156453Y-91191984D02*
X126156453Y-92038651D01*
X125854072Y-90708175D02*
X125551691Y-91615317D01*
X125551691Y-91615317D02*
X126337882Y-91615317D01*
X125067882Y-116229127D02*
X124946929Y-116168651D01*
X124946929Y-116168651D02*
X124765501Y-116168651D01*
X124765501Y-116168651D02*
X124584072Y-116229127D01*
X124584072Y-116229127D02*
X124463120Y-116350079D01*
X124463120Y-116350079D02*
X124402643Y-116471032D01*
X124402643Y-116471032D02*
X124342167Y-116712936D01*
X124342167Y-116712936D02*
X124342167Y-116894365D01*
X124342167Y-116894365D02*
X124402643Y-117136270D01*
X124402643Y-117136270D02*
X124463120Y-117257222D01*
X124463120Y-117257222D02*
X124584072Y-117378175D01*
X124584072Y-117378175D02*
X124765501Y-117438651D01*
X124765501Y-117438651D02*
X124886453Y-117438651D01*
X124886453Y-117438651D02*
X125067882Y-117378175D01*
X125067882Y-117378175D02*
X125128358Y-117317698D01*
X125128358Y-117317698D02*
X125128358Y-116894365D01*
X125128358Y-116894365D02*
X124886453Y-116894365D01*
X125672643Y-117438651D02*
X125672643Y-116168651D01*
X125672643Y-116168651D02*
X126398358Y-117438651D01*
X126398358Y-117438651D02*
X126398358Y-116168651D01*
X127003119Y-117438651D02*
X127003119Y-116168651D01*
X127003119Y-116168651D02*
X127305500Y-116168651D01*
X127305500Y-116168651D02*
X127486929Y-116229127D01*
X127486929Y-116229127D02*
X127607881Y-116350079D01*
X127607881Y-116350079D02*
X127668358Y-116471032D01*
X127668358Y-116471032D02*
X127728834Y-116712936D01*
X127728834Y-116712936D02*
X127728834Y-116894365D01*
X127728834Y-116894365D02*
X127668358Y-117136270D01*
X127668358Y-117136270D02*
X127607881Y-117257222D01*
X127607881Y-117257222D02*
X127486929Y-117378175D01*
X127486929Y-117378175D02*
X127305500Y-117438651D01*
X127305500Y-117438651D02*
X127003119Y-117438651D01*
X178068641Y-107913651D02*
X178068641Y-106643651D01*
X178068641Y-106643651D02*
X178794356Y-107913651D01*
X178794356Y-107913651D02*
X178794356Y-106643651D01*
X180124832Y-107792698D02*
X180064356Y-107853175D01*
X180064356Y-107853175D02*
X179882927Y-107913651D01*
X179882927Y-107913651D02*
X179761975Y-107913651D01*
X179761975Y-107913651D02*
X179580546Y-107853175D01*
X179580546Y-107853175D02*
X179459594Y-107732222D01*
X179459594Y-107732222D02*
X179399117Y-107611270D01*
X179399117Y-107611270D02*
X179338641Y-107369365D01*
X179338641Y-107369365D02*
X179338641Y-107187936D01*
X179338641Y-107187936D02*
X179399117Y-106946032D01*
X179399117Y-106946032D02*
X179459594Y-106825079D01*
X179459594Y-106825079D02*
X179580546Y-106704127D01*
X179580546Y-106704127D02*
X179761975Y-106643651D01*
X179761975Y-106643651D02*
X179882927Y-106643651D01*
X179882927Y-106643651D02*
X180064356Y-106704127D01*
X180064356Y-106704127D02*
X180124832Y-106764603D01*
X124281691Y-95848651D02*
X125067882Y-95848651D01*
X125067882Y-95848651D02*
X124644548Y-96332460D01*
X124644548Y-96332460D02*
X124825977Y-96332460D01*
X124825977Y-96332460D02*
X124946929Y-96392936D01*
X124946929Y-96392936D02*
X125007405Y-96453413D01*
X125007405Y-96453413D02*
X125067882Y-96574365D01*
X125067882Y-96574365D02*
X125067882Y-96876746D01*
X125067882Y-96876746D02*
X125007405Y-96997698D01*
X125007405Y-96997698D02*
X124946929Y-97058175D01*
X124946929Y-97058175D02*
X124825977Y-97118651D01*
X124825977Y-97118651D02*
X124463120Y-97118651D01*
X124463120Y-97118651D02*
X124342167Y-97058175D01*
X124342167Y-97058175D02*
X124281691Y-96997698D01*
X125551691Y-95969603D02*
X125612167Y-95909127D01*
X125612167Y-95909127D02*
X125733120Y-95848651D01*
X125733120Y-95848651D02*
X126035501Y-95848651D01*
X126035501Y-95848651D02*
X126156453Y-95909127D01*
X126156453Y-95909127D02*
X126216929Y-95969603D01*
X126216929Y-95969603D02*
X126277406Y-96090555D01*
X126277406Y-96090555D02*
X126277406Y-96211508D01*
X126277406Y-96211508D02*
X126216929Y-96392936D01*
X126216929Y-96392936D02*
X125491215Y-97118651D01*
X125491215Y-97118651D02*
X126277406Y-97118651D01*
D13*
X163850028Y-78468253D02*
X163897647Y-78420634D01*
X163897647Y-78420634D02*
X163992885Y-78373015D01*
X163992885Y-78373015D02*
X164230980Y-78373015D01*
X164230980Y-78373015D02*
X164326218Y-78420634D01*
X164326218Y-78420634D02*
X164373837Y-78468253D01*
X164373837Y-78468253D02*
X164421456Y-78563491D01*
X164421456Y-78563491D02*
X164421456Y-78658729D01*
X164421456Y-78658729D02*
X164373837Y-78801586D01*
X164373837Y-78801586D02*
X163802409Y-79373015D01*
X163802409Y-79373015D02*
X164421456Y-79373015D01*
X164802409Y-78468253D02*
X164850028Y-78420634D01*
X164850028Y-78420634D02*
X164945266Y-78373015D01*
X164945266Y-78373015D02*
X165183361Y-78373015D01*
X165183361Y-78373015D02*
X165278599Y-78420634D01*
X165278599Y-78420634D02*
X165326218Y-78468253D01*
X165326218Y-78468253D02*
X165373837Y-78563491D01*
X165373837Y-78563491D02*
X165373837Y-78658729D01*
X165373837Y-78658729D02*
X165326218Y-78801586D01*
X165326218Y-78801586D02*
X164754790Y-79373015D01*
X164754790Y-79373015D02*
X165373837Y-79373015D01*
X165992885Y-78373015D02*
X166088123Y-78373015D01*
X166088123Y-78373015D02*
X166183361Y-78420634D01*
X166183361Y-78420634D02*
X166230980Y-78468253D01*
X166230980Y-78468253D02*
X166278599Y-78563491D01*
X166278599Y-78563491D02*
X166326218Y-78753967D01*
X166326218Y-78753967D02*
X166326218Y-78992062D01*
X166326218Y-78992062D02*
X166278599Y-79182538D01*
X166278599Y-79182538D02*
X166230980Y-79277776D01*
X166230980Y-79277776D02*
X166183361Y-79325396D01*
X166183361Y-79325396D02*
X166088123Y-79373015D01*
X166088123Y-79373015D02*
X165992885Y-79373015D01*
X165992885Y-79373015D02*
X165897647Y-79325396D01*
X165897647Y-79325396D02*
X165850028Y-79277776D01*
X165850028Y-79277776D02*
X165802409Y-79182538D01*
X165802409Y-79182538D02*
X165754790Y-78992062D01*
X165754790Y-78992062D02*
X165754790Y-78753967D01*
X165754790Y-78753967D02*
X165802409Y-78563491D01*
X165802409Y-78563491D02*
X165850028Y-78468253D01*
X165850028Y-78468253D02*
X165897647Y-78420634D01*
X165897647Y-78420634D02*
X165992885Y-78373015D01*
D11*
X142780784Y-92038651D02*
X142357450Y-91433889D01*
X142055069Y-92038651D02*
X142055069Y-90768651D01*
X142055069Y-90768651D02*
X142538879Y-90768651D01*
X142538879Y-90768651D02*
X142659831Y-90829127D01*
X142659831Y-90829127D02*
X142720308Y-90889603D01*
X142720308Y-90889603D02*
X142780784Y-91010555D01*
X142780784Y-91010555D02*
X142780784Y-91191984D01*
X142780784Y-91191984D02*
X142720308Y-91312936D01*
X142720308Y-91312936D02*
X142659831Y-91373413D01*
X142659831Y-91373413D02*
X142538879Y-91433889D01*
X142538879Y-91433889D02*
X142055069Y-91433889D01*
X143204117Y-90768651D02*
X144050784Y-92038651D01*
X144050784Y-90768651D02*
X143204117Y-92038651D01*
X144776498Y-90768651D02*
X144897451Y-90768651D01*
X144897451Y-90768651D02*
X145018403Y-90829127D01*
X145018403Y-90829127D02*
X145078879Y-90889603D01*
X145078879Y-90889603D02*
X145139355Y-91010555D01*
X145139355Y-91010555D02*
X145199832Y-91252460D01*
X145199832Y-91252460D02*
X145199832Y-91554841D01*
X145199832Y-91554841D02*
X145139355Y-91796746D01*
X145139355Y-91796746D02*
X145078879Y-91917698D01*
X145078879Y-91917698D02*
X145018403Y-91978175D01*
X145018403Y-91978175D02*
X144897451Y-92038651D01*
X144897451Y-92038651D02*
X144776498Y-92038651D01*
X144776498Y-92038651D02*
X144655546Y-91978175D01*
X144655546Y-91978175D02*
X144595070Y-91917698D01*
X144595070Y-91917698D02*
X144534593Y-91796746D01*
X144534593Y-91796746D02*
X144474117Y-91554841D01*
X144474117Y-91554841D02*
X144474117Y-91252460D01*
X144474117Y-91252460D02*
X144534593Y-91010555D01*
X144534593Y-91010555D02*
X144595070Y-90889603D01*
X144595070Y-90889603D02*
X144655546Y-90829127D01*
X144655546Y-90829127D02*
X144776498Y-90768651D01*
D13*
X157499980Y-91422205D02*
X157642837Y-91469824D01*
X157642837Y-91469824D02*
X157690456Y-91517443D01*
X157690456Y-91517443D02*
X157738075Y-91612681D01*
X157738075Y-91612681D02*
X157738075Y-91755538D01*
X157738075Y-91755538D02*
X157690456Y-91850776D01*
X157690456Y-91850776D02*
X157642837Y-91898396D01*
X157642837Y-91898396D02*
X157547599Y-91946015D01*
X157547599Y-91946015D02*
X157166647Y-91946015D01*
X157166647Y-91946015D02*
X157166647Y-90946015D01*
X157166647Y-90946015D02*
X157499980Y-90946015D01*
X157499980Y-90946015D02*
X157595218Y-90993634D01*
X157595218Y-90993634D02*
X157642837Y-91041253D01*
X157642837Y-91041253D02*
X157690456Y-91136491D01*
X157690456Y-91136491D02*
X157690456Y-91231729D01*
X157690456Y-91231729D02*
X157642837Y-91326967D01*
X157642837Y-91326967D02*
X157595218Y-91374586D01*
X157595218Y-91374586D02*
X157499980Y-91422205D01*
X157499980Y-91422205D02*
X157166647Y-91422205D01*
X158166647Y-90946015D02*
X158166647Y-91755538D01*
X158166647Y-91755538D02*
X158214266Y-91850776D01*
X158214266Y-91850776D02*
X158261885Y-91898396D01*
X158261885Y-91898396D02*
X158357123Y-91946015D01*
X158357123Y-91946015D02*
X158547599Y-91946015D01*
X158547599Y-91946015D02*
X158642837Y-91898396D01*
X158642837Y-91898396D02*
X158690456Y-91850776D01*
X158690456Y-91850776D02*
X158738075Y-91755538D01*
X158738075Y-91755538D02*
X158738075Y-90946015D01*
X159214266Y-91565062D02*
X159976171Y-91565062D01*
X160357123Y-90946015D02*
X160595218Y-91946015D01*
X160595218Y-91946015D02*
X160785694Y-91231729D01*
X160785694Y-91231729D02*
X160976170Y-91946015D01*
X160976170Y-91946015D02*
X161214266Y-90946015D01*
X161547599Y-91898396D02*
X161690456Y-91946015D01*
X161690456Y-91946015D02*
X161928551Y-91946015D01*
X161928551Y-91946015D02*
X162023789Y-91898396D01*
X162023789Y-91898396D02*
X162071408Y-91850776D01*
X162071408Y-91850776D02*
X162119027Y-91755538D01*
X162119027Y-91755538D02*
X162119027Y-91660300D01*
X162119027Y-91660300D02*
X162071408Y-91565062D01*
X162071408Y-91565062D02*
X162023789Y-91517443D01*
X162023789Y-91517443D02*
X161928551Y-91469824D01*
X161928551Y-91469824D02*
X161738075Y-91422205D01*
X161738075Y-91422205D02*
X161642837Y-91374586D01*
X161642837Y-91374586D02*
X161595218Y-91326967D01*
X161595218Y-91326967D02*
X161547599Y-91231729D01*
X161547599Y-91231729D02*
X161547599Y-91136491D01*
X161547599Y-91136491D02*
X161595218Y-91041253D01*
X161595218Y-91041253D02*
X161642837Y-90993634D01*
X161642837Y-90993634D02*
X161738075Y-90946015D01*
X161738075Y-90946015D02*
X161976170Y-90946015D01*
X161976170Y-90946015D02*
X162119027Y-90993634D01*
X162547599Y-91565062D02*
X163309504Y-91565062D01*
X164357122Y-91946015D02*
X164023789Y-91469824D01*
X163785694Y-91946015D02*
X163785694Y-90946015D01*
X163785694Y-90946015D02*
X164166646Y-90946015D01*
X164166646Y-90946015D02*
X164261884Y-90993634D01*
X164261884Y-90993634D02*
X164309503Y-91041253D01*
X164309503Y-91041253D02*
X164357122Y-91136491D01*
X164357122Y-91136491D02*
X164357122Y-91279348D01*
X164357122Y-91279348D02*
X164309503Y-91374586D01*
X164309503Y-91374586D02*
X164261884Y-91422205D01*
X164261884Y-91422205D02*
X164166646Y-91469824D01*
X164166646Y-91469824D02*
X163785694Y-91469824D01*
X164642837Y-90946015D02*
X165214265Y-90946015D01*
X164928551Y-91946015D02*
X164928551Y-90946015D01*
X165547599Y-91946015D02*
X165547599Y-90946015D01*
X165547599Y-90946015D02*
X165785694Y-90946015D01*
X165785694Y-90946015D02*
X165928551Y-90993634D01*
X165928551Y-90993634D02*
X166023789Y-91088872D01*
X166023789Y-91088872D02*
X166071408Y-91184110D01*
X166071408Y-91184110D02*
X166119027Y-91374586D01*
X166119027Y-91374586D02*
X166119027Y-91517443D01*
X166119027Y-91517443D02*
X166071408Y-91707919D01*
X166071408Y-91707919D02*
X166023789Y-91803157D01*
X166023789Y-91803157D02*
X165928551Y-91898396D01*
X165928551Y-91898396D02*
X165785694Y-91946015D01*
X165785694Y-91946015D02*
X165547599Y-91946015D01*
X166547599Y-91565062D02*
X167309504Y-91565062D01*
X168119027Y-91422205D02*
X168261884Y-91469824D01*
X168261884Y-91469824D02*
X168309503Y-91517443D01*
X168309503Y-91517443D02*
X168357122Y-91612681D01*
X168357122Y-91612681D02*
X168357122Y-91755538D01*
X168357122Y-91755538D02*
X168309503Y-91850776D01*
X168309503Y-91850776D02*
X168261884Y-91898396D01*
X168261884Y-91898396D02*
X168166646Y-91946015D01*
X168166646Y-91946015D02*
X167785694Y-91946015D01*
X167785694Y-91946015D02*
X167785694Y-90946015D01*
X167785694Y-90946015D02*
X168119027Y-90946015D01*
X168119027Y-90946015D02*
X168214265Y-90993634D01*
X168214265Y-90993634D02*
X168261884Y-91041253D01*
X168261884Y-91041253D02*
X168309503Y-91136491D01*
X168309503Y-91136491D02*
X168309503Y-91231729D01*
X168309503Y-91231729D02*
X168261884Y-91326967D01*
X168261884Y-91326967D02*
X168214265Y-91374586D01*
X168214265Y-91374586D02*
X168119027Y-91422205D01*
X168119027Y-91422205D02*
X167785694Y-91422205D01*
X169357122Y-91946015D02*
X169023789Y-91469824D01*
X168785694Y-91946015D02*
X168785694Y-90946015D01*
X168785694Y-90946015D02*
X169166646Y-90946015D01*
X169166646Y-90946015D02*
X169261884Y-90993634D01*
X169261884Y-90993634D02*
X169309503Y-91041253D01*
X169309503Y-91041253D02*
X169357122Y-91136491D01*
X169357122Y-91136491D02*
X169357122Y-91279348D01*
X169357122Y-91279348D02*
X169309503Y-91374586D01*
X169309503Y-91374586D02*
X169261884Y-91422205D01*
X169261884Y-91422205D02*
X169166646Y-91469824D01*
X169166646Y-91469824D02*
X168785694Y-91469824D01*
X169785694Y-91946015D02*
X169785694Y-90946015D01*
X169785694Y-90946015D02*
X170023789Y-90946015D01*
X170023789Y-90946015D02*
X170166646Y-90993634D01*
X170166646Y-90993634D02*
X170261884Y-91088872D01*
X170261884Y-91088872D02*
X170309503Y-91184110D01*
X170309503Y-91184110D02*
X170357122Y-91374586D01*
X170357122Y-91374586D02*
X170357122Y-91517443D01*
X170357122Y-91517443D02*
X170309503Y-91707919D01*
X170309503Y-91707919D02*
X170261884Y-91803157D01*
X170261884Y-91803157D02*
X170166646Y-91898396D01*
X170166646Y-91898396D02*
X170023789Y-91946015D01*
X170023789Y-91946015D02*
X169785694Y-91946015D01*
D11*
X124342167Y-101049603D02*
X124402643Y-100989127D01*
X124402643Y-100989127D02*
X124523596Y-100928651D01*
X124523596Y-100928651D02*
X124825977Y-100928651D01*
X124825977Y-100928651D02*
X124946929Y-100989127D01*
X124946929Y-100989127D02*
X125007405Y-101049603D01*
X125007405Y-101049603D02*
X125067882Y-101170555D01*
X125067882Y-101170555D02*
X125067882Y-101291508D01*
X125067882Y-101291508D02*
X125007405Y-101472936D01*
X125007405Y-101472936D02*
X124281691Y-102198651D01*
X124281691Y-102198651D02*
X125067882Y-102198651D01*
X126216929Y-100928651D02*
X125612167Y-100928651D01*
X125612167Y-100928651D02*
X125551691Y-101533413D01*
X125551691Y-101533413D02*
X125612167Y-101472936D01*
X125612167Y-101472936D02*
X125733120Y-101412460D01*
X125733120Y-101412460D02*
X126035501Y-101412460D01*
X126035501Y-101412460D02*
X126156453Y-101472936D01*
X126156453Y-101472936D02*
X126216929Y-101533413D01*
X126216929Y-101533413D02*
X126277406Y-101654365D01*
X126277406Y-101654365D02*
X126277406Y-101956746D01*
X126277406Y-101956746D02*
X126216929Y-102077698D01*
X126216929Y-102077698D02*
X126156453Y-102138175D01*
X126156453Y-102138175D02*
X126035501Y-102198651D01*
X126035501Y-102198651D02*
X125733120Y-102198651D01*
X125733120Y-102198651D02*
X125612167Y-102138175D01*
X125612167Y-102138175D02*
X125551691Y-102077698D01*
X124221215Y-85566651D02*
X124644548Y-86836651D01*
X124644548Y-86836651D02*
X125067882Y-85566651D01*
X125491214Y-86836651D02*
X125491214Y-85566651D01*
X125491214Y-85566651D02*
X125975024Y-85566651D01*
X125975024Y-85566651D02*
X126095976Y-85627127D01*
X126095976Y-85627127D02*
X126156453Y-85687603D01*
X126156453Y-85687603D02*
X126216929Y-85808555D01*
X126216929Y-85808555D02*
X126216929Y-85989984D01*
X126216929Y-85989984D02*
X126156453Y-86110936D01*
X126156453Y-86110936D02*
X126095976Y-86171413D01*
X126095976Y-86171413D02*
X125975024Y-86231889D01*
X125975024Y-86231889D02*
X125491214Y-86231889D01*
D12*
X108931344Y-71022845D02*
X109112773Y-71083321D01*
X109112773Y-71083321D02*
X109415154Y-71083321D01*
X109415154Y-71083321D02*
X109536106Y-71022845D01*
X109536106Y-71022845D02*
X109596582Y-70962368D01*
X109596582Y-70962368D02*
X109657059Y-70841416D01*
X109657059Y-70841416D02*
X109657059Y-70720464D01*
X109657059Y-70720464D02*
X109596582Y-70599511D01*
X109596582Y-70599511D02*
X109536106Y-70539035D01*
X109536106Y-70539035D02*
X109415154Y-70478559D01*
X109415154Y-70478559D02*
X109173249Y-70418083D01*
X109173249Y-70418083D02*
X109052297Y-70357606D01*
X109052297Y-70357606D02*
X108991820Y-70297130D01*
X108991820Y-70297130D02*
X108931344Y-70176178D01*
X108931344Y-70176178D02*
X108931344Y-70055225D01*
X108931344Y-70055225D02*
X108991820Y-69934273D01*
X108991820Y-69934273D02*
X109052297Y-69873797D01*
X109052297Y-69873797D02*
X109173249Y-69813321D01*
X109173249Y-69813321D02*
X109475630Y-69813321D01*
X109475630Y-69813321D02*
X109657059Y-69873797D01*
X110927059Y-70962368D02*
X110866583Y-71022845D01*
X110866583Y-71022845D02*
X110685154Y-71083321D01*
X110685154Y-71083321D02*
X110564202Y-71083321D01*
X110564202Y-71083321D02*
X110382773Y-71022845D01*
X110382773Y-71022845D02*
X110261821Y-70901892D01*
X110261821Y-70901892D02*
X110201344Y-70780940D01*
X110201344Y-70780940D02*
X110140868Y-70539035D01*
X110140868Y-70539035D02*
X110140868Y-70357606D01*
X110140868Y-70357606D02*
X110201344Y-70115702D01*
X110201344Y-70115702D02*
X110261821Y-69994749D01*
X110261821Y-69994749D02*
X110382773Y-69873797D01*
X110382773Y-69873797D02*
X110564202Y-69813321D01*
X110564202Y-69813321D02*
X110685154Y-69813321D01*
X110685154Y-69813321D02*
X110866583Y-69873797D01*
X110866583Y-69873797D02*
X110927059Y-69934273D01*
X111471344Y-71083321D02*
X111471344Y-69813321D01*
X112197059Y-71083321D02*
X111652773Y-70357606D01*
X112197059Y-69813321D02*
X111471344Y-70539035D01*
D11*
X133059651Y-68939356D02*
X131789651Y-68939356D01*
X131789651Y-68939356D02*
X133059651Y-68213641D01*
X133059651Y-68213641D02*
X131789651Y-68213641D01*
X132938698Y-66883165D02*
X132999175Y-66943641D01*
X132999175Y-66943641D02*
X133059651Y-67125070D01*
X133059651Y-67125070D02*
X133059651Y-67246022D01*
X133059651Y-67246022D02*
X132999175Y-67427451D01*
X132999175Y-67427451D02*
X132878222Y-67548403D01*
X132878222Y-67548403D02*
X132757270Y-67608880D01*
X132757270Y-67608880D02*
X132515365Y-67669356D01*
X132515365Y-67669356D02*
X132333936Y-67669356D01*
X132333936Y-67669356D02*
X132092032Y-67608880D01*
X132092032Y-67608880D02*
X131971079Y-67548403D01*
X131971079Y-67548403D02*
X131850127Y-67427451D01*
X131850127Y-67427451D02*
X131789651Y-67246022D01*
X131789651Y-67246022D02*
X131789651Y-67125070D01*
X131789651Y-67125070D02*
X131850127Y-66943641D01*
X131850127Y-66943641D02*
X131910603Y-66883165D01*
X142115545Y-118708651D02*
X142901736Y-118708651D01*
X142901736Y-118708651D02*
X142478402Y-119192460D01*
X142478402Y-119192460D02*
X142659831Y-119192460D01*
X142659831Y-119192460D02*
X142780783Y-119252936D01*
X142780783Y-119252936D02*
X142841259Y-119313413D01*
X142841259Y-119313413D02*
X142901736Y-119434365D01*
X142901736Y-119434365D02*
X142901736Y-119736746D01*
X142901736Y-119736746D02*
X142841259Y-119857698D01*
X142841259Y-119857698D02*
X142780783Y-119918175D01*
X142780783Y-119918175D02*
X142659831Y-119978651D01*
X142659831Y-119978651D02*
X142296974Y-119978651D01*
X142296974Y-119978651D02*
X142176021Y-119918175D01*
X142176021Y-119918175D02*
X142115545Y-119857698D01*
X143264593Y-118708651D02*
X143687926Y-119978651D01*
X143687926Y-119978651D02*
X144111260Y-118708651D01*
X144413640Y-118708651D02*
X145199831Y-118708651D01*
X145199831Y-118708651D02*
X144776497Y-119192460D01*
X144776497Y-119192460D02*
X144957926Y-119192460D01*
X144957926Y-119192460D02*
X145078878Y-119252936D01*
X145078878Y-119252936D02*
X145139354Y-119313413D01*
X145139354Y-119313413D02*
X145199831Y-119434365D01*
X145199831Y-119434365D02*
X145199831Y-119736746D01*
X145199831Y-119736746D02*
X145139354Y-119857698D01*
X145139354Y-119857698D02*
X145078878Y-119918175D01*
X145078878Y-119918175D02*
X144957926Y-119978651D01*
X144957926Y-119978651D02*
X144595069Y-119978651D01*
X144595069Y-119978651D02*
X144474116Y-119918175D01*
X144474116Y-119918175D02*
X144413640Y-119857698D01*
X124281691Y-93308651D02*
X125067882Y-93308651D01*
X125067882Y-93308651D02*
X124644548Y-93792460D01*
X124644548Y-93792460D02*
X124825977Y-93792460D01*
X124825977Y-93792460D02*
X124946929Y-93852936D01*
X124946929Y-93852936D02*
X125007405Y-93913413D01*
X125007405Y-93913413D02*
X125067882Y-94034365D01*
X125067882Y-94034365D02*
X125067882Y-94336746D01*
X125067882Y-94336746D02*
X125007405Y-94457698D01*
X125007405Y-94457698D02*
X124946929Y-94518175D01*
X124946929Y-94518175D02*
X124825977Y-94578651D01*
X124825977Y-94578651D02*
X124463120Y-94578651D01*
X124463120Y-94578651D02*
X124342167Y-94518175D01*
X124342167Y-94518175D02*
X124281691Y-94457698D01*
X126216929Y-93308651D02*
X125612167Y-93308651D01*
X125612167Y-93308651D02*
X125551691Y-93913413D01*
X125551691Y-93913413D02*
X125612167Y-93852936D01*
X125612167Y-93852936D02*
X125733120Y-93792460D01*
X125733120Y-93792460D02*
X126035501Y-93792460D01*
X126035501Y-93792460D02*
X126156453Y-93852936D01*
X126156453Y-93852936D02*
X126216929Y-93913413D01*
X126216929Y-93913413D02*
X126277406Y-94034365D01*
X126277406Y-94034365D02*
X126277406Y-94336746D01*
X126277406Y-94336746D02*
X126216929Y-94457698D01*
X126216929Y-94457698D02*
X126156453Y-94518175D01*
X126156453Y-94518175D02*
X126035501Y-94578651D01*
X126035501Y-94578651D02*
X125733120Y-94578651D01*
X125733120Y-94578651D02*
X125612167Y-94518175D01*
X125612167Y-94518175D02*
X125551691Y-94457698D01*
X124221215Y-88228651D02*
X124644548Y-89498651D01*
X124644548Y-89498651D02*
X125067882Y-88228651D01*
X125491214Y-89498651D02*
X125491214Y-88228651D01*
X125491214Y-88228651D02*
X126216929Y-89498651D01*
X126216929Y-89498651D02*
X126216929Y-88228651D01*
X178915308Y-100045698D02*
X178854832Y-100106175D01*
X178854832Y-100106175D02*
X178673403Y-100166651D01*
X178673403Y-100166651D02*
X178552451Y-100166651D01*
X178552451Y-100166651D02*
X178371022Y-100106175D01*
X178371022Y-100106175D02*
X178250070Y-99985222D01*
X178250070Y-99985222D02*
X178189593Y-99864270D01*
X178189593Y-99864270D02*
X178129117Y-99622365D01*
X178129117Y-99622365D02*
X178129117Y-99440936D01*
X178129117Y-99440936D02*
X178189593Y-99199032D01*
X178189593Y-99199032D02*
X178250070Y-99078079D01*
X178250070Y-99078079D02*
X178371022Y-98957127D01*
X178371022Y-98957127D02*
X178552451Y-98896651D01*
X178552451Y-98896651D02*
X178673403Y-98896651D01*
X178673403Y-98896651D02*
X178854832Y-98957127D01*
X178854832Y-98957127D02*
X178915308Y-99017603D01*
X179399117Y-100106175D02*
X179580546Y-100166651D01*
X179580546Y-100166651D02*
X179882927Y-100166651D01*
X179882927Y-100166651D02*
X180003879Y-100106175D01*
X180003879Y-100106175D02*
X180064355Y-100045698D01*
X180064355Y-100045698D02*
X180124832Y-99924746D01*
X180124832Y-99924746D02*
X180124832Y-99803794D01*
X180124832Y-99803794D02*
X180064355Y-99682841D01*
X180064355Y-99682841D02*
X180003879Y-99622365D01*
X180003879Y-99622365D02*
X179882927Y-99561889D01*
X179882927Y-99561889D02*
X179641022Y-99501413D01*
X179641022Y-99501413D02*
X179520070Y-99440936D01*
X179520070Y-99440936D02*
X179459593Y-99380460D01*
X179459593Y-99380460D02*
X179399117Y-99259508D01*
X179399117Y-99259508D02*
X179399117Y-99138555D01*
X179399117Y-99138555D02*
X179459593Y-99017603D01*
X179459593Y-99017603D02*
X179520070Y-98957127D01*
X179520070Y-98957127D02*
X179641022Y-98896651D01*
X179641022Y-98896651D02*
X179943403Y-98896651D01*
X179943403Y-98896651D02*
X180124832Y-98957127D01*
D12*
X109657059Y-113942797D02*
X109536106Y-113882321D01*
X109536106Y-113882321D02*
X109354678Y-113882321D01*
X109354678Y-113882321D02*
X109173249Y-113942797D01*
X109173249Y-113942797D02*
X109052297Y-114063749D01*
X109052297Y-114063749D02*
X108991820Y-114184702D01*
X108991820Y-114184702D02*
X108931344Y-114426606D01*
X108931344Y-114426606D02*
X108931344Y-114608035D01*
X108931344Y-114608035D02*
X108991820Y-114849940D01*
X108991820Y-114849940D02*
X109052297Y-114970892D01*
X109052297Y-114970892D02*
X109173249Y-115091845D01*
X109173249Y-115091845D02*
X109354678Y-115152321D01*
X109354678Y-115152321D02*
X109475630Y-115152321D01*
X109475630Y-115152321D02*
X109657059Y-115091845D01*
X109657059Y-115091845D02*
X109717535Y-115031368D01*
X109717535Y-115031368D02*
X109717535Y-114608035D01*
X109717535Y-114608035D02*
X109475630Y-114608035D01*
X110261820Y-115152321D02*
X110261820Y-113882321D01*
X110261820Y-113882321D02*
X110987535Y-115152321D01*
X110987535Y-115152321D02*
X110987535Y-113882321D01*
X111592296Y-115152321D02*
X111592296Y-113882321D01*
X111592296Y-113882321D02*
X111894677Y-113882321D01*
X111894677Y-113882321D02*
X112076106Y-113942797D01*
X112076106Y-113942797D02*
X112197058Y-114063749D01*
X112197058Y-114063749D02*
X112257535Y-114184702D01*
X112257535Y-114184702D02*
X112318011Y-114426606D01*
X112318011Y-114426606D02*
X112318011Y-114608035D01*
X112318011Y-114608035D02*
X112257535Y-114849940D01*
X112257535Y-114849940D02*
X112197058Y-114970892D01*
X112197058Y-114970892D02*
X112076106Y-115091845D01*
X112076106Y-115091845D02*
X111894677Y-115152321D01*
X111894677Y-115152321D02*
X111592296Y-115152321D01*
D11*
X145078878Y-108971984D02*
X145078878Y-109818651D01*
X144776497Y-108488175D02*
X144474116Y-109395317D01*
X144474116Y-109395317D02*
X145260307Y-109395317D01*
X142176022Y-88228651D02*
X142901736Y-88228651D01*
X142538879Y-89498651D02*
X142538879Y-88228651D01*
X143204117Y-88228651D02*
X144050784Y-89498651D01*
X144050784Y-88228651D02*
X143204117Y-89498651D01*
X144776498Y-88228651D02*
X144897451Y-88228651D01*
X144897451Y-88228651D02*
X145018403Y-88289127D01*
X145018403Y-88289127D02*
X145078879Y-88349603D01*
X145078879Y-88349603D02*
X145139355Y-88470555D01*
X145139355Y-88470555D02*
X145199832Y-88712460D01*
X145199832Y-88712460D02*
X145199832Y-89014841D01*
X145199832Y-89014841D02*
X145139355Y-89256746D01*
X145139355Y-89256746D02*
X145078879Y-89377698D01*
X145078879Y-89377698D02*
X145018403Y-89438175D01*
X145018403Y-89438175D02*
X144897451Y-89498651D01*
X144897451Y-89498651D02*
X144776498Y-89498651D01*
X144776498Y-89498651D02*
X144655546Y-89438175D01*
X144655546Y-89438175D02*
X144595070Y-89377698D01*
X144595070Y-89377698D02*
X144534593Y-89256746D01*
X144534593Y-89256746D02*
X144474117Y-89014841D01*
X144474117Y-89014841D02*
X144474117Y-88712460D01*
X144474117Y-88712460D02*
X144534593Y-88470555D01*
X144534593Y-88470555D02*
X144595070Y-88349603D01*
X144595070Y-88349603D02*
X144655546Y-88289127D01*
X144655546Y-88289127D02*
X144776498Y-88228651D01*
X125067882Y-109818651D02*
X124342167Y-109818651D01*
X124705024Y-109818651D02*
X124705024Y-108548651D01*
X124705024Y-108548651D02*
X124584072Y-108730079D01*
X124584072Y-108730079D02*
X124463120Y-108851032D01*
X124463120Y-108851032D02*
X124342167Y-108911508D01*
X126156453Y-108971984D02*
X126156453Y-109818651D01*
X125854072Y-108488175D02*
X125551691Y-109395317D01*
X125551691Y-109395317D02*
X126337882Y-109395317D01*
X177463880Y-109117127D02*
X177342927Y-109056651D01*
X177342927Y-109056651D02*
X177161499Y-109056651D01*
X177161499Y-109056651D02*
X176980070Y-109117127D01*
X176980070Y-109117127D02*
X176859118Y-109238079D01*
X176859118Y-109238079D02*
X176798641Y-109359032D01*
X176798641Y-109359032D02*
X176738165Y-109600936D01*
X176738165Y-109600936D02*
X176738165Y-109782365D01*
X176738165Y-109782365D02*
X176798641Y-110024270D01*
X176798641Y-110024270D02*
X176859118Y-110145222D01*
X176859118Y-110145222D02*
X176980070Y-110266175D01*
X176980070Y-110266175D02*
X177161499Y-110326651D01*
X177161499Y-110326651D02*
X177282451Y-110326651D01*
X177282451Y-110326651D02*
X177463880Y-110266175D01*
X177463880Y-110266175D02*
X177524356Y-110205698D01*
X177524356Y-110205698D02*
X177524356Y-109782365D01*
X177524356Y-109782365D02*
X177282451Y-109782365D01*
X178068641Y-110326651D02*
X178068641Y-109056651D01*
X178068641Y-109056651D02*
X178794356Y-110326651D01*
X178794356Y-110326651D02*
X178794356Y-109056651D01*
X179399117Y-110326651D02*
X179399117Y-109056651D01*
X179399117Y-109056651D02*
X179701498Y-109056651D01*
X179701498Y-109056651D02*
X179882927Y-109117127D01*
X179882927Y-109117127D02*
X180003879Y-109238079D01*
X180003879Y-109238079D02*
X180064356Y-109359032D01*
X180064356Y-109359032D02*
X180124832Y-109600936D01*
X180124832Y-109600936D02*
X180124832Y-109782365D01*
X180124832Y-109782365D02*
X180064356Y-110024270D01*
X180064356Y-110024270D02*
X180003879Y-110145222D01*
X180003879Y-110145222D02*
X179882927Y-110266175D01*
X179882927Y-110266175D02*
X179701498Y-110326651D01*
X179701498Y-110326651D02*
X179399117Y-110326651D01*
D12*
X109717535Y-79217368D02*
X109657059Y-79277845D01*
X109657059Y-79277845D02*
X109475630Y-79338321D01*
X109475630Y-79338321D02*
X109354678Y-79338321D01*
X109354678Y-79338321D02*
X109173249Y-79277845D01*
X109173249Y-79277845D02*
X109052297Y-79156892D01*
X109052297Y-79156892D02*
X108991820Y-79035940D01*
X108991820Y-79035940D02*
X108931344Y-78794035D01*
X108931344Y-78794035D02*
X108931344Y-78612606D01*
X108931344Y-78612606D02*
X108991820Y-78370702D01*
X108991820Y-78370702D02*
X109052297Y-78249749D01*
X109052297Y-78249749D02*
X109173249Y-78128797D01*
X109173249Y-78128797D02*
X109354678Y-78068321D01*
X109354678Y-78068321D02*
X109475630Y-78068321D01*
X109475630Y-78068321D02*
X109657059Y-78128797D01*
X109657059Y-78128797D02*
X109717535Y-78189273D01*
X110201344Y-79277845D02*
X110382773Y-79338321D01*
X110382773Y-79338321D02*
X110685154Y-79338321D01*
X110685154Y-79338321D02*
X110806106Y-79277845D01*
X110806106Y-79277845D02*
X110866582Y-79217368D01*
X110866582Y-79217368D02*
X110927059Y-79096416D01*
X110927059Y-79096416D02*
X110927059Y-78975464D01*
X110927059Y-78975464D02*
X110866582Y-78854511D01*
X110866582Y-78854511D02*
X110806106Y-78794035D01*
X110806106Y-78794035D02*
X110685154Y-78733559D01*
X110685154Y-78733559D02*
X110443249Y-78673083D01*
X110443249Y-78673083D02*
X110322297Y-78612606D01*
X110322297Y-78612606D02*
X110261820Y-78552130D01*
X110261820Y-78552130D02*
X110201344Y-78431178D01*
X110201344Y-78431178D02*
X110201344Y-78310225D01*
X110201344Y-78310225D02*
X110261820Y-78189273D01*
X110261820Y-78189273D02*
X110322297Y-78128797D01*
X110322297Y-78128797D02*
X110443249Y-78068321D01*
X110443249Y-78068321D02*
X110745630Y-78068321D01*
X110745630Y-78068321D02*
X110927059Y-78128797D01*
D13*
X132858143Y-92606261D02*
X133191476Y-92606261D01*
X133334333Y-93130071D02*
X132858143Y-93130071D01*
X132858143Y-93130071D02*
X132858143Y-92130071D01*
X132858143Y-92130071D02*
X133334333Y-92130071D01*
X133715286Y-93082452D02*
X133858143Y-93130071D01*
X133858143Y-93130071D02*
X134096238Y-93130071D01*
X134096238Y-93130071D02*
X134191476Y-93082452D01*
X134191476Y-93082452D02*
X134239095Y-93034832D01*
X134239095Y-93034832D02*
X134286714Y-92939594D01*
X134286714Y-92939594D02*
X134286714Y-92844356D01*
X134286714Y-92844356D02*
X134239095Y-92749118D01*
X134239095Y-92749118D02*
X134191476Y-92701499D01*
X134191476Y-92701499D02*
X134096238Y-92653880D01*
X134096238Y-92653880D02*
X133905762Y-92606261D01*
X133905762Y-92606261D02*
X133810524Y-92558642D01*
X133810524Y-92558642D02*
X133762905Y-92511023D01*
X133762905Y-92511023D02*
X133715286Y-92415785D01*
X133715286Y-92415785D02*
X133715286Y-92320547D01*
X133715286Y-92320547D02*
X133762905Y-92225309D01*
X133762905Y-92225309D02*
X133810524Y-92177690D01*
X133810524Y-92177690D02*
X133905762Y-92130071D01*
X133905762Y-92130071D02*
X134143857Y-92130071D01*
X134143857Y-92130071D02*
X134286714Y-92177690D01*
X134715286Y-93130071D02*
X134715286Y-92130071D01*
X134715286Y-92130071D02*
X135096238Y-92130071D01*
X135096238Y-92130071D02*
X135191476Y-92177690D01*
X135191476Y-92177690D02*
X135239095Y-92225309D01*
X135239095Y-92225309D02*
X135286714Y-92320547D01*
X135286714Y-92320547D02*
X135286714Y-92463404D01*
X135286714Y-92463404D02*
X135239095Y-92558642D01*
X135239095Y-92558642D02*
X135191476Y-92606261D01*
X135191476Y-92606261D02*
X135096238Y-92653880D01*
X135096238Y-92653880D02*
X134715286Y-92653880D01*
X135620048Y-92130071D02*
X136239095Y-92130071D01*
X136239095Y-92130071D02*
X135905762Y-92511023D01*
X135905762Y-92511023D02*
X136048619Y-92511023D01*
X136048619Y-92511023D02*
X136143857Y-92558642D01*
X136143857Y-92558642D02*
X136191476Y-92606261D01*
X136191476Y-92606261D02*
X136239095Y-92701499D01*
X136239095Y-92701499D02*
X136239095Y-92939594D01*
X136239095Y-92939594D02*
X136191476Y-93034832D01*
X136191476Y-93034832D02*
X136143857Y-93082452D01*
X136143857Y-93082452D02*
X136048619Y-93130071D01*
X136048619Y-93130071D02*
X135762905Y-93130071D01*
X135762905Y-93130071D02*
X135667667Y-93082452D01*
X135667667Y-93082452D02*
X135620048Y-93034832D01*
X136620048Y-92225309D02*
X136667667Y-92177690D01*
X136667667Y-92177690D02*
X136762905Y-92130071D01*
X136762905Y-92130071D02*
X137001000Y-92130071D01*
X137001000Y-92130071D02*
X137096238Y-92177690D01*
X137096238Y-92177690D02*
X137143857Y-92225309D01*
X137143857Y-92225309D02*
X137191476Y-92320547D01*
X137191476Y-92320547D02*
X137191476Y-92415785D01*
X137191476Y-92415785D02*
X137143857Y-92558642D01*
X137143857Y-92558642D02*
X136572429Y-93130071D01*
X136572429Y-93130071D02*
X137191476Y-93130071D01*
X132905762Y-94740015D02*
X132905762Y-93740015D01*
X132905762Y-93740015D02*
X133239095Y-94454300D01*
X133239095Y-94454300D02*
X133572428Y-93740015D01*
X133572428Y-93740015D02*
X133572428Y-94740015D01*
X134048619Y-94740015D02*
X134048619Y-93740015D01*
X135096237Y-94644776D02*
X135048618Y-94692396D01*
X135048618Y-94692396D02*
X134905761Y-94740015D01*
X134905761Y-94740015D02*
X134810523Y-94740015D01*
X134810523Y-94740015D02*
X134667666Y-94692396D01*
X134667666Y-94692396D02*
X134572428Y-94597157D01*
X134572428Y-94597157D02*
X134524809Y-94501919D01*
X134524809Y-94501919D02*
X134477190Y-94311443D01*
X134477190Y-94311443D02*
X134477190Y-94168586D01*
X134477190Y-94168586D02*
X134524809Y-93978110D01*
X134524809Y-93978110D02*
X134572428Y-93882872D01*
X134572428Y-93882872D02*
X134667666Y-93787634D01*
X134667666Y-93787634D02*
X134810523Y-93740015D01*
X134810523Y-93740015D02*
X134905761Y-93740015D01*
X134905761Y-93740015D02*
X135048618Y-93787634D01*
X135048618Y-93787634D02*
X135096237Y-93835253D01*
X136096237Y-94740015D02*
X135762904Y-94263824D01*
X135524809Y-94740015D02*
X135524809Y-93740015D01*
X135524809Y-93740015D02*
X135905761Y-93740015D01*
X135905761Y-93740015D02*
X136000999Y-93787634D01*
X136000999Y-93787634D02*
X136048618Y-93835253D01*
X136048618Y-93835253D02*
X136096237Y-93930491D01*
X136096237Y-93930491D02*
X136096237Y-94073348D01*
X136096237Y-94073348D02*
X136048618Y-94168586D01*
X136048618Y-94168586D02*
X136000999Y-94216205D01*
X136000999Y-94216205D02*
X135905761Y-94263824D01*
X135905761Y-94263824D02*
X135524809Y-94263824D01*
X136715285Y-93740015D02*
X136905761Y-93740015D01*
X136905761Y-93740015D02*
X137000999Y-93787634D01*
X137000999Y-93787634D02*
X137096237Y-93882872D01*
X137096237Y-93882872D02*
X137143856Y-94073348D01*
X137143856Y-94073348D02*
X137143856Y-94406681D01*
X137143856Y-94406681D02*
X137096237Y-94597157D01*
X137096237Y-94597157D02*
X137000999Y-94692396D01*
X137000999Y-94692396D02*
X136905761Y-94740015D01*
X136905761Y-94740015D02*
X136715285Y-94740015D01*
X136715285Y-94740015D02*
X136620047Y-94692396D01*
X136620047Y-94692396D02*
X136524809Y-94597157D01*
X136524809Y-94597157D02*
X136477190Y-94406681D01*
X136477190Y-94406681D02*
X136477190Y-94073348D01*
X136477190Y-94073348D02*
X136524809Y-93882872D01*
X136524809Y-93882872D02*
X136620047Y-93787634D01*
X136620047Y-93787634D02*
X136715285Y-93740015D01*
D11*
X135061413Y-68939356D02*
X135061413Y-68516022D01*
X135726651Y-68334594D02*
X135726651Y-68939356D01*
X135726651Y-68939356D02*
X134456651Y-68939356D01*
X134456651Y-68939356D02*
X134456651Y-68334594D01*
X135666175Y-67850784D02*
X135726651Y-67669355D01*
X135726651Y-67669355D02*
X135726651Y-67366974D01*
X135726651Y-67366974D02*
X135666175Y-67246022D01*
X135666175Y-67246022D02*
X135605698Y-67185546D01*
X135605698Y-67185546D02*
X135484746Y-67125069D01*
X135484746Y-67125069D02*
X135363794Y-67125069D01*
X135363794Y-67125069D02*
X135242841Y-67185546D01*
X135242841Y-67185546D02*
X135182365Y-67246022D01*
X135182365Y-67246022D02*
X135121889Y-67366974D01*
X135121889Y-67366974D02*
X135061413Y-67608879D01*
X135061413Y-67608879D02*
X135000936Y-67729831D01*
X135000936Y-67729831D02*
X134940460Y-67790308D01*
X134940460Y-67790308D02*
X134819508Y-67850784D01*
X134819508Y-67850784D02*
X134698555Y-67850784D01*
X134698555Y-67850784D02*
X134577603Y-67790308D01*
X134577603Y-67790308D02*
X134517127Y-67729831D01*
X134517127Y-67729831D02*
X134456651Y-67608879D01*
X134456651Y-67608879D02*
X134456651Y-67306498D01*
X134456651Y-67306498D02*
X134517127Y-67125069D01*
X135726651Y-66580784D02*
X134456651Y-66580784D01*
X134456651Y-66580784D02*
X134456651Y-66096974D01*
X134456651Y-66096974D02*
X134517127Y-65976022D01*
X134517127Y-65976022D02*
X134577603Y-65915545D01*
X134577603Y-65915545D02*
X134698555Y-65855069D01*
X134698555Y-65855069D02*
X134879984Y-65855069D01*
X134879984Y-65855069D02*
X135000936Y-65915545D01*
X135000936Y-65915545D02*
X135061413Y-65976022D01*
X135061413Y-65976022D02*
X135121889Y-66096974D01*
X135121889Y-66096974D02*
X135121889Y-66580784D01*
X134456651Y-64524593D02*
X134456651Y-63798879D01*
X135726651Y-64161736D02*
X134456651Y-64161736D01*
X134456651Y-63496498D02*
X135726651Y-62649831D01*
X134456651Y-62649831D02*
X135726651Y-63496498D01*
X143264593Y-85809603D02*
X143325069Y-85749127D01*
X143325069Y-85749127D02*
X143446022Y-85688651D01*
X143446022Y-85688651D02*
X143748403Y-85688651D01*
X143748403Y-85688651D02*
X143869355Y-85749127D01*
X143869355Y-85749127D02*
X143929831Y-85809603D01*
X143929831Y-85809603D02*
X143990308Y-85930555D01*
X143990308Y-85930555D02*
X143990308Y-86051508D01*
X143990308Y-86051508D02*
X143929831Y-86232936D01*
X143929831Y-86232936D02*
X143204117Y-86958651D01*
X143204117Y-86958651D02*
X143990308Y-86958651D01*
X144474117Y-85809603D02*
X144534593Y-85749127D01*
X144534593Y-85749127D02*
X144655546Y-85688651D01*
X144655546Y-85688651D02*
X144957927Y-85688651D01*
X144957927Y-85688651D02*
X145078879Y-85749127D01*
X145078879Y-85749127D02*
X145139355Y-85809603D01*
X145139355Y-85809603D02*
X145199832Y-85930555D01*
X145199832Y-85930555D02*
X145199832Y-86051508D01*
X145199832Y-86051508D02*
X145139355Y-86232936D01*
X145139355Y-86232936D02*
X144413641Y-86958651D01*
X144413641Y-86958651D02*
X145199832Y-86958651D01*
X176072926Y-97499651D02*
X176072926Y-96229651D01*
X176072926Y-96229651D02*
X176496260Y-97136794D01*
X176496260Y-97136794D02*
X176919593Y-96229651D01*
X176919593Y-96229651D02*
X176919593Y-97499651D01*
X177524355Y-97499651D02*
X177524355Y-96229651D01*
X178068641Y-97439175D02*
X178250070Y-97499651D01*
X178250070Y-97499651D02*
X178552451Y-97499651D01*
X178552451Y-97499651D02*
X178673403Y-97439175D01*
X178673403Y-97439175D02*
X178733879Y-97378698D01*
X178733879Y-97378698D02*
X178794356Y-97257746D01*
X178794356Y-97257746D02*
X178794356Y-97136794D01*
X178794356Y-97136794D02*
X178733879Y-97015841D01*
X178733879Y-97015841D02*
X178673403Y-96955365D01*
X178673403Y-96955365D02*
X178552451Y-96894889D01*
X178552451Y-96894889D02*
X178310546Y-96834413D01*
X178310546Y-96834413D02*
X178189594Y-96773936D01*
X178189594Y-96773936D02*
X178129117Y-96713460D01*
X178129117Y-96713460D02*
X178068641Y-96592508D01*
X178068641Y-96592508D02*
X178068641Y-96471555D01*
X178068641Y-96471555D02*
X178129117Y-96350603D01*
X178129117Y-96350603D02*
X178189594Y-96290127D01*
X178189594Y-96290127D02*
X178310546Y-96229651D01*
X178310546Y-96229651D02*
X178612927Y-96229651D01*
X178612927Y-96229651D02*
X178794356Y-96290127D01*
X179580546Y-96229651D02*
X179822451Y-96229651D01*
X179822451Y-96229651D02*
X179943403Y-96290127D01*
X179943403Y-96290127D02*
X180064356Y-96411079D01*
X180064356Y-96411079D02*
X180124832Y-96652984D01*
X180124832Y-96652984D02*
X180124832Y-97076317D01*
X180124832Y-97076317D02*
X180064356Y-97318222D01*
X180064356Y-97318222D02*
X179943403Y-97439175D01*
X179943403Y-97439175D02*
X179822451Y-97499651D01*
X179822451Y-97499651D02*
X179580546Y-97499651D01*
X179580546Y-97499651D02*
X179459594Y-97439175D01*
X179459594Y-97439175D02*
X179338641Y-97318222D01*
X179338641Y-97318222D02*
X179278165Y-97076317D01*
X179278165Y-97076317D02*
X179278165Y-96652984D01*
X179278165Y-96652984D02*
X179338641Y-96411079D01*
X179338641Y-96411079D02*
X179459594Y-96290127D01*
X179459594Y-96290127D02*
X179580546Y-96229651D01*
D12*
X108991820Y-95086321D02*
X108991820Y-93816321D01*
X108991820Y-93816321D02*
X109475630Y-93816321D01*
X109475630Y-93816321D02*
X109596582Y-93876797D01*
X109596582Y-93876797D02*
X109657059Y-93937273D01*
X109657059Y-93937273D02*
X109717535Y-94058225D01*
X109717535Y-94058225D02*
X109717535Y-94239654D01*
X109717535Y-94239654D02*
X109657059Y-94360606D01*
X109657059Y-94360606D02*
X109596582Y-94421083D01*
X109596582Y-94421083D02*
X109475630Y-94481559D01*
X109475630Y-94481559D02*
X108991820Y-94481559D01*
X110261820Y-95086321D02*
X110261820Y-93816321D01*
X110261820Y-94421083D02*
X110987535Y-94421083D01*
X110987535Y-95086321D02*
X110987535Y-93816321D01*
X111410868Y-93816321D02*
X112136582Y-93816321D01*
X111773725Y-95086321D02*
X111773725Y-93816321D01*
X112801820Y-93816321D02*
X113043725Y-93816321D01*
X113043725Y-93816321D02*
X113164677Y-93876797D01*
X113164677Y-93876797D02*
X113285630Y-93997749D01*
X113285630Y-93997749D02*
X113346106Y-94239654D01*
X113346106Y-94239654D02*
X113346106Y-94662987D01*
X113346106Y-94662987D02*
X113285630Y-94904892D01*
X113285630Y-94904892D02*
X113164677Y-95025845D01*
X113164677Y-95025845D02*
X113043725Y-95086321D01*
X113043725Y-95086321D02*
X112801820Y-95086321D01*
X112801820Y-95086321D02*
X112680868Y-95025845D01*
X112680868Y-95025845D02*
X112559915Y-94904892D01*
X112559915Y-94904892D02*
X112499439Y-94662987D01*
X112499439Y-94662987D02*
X112499439Y-94239654D01*
X112499439Y-94239654D02*
X112559915Y-93997749D01*
X112559915Y-93997749D02*
X112680868Y-93876797D01*
X112680868Y-93876797D02*
X112801820Y-93816321D01*
X113890391Y-94602511D02*
X114858011Y-94602511D01*
X114374201Y-95086321D02*
X114374201Y-94118702D01*
D11*
X143264593Y-93429603D02*
X143325069Y-93369127D01*
X143325069Y-93369127D02*
X143446022Y-93308651D01*
X143446022Y-93308651D02*
X143748403Y-93308651D01*
X143748403Y-93308651D02*
X143869355Y-93369127D01*
X143869355Y-93369127D02*
X143929831Y-93429603D01*
X143929831Y-93429603D02*
X143990308Y-93550555D01*
X143990308Y-93550555D02*
X143990308Y-93671508D01*
X143990308Y-93671508D02*
X143929831Y-93852936D01*
X143929831Y-93852936D02*
X143204117Y-94578651D01*
X143204117Y-94578651D02*
X143990308Y-94578651D01*
X145199832Y-94578651D02*
X144474117Y-94578651D01*
X144836974Y-94578651D02*
X144836974Y-93308651D01*
X144836974Y-93308651D02*
X144716022Y-93490079D01*
X144716022Y-93490079D02*
X144595070Y-93611032D01*
X144595070Y-93611032D02*
X144474117Y-93671508D01*
X142780783Y-107278651D02*
X142357449Y-106673889D01*
X142055068Y-107278651D02*
X142055068Y-106008651D01*
X142055068Y-106008651D02*
X142538878Y-106008651D01*
X142538878Y-106008651D02*
X142659830Y-106069127D01*
X142659830Y-106069127D02*
X142720307Y-106129603D01*
X142720307Y-106129603D02*
X142780783Y-106250555D01*
X142780783Y-106250555D02*
X142780783Y-106431984D01*
X142780783Y-106431984D02*
X142720307Y-106552936D01*
X142720307Y-106552936D02*
X142659830Y-106613413D01*
X142659830Y-106613413D02*
X142538878Y-106673889D01*
X142538878Y-106673889D02*
X142055068Y-106673889D01*
X143204116Y-106008651D02*
X144050783Y-107278651D01*
X144050783Y-106008651D02*
X143204116Y-107278651D01*
X144474116Y-106129603D02*
X144534592Y-106069127D01*
X144534592Y-106069127D02*
X144655545Y-106008651D01*
X144655545Y-106008651D02*
X144957926Y-106008651D01*
X144957926Y-106008651D02*
X145078878Y-106069127D01*
X145078878Y-106069127D02*
X145139354Y-106129603D01*
X145139354Y-106129603D02*
X145199831Y-106250555D01*
X145199831Y-106250555D02*
X145199831Y-106371508D01*
X145199831Y-106371508D02*
X145139354Y-106552936D01*
X145139354Y-106552936D02*
X144413640Y-107278651D01*
X144413640Y-107278651D02*
X145199831Y-107278651D01*
X177040546Y-111723651D02*
X177826737Y-111723651D01*
X177826737Y-111723651D02*
X177403403Y-112207460D01*
X177403403Y-112207460D02*
X177584832Y-112207460D01*
X177584832Y-112207460D02*
X177705784Y-112267936D01*
X177705784Y-112267936D02*
X177766260Y-112328413D01*
X177766260Y-112328413D02*
X177826737Y-112449365D01*
X177826737Y-112449365D02*
X177826737Y-112751746D01*
X177826737Y-112751746D02*
X177766260Y-112872698D01*
X177766260Y-112872698D02*
X177705784Y-112933175D01*
X177705784Y-112933175D02*
X177584832Y-112993651D01*
X177584832Y-112993651D02*
X177221975Y-112993651D01*
X177221975Y-112993651D02*
X177101022Y-112933175D01*
X177101022Y-112933175D02*
X177040546Y-112872698D01*
X178189594Y-111723651D02*
X178612927Y-112993651D01*
X178612927Y-112993651D02*
X179036261Y-111723651D01*
X179338641Y-111723651D02*
X180124832Y-111723651D01*
X180124832Y-111723651D02*
X179701498Y-112207460D01*
X179701498Y-112207460D02*
X179882927Y-112207460D01*
X179882927Y-112207460D02*
X180003879Y-112267936D01*
X180003879Y-112267936D02*
X180064355Y-112328413D01*
X180064355Y-112328413D02*
X180124832Y-112449365D01*
X180124832Y-112449365D02*
X180124832Y-112751746D01*
X180124832Y-112751746D02*
X180064355Y-112872698D01*
X180064355Y-112872698D02*
X180003879Y-112933175D01*
X180003879Y-112933175D02*
X179882927Y-112993651D01*
X179882927Y-112993651D02*
X179520070Y-112993651D01*
X179520070Y-112993651D02*
X179399117Y-112933175D01*
X179399117Y-112933175D02*
X179338641Y-112872698D01*
X143990307Y-114898651D02*
X143264592Y-114898651D01*
X143627449Y-114898651D02*
X143627449Y-113628651D01*
X143627449Y-113628651D02*
X143506497Y-113810079D01*
X143506497Y-113810079D02*
X143385545Y-113931032D01*
X143385545Y-113931032D02*
X143264592Y-113991508D01*
X145139354Y-113628651D02*
X144534592Y-113628651D01*
X144534592Y-113628651D02*
X144474116Y-114233413D01*
X144474116Y-114233413D02*
X144534592Y-114172936D01*
X144534592Y-114172936D02*
X144655545Y-114112460D01*
X144655545Y-114112460D02*
X144957926Y-114112460D01*
X144957926Y-114112460D02*
X145078878Y-114172936D01*
X145078878Y-114172936D02*
X145139354Y-114233413D01*
X145139354Y-114233413D02*
X145199831Y-114354365D01*
X145199831Y-114354365D02*
X145199831Y-114656746D01*
X145199831Y-114656746D02*
X145139354Y-114777698D01*
X145139354Y-114777698D02*
X145078878Y-114838175D01*
X145078878Y-114838175D02*
X144957926Y-114898651D01*
X144957926Y-114898651D02*
X144655545Y-114898651D01*
X144655545Y-114898651D02*
X144534592Y-114838175D01*
X144534592Y-114838175D02*
X144474116Y-114777698D01*
D13*
X125353075Y-61761071D02*
X125019742Y-61284880D01*
X124781647Y-61761071D02*
X124781647Y-60761071D01*
X124781647Y-60761071D02*
X125162599Y-60761071D01*
X125162599Y-60761071D02*
X125257837Y-60808690D01*
X125257837Y-60808690D02*
X125305456Y-60856309D01*
X125305456Y-60856309D02*
X125353075Y-60951547D01*
X125353075Y-60951547D02*
X125353075Y-61094404D01*
X125353075Y-61094404D02*
X125305456Y-61189642D01*
X125305456Y-61189642D02*
X125257837Y-61237261D01*
X125257837Y-61237261D02*
X125162599Y-61284880D01*
X125162599Y-61284880D02*
X124781647Y-61284880D01*
X125781647Y-61237261D02*
X126114980Y-61237261D01*
X126257837Y-61761071D02*
X125781647Y-61761071D01*
X125781647Y-61761071D02*
X125781647Y-60761071D01*
X125781647Y-60761071D02*
X126257837Y-60761071D01*
X126876885Y-61284880D02*
X126876885Y-61761071D01*
X126543552Y-60761071D02*
X126876885Y-61284880D01*
X126876885Y-61284880D02*
X127210218Y-60761071D01*
X127495933Y-61475356D02*
X127972123Y-61475356D01*
X127400695Y-61761071D02*
X127734028Y-60761071D01*
X127734028Y-60761071D02*
X128067361Y-61761071D01*
X128305457Y-60761071D02*
X128972123Y-61761071D01*
X128972123Y-60761071D02*
X128305457Y-61761071D01*
X125353075Y-63371015D02*
X125019742Y-62894824D01*
X124781647Y-63371015D02*
X124781647Y-62371015D01*
X124781647Y-62371015D02*
X125162599Y-62371015D01*
X125162599Y-62371015D02*
X125257837Y-62418634D01*
X125257837Y-62418634D02*
X125305456Y-62466253D01*
X125305456Y-62466253D02*
X125353075Y-62561491D01*
X125353075Y-62561491D02*
X125353075Y-62704348D01*
X125353075Y-62704348D02*
X125305456Y-62799586D01*
X125305456Y-62799586D02*
X125257837Y-62847205D01*
X125257837Y-62847205D02*
X125162599Y-62894824D01*
X125162599Y-62894824D02*
X124781647Y-62894824D01*
X125972123Y-62894824D02*
X125972123Y-63371015D01*
X125638790Y-62371015D02*
X125972123Y-62894824D01*
X125972123Y-62894824D02*
X126305456Y-62371015D01*
X127114980Y-63371015D02*
X126638790Y-63371015D01*
X126638790Y-63371015D02*
X126638790Y-62371015D01*
X128019742Y-63371015D02*
X127686409Y-62894824D01*
X127448314Y-63371015D02*
X127448314Y-62371015D01*
X127448314Y-62371015D02*
X127829266Y-62371015D01*
X127829266Y-62371015D02*
X127924504Y-62418634D01*
X127924504Y-62418634D02*
X127972123Y-62466253D01*
X127972123Y-62466253D02*
X128019742Y-62561491D01*
X128019742Y-62561491D02*
X128019742Y-62704348D01*
X128019742Y-62704348D02*
X127972123Y-62799586D01*
X127972123Y-62799586D02*
X127924504Y-62847205D01*
X127924504Y-62847205D02*
X127829266Y-62894824D01*
X127829266Y-62894824D02*
X127448314Y-62894824D01*
X128591171Y-62799586D02*
X128495933Y-62751967D01*
X128495933Y-62751967D02*
X128448314Y-62704348D01*
X128448314Y-62704348D02*
X128400695Y-62609110D01*
X128400695Y-62609110D02*
X128400695Y-62561491D01*
X128400695Y-62561491D02*
X128448314Y-62466253D01*
X128448314Y-62466253D02*
X128495933Y-62418634D01*
X128495933Y-62418634D02*
X128591171Y-62371015D01*
X128591171Y-62371015D02*
X128781647Y-62371015D01*
X128781647Y-62371015D02*
X128876885Y-62418634D01*
X128876885Y-62418634D02*
X128924504Y-62466253D01*
X128924504Y-62466253D02*
X128972123Y-62561491D01*
X128972123Y-62561491D02*
X128972123Y-62609110D01*
X128972123Y-62609110D02*
X128924504Y-62704348D01*
X128924504Y-62704348D02*
X128876885Y-62751967D01*
X128876885Y-62751967D02*
X128781647Y-62799586D01*
X128781647Y-62799586D02*
X128591171Y-62799586D01*
X128591171Y-62799586D02*
X128495933Y-62847205D01*
X128495933Y-62847205D02*
X128448314Y-62894824D01*
X128448314Y-62894824D02*
X128400695Y-62990062D01*
X128400695Y-62990062D02*
X128400695Y-63180538D01*
X128400695Y-63180538D02*
X128448314Y-63275776D01*
X128448314Y-63275776D02*
X128495933Y-63323396D01*
X128495933Y-63323396D02*
X128591171Y-63371015D01*
X128591171Y-63371015D02*
X128781647Y-63371015D01*
X128781647Y-63371015D02*
X128876885Y-63323396D01*
X128876885Y-63323396D02*
X128924504Y-63275776D01*
X128924504Y-63275776D02*
X128972123Y-63180538D01*
X128972123Y-63180538D02*
X128972123Y-62990062D01*
X128972123Y-62990062D02*
X128924504Y-62894824D01*
X128924504Y-62894824D02*
X128876885Y-62847205D01*
X128876885Y-62847205D02*
X128781647Y-62799586D01*
X129448314Y-63371015D02*
X129638790Y-63371015D01*
X129638790Y-63371015D02*
X129734028Y-63323396D01*
X129734028Y-63323396D02*
X129781647Y-63275776D01*
X129781647Y-63275776D02*
X129876885Y-63132919D01*
X129876885Y-63132919D02*
X129924504Y-62942443D01*
X129924504Y-62942443D02*
X129924504Y-62561491D01*
X129924504Y-62561491D02*
X129876885Y-62466253D01*
X129876885Y-62466253D02*
X129829266Y-62418634D01*
X129829266Y-62418634D02*
X129734028Y-62371015D01*
X129734028Y-62371015D02*
X129543552Y-62371015D01*
X129543552Y-62371015D02*
X129448314Y-62418634D01*
X129448314Y-62418634D02*
X129400695Y-62466253D01*
X129400695Y-62466253D02*
X129353076Y-62561491D01*
X129353076Y-62561491D02*
X129353076Y-62799586D01*
X129353076Y-62799586D02*
X129400695Y-62894824D01*
X129400695Y-62894824D02*
X129448314Y-62942443D01*
X129448314Y-62942443D02*
X129543552Y-62990062D01*
X129543552Y-62990062D02*
X129734028Y-62990062D01*
X129734028Y-62990062D02*
X129829266Y-62942443D01*
X129829266Y-62942443D02*
X129876885Y-62894824D01*
X129876885Y-62894824D02*
X129924504Y-62799586D01*
X130781647Y-62371015D02*
X130591171Y-62371015D01*
X130591171Y-62371015D02*
X130495933Y-62418634D01*
X130495933Y-62418634D02*
X130448314Y-62466253D01*
X130448314Y-62466253D02*
X130353076Y-62609110D01*
X130353076Y-62609110D02*
X130305457Y-62799586D01*
X130305457Y-62799586D02*
X130305457Y-63180538D01*
X130305457Y-63180538D02*
X130353076Y-63275776D01*
X130353076Y-63275776D02*
X130400695Y-63323396D01*
X130400695Y-63323396D02*
X130495933Y-63371015D01*
X130495933Y-63371015D02*
X130686409Y-63371015D01*
X130686409Y-63371015D02*
X130781647Y-63323396D01*
X130781647Y-63323396D02*
X130829266Y-63275776D01*
X130829266Y-63275776D02*
X130876885Y-63180538D01*
X130876885Y-63180538D02*
X130876885Y-62942443D01*
X130876885Y-62942443D02*
X130829266Y-62847205D01*
X130829266Y-62847205D02*
X130781647Y-62799586D01*
X130781647Y-62799586D02*
X130686409Y-62751967D01*
X130686409Y-62751967D02*
X130495933Y-62751967D01*
X130495933Y-62751967D02*
X130400695Y-62799586D01*
X130400695Y-62799586D02*
X130353076Y-62847205D01*
X130353076Y-62847205D02*
X130305457Y-62942443D01*
D12*
X108991820Y-76163321D02*
X108991820Y-74893321D01*
X108991820Y-74893321D02*
X109415154Y-75800464D01*
X109415154Y-75800464D02*
X109838487Y-74893321D01*
X109838487Y-74893321D02*
X109838487Y-76163321D01*
X110685154Y-74893321D02*
X110927059Y-74893321D01*
X110927059Y-74893321D02*
X111048011Y-74953797D01*
X111048011Y-74953797D02*
X111168964Y-75074749D01*
X111168964Y-75074749D02*
X111229440Y-75316654D01*
X111229440Y-75316654D02*
X111229440Y-75739987D01*
X111229440Y-75739987D02*
X111168964Y-75981892D01*
X111168964Y-75981892D02*
X111048011Y-76102845D01*
X111048011Y-76102845D02*
X110927059Y-76163321D01*
X110927059Y-76163321D02*
X110685154Y-76163321D01*
X110685154Y-76163321D02*
X110564202Y-76102845D01*
X110564202Y-76102845D02*
X110443249Y-75981892D01*
X110443249Y-75981892D02*
X110382773Y-75739987D01*
X110382773Y-75739987D02*
X110382773Y-75316654D01*
X110382773Y-75316654D02*
X110443249Y-75074749D01*
X110443249Y-75074749D02*
X110564202Y-74953797D01*
X110564202Y-74953797D02*
X110685154Y-74893321D01*
X111713249Y-76102845D02*
X111894678Y-76163321D01*
X111894678Y-76163321D02*
X112197059Y-76163321D01*
X112197059Y-76163321D02*
X112318011Y-76102845D01*
X112318011Y-76102845D02*
X112378487Y-76042368D01*
X112378487Y-76042368D02*
X112438964Y-75921416D01*
X112438964Y-75921416D02*
X112438964Y-75800464D01*
X112438964Y-75800464D02*
X112378487Y-75679511D01*
X112378487Y-75679511D02*
X112318011Y-75619035D01*
X112318011Y-75619035D02*
X112197059Y-75558559D01*
X112197059Y-75558559D02*
X111955154Y-75498083D01*
X111955154Y-75498083D02*
X111834202Y-75437606D01*
X111834202Y-75437606D02*
X111773725Y-75377130D01*
X111773725Y-75377130D02*
X111713249Y-75256178D01*
X111713249Y-75256178D02*
X111713249Y-75135225D01*
X111713249Y-75135225D02*
X111773725Y-75014273D01*
X111773725Y-75014273D02*
X111834202Y-74953797D01*
X111834202Y-74953797D02*
X111955154Y-74893321D01*
X111955154Y-74893321D02*
X112257535Y-74893321D01*
X112257535Y-74893321D02*
X112438964Y-74953797D01*
X112983249Y-76163321D02*
X112983249Y-74893321D01*
D11*
X142137127Y-68274117D02*
X142076651Y-68395070D01*
X142076651Y-68395070D02*
X142076651Y-68576498D01*
X142076651Y-68576498D02*
X142137127Y-68757927D01*
X142137127Y-68757927D02*
X142258079Y-68878879D01*
X142258079Y-68878879D02*
X142379032Y-68939356D01*
X142379032Y-68939356D02*
X142620936Y-68999832D01*
X142620936Y-68999832D02*
X142802365Y-68999832D01*
X142802365Y-68999832D02*
X143044270Y-68939356D01*
X143044270Y-68939356D02*
X143165222Y-68878879D01*
X143165222Y-68878879D02*
X143286175Y-68757927D01*
X143286175Y-68757927D02*
X143346651Y-68576498D01*
X143346651Y-68576498D02*
X143346651Y-68455546D01*
X143346651Y-68455546D02*
X143286175Y-68274117D01*
X143286175Y-68274117D02*
X143225698Y-68213641D01*
X143225698Y-68213641D02*
X142802365Y-68213641D01*
X142802365Y-68213641D02*
X142802365Y-68455546D01*
X143346651Y-67669356D02*
X142076651Y-67669356D01*
X142076651Y-67669356D02*
X143346651Y-66943641D01*
X143346651Y-66943641D02*
X142076651Y-66943641D01*
X143346651Y-66338880D02*
X142076651Y-66338880D01*
X142076651Y-66338880D02*
X142076651Y-66036499D01*
X142076651Y-66036499D02*
X142137127Y-65855070D01*
X142137127Y-65855070D02*
X142258079Y-65734118D01*
X142258079Y-65734118D02*
X142379032Y-65673641D01*
X142379032Y-65673641D02*
X142620936Y-65613165D01*
X142620936Y-65613165D02*
X142802365Y-65613165D01*
X142802365Y-65613165D02*
X143044270Y-65673641D01*
X143044270Y-65673641D02*
X143165222Y-65734118D01*
X143165222Y-65734118D02*
X143286175Y-65855070D01*
X143286175Y-65855070D02*
X143346651Y-66036499D01*
X143346651Y-66036499D02*
X143346651Y-66338880D01*
X140679651Y-68939356D02*
X139409651Y-68939356D01*
X139409651Y-68939356D02*
X140679651Y-68213641D01*
X140679651Y-68213641D02*
X139409651Y-68213641D01*
X140558698Y-66883165D02*
X140619175Y-66943641D01*
X140619175Y-66943641D02*
X140679651Y-67125070D01*
X140679651Y-67125070D02*
X140679651Y-67246022D01*
X140679651Y-67246022D02*
X140619175Y-67427451D01*
X140619175Y-67427451D02*
X140498222Y-67548403D01*
X140498222Y-67548403D02*
X140377270Y-67608880D01*
X140377270Y-67608880D02*
X140135365Y-67669356D01*
X140135365Y-67669356D02*
X139953936Y-67669356D01*
X139953936Y-67669356D02*
X139712032Y-67608880D01*
X139712032Y-67608880D02*
X139591079Y-67548403D01*
X139591079Y-67548403D02*
X139470127Y-67427451D01*
X139470127Y-67427451D02*
X139409651Y-67246022D01*
X139409651Y-67246022D02*
X139409651Y-67125070D01*
X139409651Y-67125070D02*
X139470127Y-66943641D01*
X139470127Y-66943641D02*
X139530603Y-66883165D01*
D12*
X109657059Y-64793797D02*
X109536106Y-64733321D01*
X109536106Y-64733321D02*
X109354678Y-64733321D01*
X109354678Y-64733321D02*
X109173249Y-64793797D01*
X109173249Y-64793797D02*
X109052297Y-64914749D01*
X109052297Y-64914749D02*
X108991820Y-65035702D01*
X108991820Y-65035702D02*
X108931344Y-65277606D01*
X108931344Y-65277606D02*
X108931344Y-65459035D01*
X108931344Y-65459035D02*
X108991820Y-65700940D01*
X108991820Y-65700940D02*
X109052297Y-65821892D01*
X109052297Y-65821892D02*
X109173249Y-65942845D01*
X109173249Y-65942845D02*
X109354678Y-66003321D01*
X109354678Y-66003321D02*
X109475630Y-66003321D01*
X109475630Y-66003321D02*
X109657059Y-65942845D01*
X109657059Y-65942845D02*
X109717535Y-65882368D01*
X109717535Y-65882368D02*
X109717535Y-65459035D01*
X109717535Y-65459035D02*
X109475630Y-65459035D01*
X110261820Y-66003321D02*
X110261820Y-64733321D01*
X110261820Y-64733321D02*
X110987535Y-66003321D01*
X110987535Y-66003321D02*
X110987535Y-64733321D01*
X111592296Y-66003321D02*
X111592296Y-64733321D01*
X111592296Y-64733321D02*
X111894677Y-64733321D01*
X111894677Y-64733321D02*
X112076106Y-64793797D01*
X112076106Y-64793797D02*
X112197058Y-64914749D01*
X112197058Y-64914749D02*
X112257535Y-65035702D01*
X112257535Y-65035702D02*
X112318011Y-65277606D01*
X112318011Y-65277606D02*
X112318011Y-65459035D01*
X112318011Y-65459035D02*
X112257535Y-65700940D01*
X112257535Y-65700940D02*
X112197058Y-65821892D01*
X112197058Y-65821892D02*
X112076106Y-65942845D01*
X112076106Y-65942845D02*
X111894677Y-66003321D01*
X111894677Y-66003321D02*
X111592296Y-66003321D01*
D11*
X124342167Y-103589603D02*
X124402643Y-103529127D01*
X124402643Y-103529127D02*
X124523596Y-103468651D01*
X124523596Y-103468651D02*
X124825977Y-103468651D01*
X124825977Y-103468651D02*
X124946929Y-103529127D01*
X124946929Y-103529127D02*
X125007405Y-103589603D01*
X125007405Y-103589603D02*
X125067882Y-103710555D01*
X125067882Y-103710555D02*
X125067882Y-103831508D01*
X125067882Y-103831508D02*
X125007405Y-104012936D01*
X125007405Y-104012936D02*
X124281691Y-104738651D01*
X124281691Y-104738651D02*
X125067882Y-104738651D01*
X126156453Y-103468651D02*
X125914548Y-103468651D01*
X125914548Y-103468651D02*
X125793596Y-103529127D01*
X125793596Y-103529127D02*
X125733120Y-103589603D01*
X125733120Y-103589603D02*
X125612167Y-103771032D01*
X125612167Y-103771032D02*
X125551691Y-104012936D01*
X125551691Y-104012936D02*
X125551691Y-104496746D01*
X125551691Y-104496746D02*
X125612167Y-104617698D01*
X125612167Y-104617698D02*
X125672644Y-104678175D01*
X125672644Y-104678175D02*
X125793596Y-104738651D01*
X125793596Y-104738651D02*
X126035501Y-104738651D01*
X126035501Y-104738651D02*
X126156453Y-104678175D01*
X126156453Y-104678175D02*
X126216929Y-104617698D01*
X126216929Y-104617698D02*
X126277406Y-104496746D01*
X126277406Y-104496746D02*
X126277406Y-104194365D01*
X126277406Y-104194365D02*
X126216929Y-104073413D01*
X126216929Y-104073413D02*
X126156453Y-104012936D01*
X126156453Y-104012936D02*
X126035501Y-103952460D01*
X126035501Y-103952460D02*
X125793596Y-103952460D01*
X125793596Y-103952460D02*
X125672644Y-104012936D01*
X125672644Y-104012936D02*
X125612167Y-104073413D01*
X125612167Y-104073413D02*
X125551691Y-104194365D01*
D12*
X108870868Y-67273321D02*
X109657059Y-67273321D01*
X109657059Y-67273321D02*
X109233725Y-67757130D01*
X109233725Y-67757130D02*
X109415154Y-67757130D01*
X109415154Y-67757130D02*
X109536106Y-67817606D01*
X109536106Y-67817606D02*
X109596582Y-67878083D01*
X109596582Y-67878083D02*
X109657059Y-67999035D01*
X109657059Y-67999035D02*
X109657059Y-68301416D01*
X109657059Y-68301416D02*
X109596582Y-68422368D01*
X109596582Y-68422368D02*
X109536106Y-68482845D01*
X109536106Y-68482845D02*
X109415154Y-68543321D01*
X109415154Y-68543321D02*
X109052297Y-68543321D01*
X109052297Y-68543321D02*
X108931344Y-68482845D01*
X108931344Y-68482845D02*
X108870868Y-68422368D01*
X110019916Y-67273321D02*
X110443249Y-68543321D01*
X110443249Y-68543321D02*
X110866583Y-67273321D01*
X111168963Y-67273321D02*
X111955154Y-67273321D01*
X111955154Y-67273321D02*
X111531820Y-67757130D01*
X111531820Y-67757130D02*
X111713249Y-67757130D01*
X111713249Y-67757130D02*
X111834201Y-67817606D01*
X111834201Y-67817606D02*
X111894677Y-67878083D01*
X111894677Y-67878083D02*
X111955154Y-67999035D01*
X111955154Y-67999035D02*
X111955154Y-68301416D01*
X111955154Y-68301416D02*
X111894677Y-68422368D01*
X111894677Y-68422368D02*
X111834201Y-68482845D01*
X111834201Y-68482845D02*
X111713249Y-68543321D01*
X111713249Y-68543321D02*
X111350392Y-68543321D01*
X111350392Y-68543321D02*
X111229439Y-68482845D01*
X111229439Y-68482845D02*
X111168963Y-68422368D01*
D11*
X143990308Y-99658651D02*
X143264593Y-99658651D01*
X143627450Y-99658651D02*
X143627450Y-98388651D01*
X143627450Y-98388651D02*
X143506498Y-98570079D01*
X143506498Y-98570079D02*
X143385546Y-98691032D01*
X143385546Y-98691032D02*
X143264593Y-98751508D01*
X144716022Y-98932936D02*
X144595070Y-98872460D01*
X144595070Y-98872460D02*
X144534593Y-98811984D01*
X144534593Y-98811984D02*
X144474117Y-98691032D01*
X144474117Y-98691032D02*
X144474117Y-98630555D01*
X144474117Y-98630555D02*
X144534593Y-98509603D01*
X144534593Y-98509603D02*
X144595070Y-98449127D01*
X144595070Y-98449127D02*
X144716022Y-98388651D01*
X144716022Y-98388651D02*
X144957927Y-98388651D01*
X144957927Y-98388651D02*
X145078879Y-98449127D01*
X145078879Y-98449127D02*
X145139355Y-98509603D01*
X145139355Y-98509603D02*
X145199832Y-98630555D01*
X145199832Y-98630555D02*
X145199832Y-98691032D01*
X145199832Y-98691032D02*
X145139355Y-98811984D01*
X145139355Y-98811984D02*
X145078879Y-98872460D01*
X145078879Y-98872460D02*
X144957927Y-98932936D01*
X144957927Y-98932936D02*
X144716022Y-98932936D01*
X144716022Y-98932936D02*
X144595070Y-98993413D01*
X144595070Y-98993413D02*
X144534593Y-99053889D01*
X144534593Y-99053889D02*
X144474117Y-99174841D01*
X144474117Y-99174841D02*
X144474117Y-99416746D01*
X144474117Y-99416746D02*
X144534593Y-99537698D01*
X144534593Y-99537698D02*
X144595070Y-99598175D01*
X144595070Y-99598175D02*
X144716022Y-99658651D01*
X144716022Y-99658651D02*
X144957927Y-99658651D01*
X144957927Y-99658651D02*
X145078879Y-99598175D01*
X145078879Y-99598175D02*
X145139355Y-99537698D01*
X145139355Y-99537698D02*
X145199832Y-99416746D01*
X145199832Y-99416746D02*
X145199832Y-99174841D01*
X145199832Y-99174841D02*
X145139355Y-99053889D01*
X145139355Y-99053889D02*
X145078879Y-98993413D01*
X145078879Y-98993413D02*
X144957927Y-98932936D01*
X129376651Y-68933308D02*
X129376651Y-68147117D01*
X129376651Y-68147117D02*
X129860460Y-68570451D01*
X129860460Y-68570451D02*
X129860460Y-68389022D01*
X129860460Y-68389022D02*
X129920936Y-68268070D01*
X129920936Y-68268070D02*
X129981413Y-68207594D01*
X129981413Y-68207594D02*
X130102365Y-68147117D01*
X130102365Y-68147117D02*
X130404746Y-68147117D01*
X130404746Y-68147117D02*
X130525698Y-68207594D01*
X130525698Y-68207594D02*
X130586175Y-68268070D01*
X130586175Y-68268070D02*
X130646651Y-68389022D01*
X130646651Y-68389022D02*
X130646651Y-68751879D01*
X130646651Y-68751879D02*
X130586175Y-68872832D01*
X130586175Y-68872832D02*
X130525698Y-68933308D01*
X129376651Y-67784260D02*
X130646651Y-67360927D01*
X130646651Y-67360927D02*
X129376651Y-66937593D01*
X129376651Y-66635213D02*
X129376651Y-65849022D01*
X129376651Y-65849022D02*
X129860460Y-66272356D01*
X129860460Y-66272356D02*
X129860460Y-66090927D01*
X129860460Y-66090927D02*
X129920936Y-65969975D01*
X129920936Y-65969975D02*
X129981413Y-65909499D01*
X129981413Y-65909499D02*
X130102365Y-65849022D01*
X130102365Y-65849022D02*
X130404746Y-65849022D01*
X130404746Y-65849022D02*
X130525698Y-65909499D01*
X130525698Y-65909499D02*
X130586175Y-65969975D01*
X130586175Y-65969975D02*
X130646651Y-66090927D01*
X130646651Y-66090927D02*
X130646651Y-66453784D01*
X130646651Y-66453784D02*
X130586175Y-66574737D01*
X130586175Y-66574737D02*
X130525698Y-66635213D01*
X125067882Y-112358651D02*
X124342167Y-112358651D01*
X124705024Y-112358651D02*
X124705024Y-111088651D01*
X124705024Y-111088651D02*
X124584072Y-111270079D01*
X124584072Y-111270079D02*
X124463120Y-111391032D01*
X124463120Y-111391032D02*
X124342167Y-111451508D01*
X125551691Y-111209603D02*
X125612167Y-111149127D01*
X125612167Y-111149127D02*
X125733120Y-111088651D01*
X125733120Y-111088651D02*
X126035501Y-111088651D01*
X126035501Y-111088651D02*
X126156453Y-111149127D01*
X126156453Y-111149127D02*
X126216929Y-111209603D01*
X126216929Y-111209603D02*
X126277406Y-111330555D01*
X126277406Y-111330555D02*
X126277406Y-111451508D01*
X126277406Y-111451508D02*
X126216929Y-111632936D01*
X126216929Y-111632936D02*
X125491215Y-112358651D01*
X125491215Y-112358651D02*
X126277406Y-112358651D01*
D12*
X108870868Y-83021321D02*
X109657059Y-83021321D01*
X109657059Y-83021321D02*
X109233725Y-83505130D01*
X109233725Y-83505130D02*
X109415154Y-83505130D01*
X109415154Y-83505130D02*
X109536106Y-83565606D01*
X109536106Y-83565606D02*
X109596582Y-83626083D01*
X109596582Y-83626083D02*
X109657059Y-83747035D01*
X109657059Y-83747035D02*
X109657059Y-84049416D01*
X109657059Y-84049416D02*
X109596582Y-84170368D01*
X109596582Y-84170368D02*
X109536106Y-84230845D01*
X109536106Y-84230845D02*
X109415154Y-84291321D01*
X109415154Y-84291321D02*
X109052297Y-84291321D01*
X109052297Y-84291321D02*
X108931344Y-84230845D01*
X108931344Y-84230845D02*
X108870868Y-84170368D01*
X110019916Y-83021321D02*
X110443249Y-84291321D01*
X110443249Y-84291321D02*
X110866583Y-83021321D01*
X111168963Y-83021321D02*
X111955154Y-83021321D01*
X111955154Y-83021321D02*
X111531820Y-83505130D01*
X111531820Y-83505130D02*
X111713249Y-83505130D01*
X111713249Y-83505130D02*
X111834201Y-83565606D01*
X111834201Y-83565606D02*
X111894677Y-83626083D01*
X111894677Y-83626083D02*
X111955154Y-83747035D01*
X111955154Y-83747035D02*
X111955154Y-84049416D01*
X111955154Y-84049416D02*
X111894677Y-84170368D01*
X111894677Y-84170368D02*
X111834201Y-84230845D01*
X111834201Y-84230845D02*
X111713249Y-84291321D01*
X111713249Y-84291321D02*
X111350392Y-84291321D01*
X111350392Y-84291321D02*
X111229439Y-84230845D01*
X111229439Y-84230845D02*
X111168963Y-84170368D01*
D11*
X145139355Y-100928651D02*
X144534593Y-100928651D01*
X144534593Y-100928651D02*
X144474117Y-101533413D01*
X144474117Y-101533413D02*
X144534593Y-101472936D01*
X144534593Y-101472936D02*
X144655546Y-101412460D01*
X144655546Y-101412460D02*
X144957927Y-101412460D01*
X144957927Y-101412460D02*
X145078879Y-101472936D01*
X145078879Y-101472936D02*
X145139355Y-101533413D01*
X145139355Y-101533413D02*
X145199832Y-101654365D01*
X145199832Y-101654365D02*
X145199832Y-101956746D01*
X145199832Y-101956746D02*
X145139355Y-102077698D01*
X145139355Y-102077698D02*
X145078879Y-102138175D01*
X145078879Y-102138175D02*
X144957927Y-102198651D01*
X144957927Y-102198651D02*
X144655546Y-102198651D01*
X144655546Y-102198651D02*
X144534593Y-102138175D01*
X144534593Y-102138175D02*
X144474117Y-102077698D01*
D12*
X109657059Y-86256797D02*
X109536106Y-86196321D01*
X109536106Y-86196321D02*
X109354678Y-86196321D01*
X109354678Y-86196321D02*
X109173249Y-86256797D01*
X109173249Y-86256797D02*
X109052297Y-86377749D01*
X109052297Y-86377749D02*
X108991820Y-86498702D01*
X108991820Y-86498702D02*
X108931344Y-86740606D01*
X108931344Y-86740606D02*
X108931344Y-86922035D01*
X108931344Y-86922035D02*
X108991820Y-87163940D01*
X108991820Y-87163940D02*
X109052297Y-87284892D01*
X109052297Y-87284892D02*
X109173249Y-87405845D01*
X109173249Y-87405845D02*
X109354678Y-87466321D01*
X109354678Y-87466321D02*
X109475630Y-87466321D01*
X109475630Y-87466321D02*
X109657059Y-87405845D01*
X109657059Y-87405845D02*
X109717535Y-87345368D01*
X109717535Y-87345368D02*
X109717535Y-86922035D01*
X109717535Y-86922035D02*
X109475630Y-86922035D01*
X110261820Y-87466321D02*
X110261820Y-86196321D01*
X110261820Y-86196321D02*
X110987535Y-87466321D01*
X110987535Y-87466321D02*
X110987535Y-86196321D01*
X111592296Y-87466321D02*
X111592296Y-86196321D01*
X111592296Y-86196321D02*
X111894677Y-86196321D01*
X111894677Y-86196321D02*
X112076106Y-86256797D01*
X112076106Y-86256797D02*
X112197058Y-86377749D01*
X112197058Y-86377749D02*
X112257535Y-86498702D01*
X112257535Y-86498702D02*
X112318011Y-86740606D01*
X112318011Y-86740606D02*
X112318011Y-86922035D01*
X112318011Y-86922035D02*
X112257535Y-87163940D01*
X112257535Y-87163940D02*
X112197058Y-87284892D01*
X112197058Y-87284892D02*
X112076106Y-87405845D01*
X112076106Y-87405845D02*
X111894677Y-87466321D01*
X111894677Y-87466321D02*
X111592296Y-87466321D01*
D11*
X143264593Y-83187603D02*
X143325069Y-83127127D01*
X143325069Y-83127127D02*
X143446022Y-83066651D01*
X143446022Y-83066651D02*
X143748403Y-83066651D01*
X143748403Y-83066651D02*
X143869355Y-83127127D01*
X143869355Y-83127127D02*
X143929831Y-83187603D01*
X143929831Y-83187603D02*
X143990308Y-83308555D01*
X143990308Y-83308555D02*
X143990308Y-83429508D01*
X143990308Y-83429508D02*
X143929831Y-83610936D01*
X143929831Y-83610936D02*
X143204117Y-84336651D01*
X143204117Y-84336651D02*
X143990308Y-84336651D01*
X144413641Y-83066651D02*
X145199832Y-83066651D01*
X145199832Y-83066651D02*
X144776498Y-83550460D01*
X144776498Y-83550460D02*
X144957927Y-83550460D01*
X144957927Y-83550460D02*
X145078879Y-83610936D01*
X145078879Y-83610936D02*
X145139355Y-83671413D01*
X145139355Y-83671413D02*
X145199832Y-83792365D01*
X145199832Y-83792365D02*
X145199832Y-84094746D01*
X145199832Y-84094746D02*
X145139355Y-84215698D01*
X145139355Y-84215698D02*
X145078879Y-84276175D01*
X145078879Y-84276175D02*
X144957927Y-84336651D01*
X144957927Y-84336651D02*
X144595070Y-84336651D01*
X144595070Y-84336651D02*
X144474117Y-84276175D01*
X144474117Y-84276175D02*
X144413641Y-84215698D01*
D12*
X108991820Y-73623321D02*
X108991820Y-72353321D01*
X108991820Y-72353321D02*
X109415154Y-73260464D01*
X109415154Y-73260464D02*
X109838487Y-72353321D01*
X109838487Y-72353321D02*
X109838487Y-73623321D01*
X110443249Y-73623321D02*
X110443249Y-72353321D01*
X110987535Y-73562845D02*
X111168964Y-73623321D01*
X111168964Y-73623321D02*
X111471345Y-73623321D01*
X111471345Y-73623321D02*
X111592297Y-73562845D01*
X111592297Y-73562845D02*
X111652773Y-73502368D01*
X111652773Y-73502368D02*
X111713250Y-73381416D01*
X111713250Y-73381416D02*
X111713250Y-73260464D01*
X111713250Y-73260464D02*
X111652773Y-73139511D01*
X111652773Y-73139511D02*
X111592297Y-73079035D01*
X111592297Y-73079035D02*
X111471345Y-73018559D01*
X111471345Y-73018559D02*
X111229440Y-72958083D01*
X111229440Y-72958083D02*
X111108488Y-72897606D01*
X111108488Y-72897606D02*
X111048011Y-72837130D01*
X111048011Y-72837130D02*
X110987535Y-72716178D01*
X110987535Y-72716178D02*
X110987535Y-72595225D01*
X110987535Y-72595225D02*
X111048011Y-72474273D01*
X111048011Y-72474273D02*
X111108488Y-72413797D01*
X111108488Y-72413797D02*
X111229440Y-72353321D01*
X111229440Y-72353321D02*
X111531821Y-72353321D01*
X111531821Y-72353321D02*
X111713250Y-72413797D01*
X112499440Y-72353321D02*
X112741345Y-72353321D01*
X112741345Y-72353321D02*
X112862297Y-72413797D01*
X112862297Y-72413797D02*
X112983250Y-72534749D01*
X112983250Y-72534749D02*
X113043726Y-72776654D01*
X113043726Y-72776654D02*
X113043726Y-73199987D01*
X113043726Y-73199987D02*
X112983250Y-73441892D01*
X112983250Y-73441892D02*
X112862297Y-73562845D01*
X112862297Y-73562845D02*
X112741345Y-73623321D01*
X112741345Y-73623321D02*
X112499440Y-73623321D01*
X112499440Y-73623321D02*
X112378488Y-73562845D01*
X112378488Y-73562845D02*
X112257535Y-73441892D01*
X112257535Y-73441892D02*
X112197059Y-73199987D01*
X112197059Y-73199987D02*
X112197059Y-72776654D01*
X112197059Y-72776654D02*
X112257535Y-72534749D01*
X112257535Y-72534749D02*
X112378488Y-72413797D01*
X112378488Y-72413797D02*
X112499440Y-72353321D01*
D14*
X127071666Y-70514819D02*
X127071666Y-71229104D01*
X127071666Y-71229104D02*
X127024047Y-71371961D01*
X127024047Y-71371961D02*
X126928809Y-71467200D01*
X126928809Y-71467200D02*
X126785952Y-71514819D01*
X126785952Y-71514819D02*
X126690714Y-71514819D01*
X127976428Y-70848152D02*
X127976428Y-71514819D01*
X127738333Y-70467200D02*
X127500238Y-71181485D01*
X127500238Y-71181485D02*
X128119285Y-71181485D01*
X105787866Y-62599219D02*
X105787866Y-63313504D01*
X105787866Y-63313504D02*
X105740247Y-63456361D01*
X105740247Y-63456361D02*
X105645009Y-63551600D01*
X105645009Y-63551600D02*
X105502152Y-63599219D01*
X105502152Y-63599219D02*
X105406914Y-63599219D01*
X106740247Y-62599219D02*
X106264057Y-62599219D01*
X106264057Y-62599219D02*
X106216438Y-63075409D01*
X106216438Y-63075409D02*
X106264057Y-63027790D01*
X106264057Y-63027790D02*
X106359295Y-62980171D01*
X106359295Y-62980171D02*
X106597390Y-62980171D01*
X106597390Y-62980171D02*
X106692628Y-63027790D01*
X106692628Y-63027790D02*
X106740247Y-63075409D01*
X106740247Y-63075409D02*
X106787866Y-63170647D01*
X106787866Y-63170647D02*
X106787866Y-63408742D01*
X106787866Y-63408742D02*
X106740247Y-63503980D01*
X106740247Y-63503980D02*
X106692628Y-63551600D01*
X106692628Y-63551600D02*
X106597390Y-63599219D01*
X106597390Y-63599219D02*
X106359295Y-63599219D01*
X106359295Y-63599219D02*
X106264057Y-63551600D01*
X106264057Y-63551600D02*
X106216438Y-63503980D01*
X181911666Y-93839819D02*
X181911666Y-94554104D01*
X181911666Y-94554104D02*
X181864047Y-94696961D01*
X181864047Y-94696961D02*
X181768809Y-94792200D01*
X181768809Y-94792200D02*
X181625952Y-94839819D01*
X181625952Y-94839819D02*
X181530714Y-94839819D01*
X182292619Y-93839819D02*
X182911666Y-93839819D01*
X182911666Y-93839819D02*
X182578333Y-94220771D01*
X182578333Y-94220771D02*
X182721190Y-94220771D01*
X182721190Y-94220771D02*
X182816428Y-94268390D01*
X182816428Y-94268390D02*
X182864047Y-94316009D01*
X182864047Y-94316009D02*
X182911666Y-94411247D01*
X182911666Y-94411247D02*
X182911666Y-94649342D01*
X182911666Y-94649342D02*
X182864047Y-94744580D01*
X182864047Y-94744580D02*
X182816428Y-94792200D01*
X182816428Y-94792200D02*
X182721190Y-94839819D01*
X182721190Y-94839819D02*
X182435476Y-94839819D01*
X182435476Y-94839819D02*
X182340238Y-94792200D01*
X182340238Y-94792200D02*
X182292619Y-94744580D01*
X121586666Y-80504819D02*
X121586666Y-81219104D01*
X121586666Y-81219104D02*
X121539047Y-81361961D01*
X121539047Y-81361961D02*
X121443809Y-81457200D01*
X121443809Y-81457200D02*
X121300952Y-81504819D01*
X121300952Y-81504819D02*
X121205714Y-81504819D01*
X122015238Y-80600057D02*
X122062857Y-80552438D01*
X122062857Y-80552438D02*
X122158095Y-80504819D01*
X122158095Y-80504819D02*
X122396190Y-80504819D01*
X122396190Y-80504819D02*
X122491428Y-80552438D01*
X122491428Y-80552438D02*
X122539047Y-80600057D01*
X122539047Y-80600057D02*
X122586666Y-80695295D01*
X122586666Y-80695295D02*
X122586666Y-80790533D01*
X122586666Y-80790533D02*
X122539047Y-80933390D01*
X122539047Y-80933390D02*
X121967619Y-81504819D01*
X121967619Y-81504819D02*
X122586666Y-81504819D01*
X146986666Y-80504819D02*
X146986666Y-81219104D01*
X146986666Y-81219104D02*
X146939047Y-81361961D01*
X146939047Y-81361961D02*
X146843809Y-81457200D01*
X146843809Y-81457200D02*
X146700952Y-81504819D01*
X146700952Y-81504819D02*
X146605714Y-81504819D01*
X147986666Y-81504819D02*
X147415238Y-81504819D01*
X147700952Y-81504819D02*
X147700952Y-80504819D01*
X147700952Y-80504819D02*
X147605714Y-80647676D01*
X147605714Y-80647676D02*
X147510476Y-80742914D01*
X147510476Y-80742914D02*
X147415238Y-80790533D01*
X116673333Y-109674819D02*
X116340000Y-109198628D01*
X116101905Y-109674819D02*
X116101905Y-108674819D01*
X116101905Y-108674819D02*
X116482857Y-108674819D01*
X116482857Y-108674819D02*
X116578095Y-108722438D01*
X116578095Y-108722438D02*
X116625714Y-108770057D01*
X116625714Y-108770057D02*
X116673333Y-108865295D01*
X116673333Y-108865295D02*
X116673333Y-109008152D01*
X116673333Y-109008152D02*
X116625714Y-109103390D01*
X116625714Y-109103390D02*
X116578095Y-109151009D01*
X116578095Y-109151009D02*
X116482857Y-109198628D01*
X116482857Y-109198628D02*
X116101905Y-109198628D01*
X117054286Y-108770057D02*
X117101905Y-108722438D01*
X117101905Y-108722438D02*
X117197143Y-108674819D01*
X117197143Y-108674819D02*
X117435238Y-108674819D01*
X117435238Y-108674819D02*
X117530476Y-108722438D01*
X117530476Y-108722438D02*
X117578095Y-108770057D01*
X117578095Y-108770057D02*
X117625714Y-108865295D01*
X117625714Y-108865295D02*
X117625714Y-108960533D01*
X117625714Y-108960533D02*
X117578095Y-109103390D01*
X117578095Y-109103390D02*
X117006667Y-109674819D01*
X117006667Y-109674819D02*
X117625714Y-109674819D01*
X106346666Y-109265819D02*
X106346666Y-109980104D01*
X106346666Y-109980104D02*
X106299047Y-110122961D01*
X106299047Y-110122961D02*
X106203809Y-110218200D01*
X106203809Y-110218200D02*
X106060952Y-110265819D01*
X106060952Y-110265819D02*
X105965714Y-110265819D01*
X106965714Y-109694390D02*
X106870476Y-109646771D01*
X106870476Y-109646771D02*
X106822857Y-109599152D01*
X106822857Y-109599152D02*
X106775238Y-109503914D01*
X106775238Y-109503914D02*
X106775238Y-109456295D01*
X106775238Y-109456295D02*
X106822857Y-109361057D01*
X106822857Y-109361057D02*
X106870476Y-109313438D01*
X106870476Y-109313438D02*
X106965714Y-109265819D01*
X106965714Y-109265819D02*
X107156190Y-109265819D01*
X107156190Y-109265819D02*
X107251428Y-109313438D01*
X107251428Y-109313438D02*
X107299047Y-109361057D01*
X107299047Y-109361057D02*
X107346666Y-109456295D01*
X107346666Y-109456295D02*
X107346666Y-109503914D01*
X107346666Y-109503914D02*
X107299047Y-109599152D01*
X107299047Y-109599152D02*
X107251428Y-109646771D01*
X107251428Y-109646771D02*
X107156190Y-109694390D01*
X107156190Y-109694390D02*
X106965714Y-109694390D01*
X106965714Y-109694390D02*
X106870476Y-109742009D01*
X106870476Y-109742009D02*
X106822857Y-109789628D01*
X106822857Y-109789628D02*
X106775238Y-109884866D01*
X106775238Y-109884866D02*
X106775238Y-110075342D01*
X106775238Y-110075342D02*
X106822857Y-110170580D01*
X106822857Y-110170580D02*
X106870476Y-110218200D01*
X106870476Y-110218200D02*
X106965714Y-110265819D01*
X106965714Y-110265819D02*
X107156190Y-110265819D01*
X107156190Y-110265819D02*
X107251428Y-110218200D01*
X107251428Y-110218200D02*
X107299047Y-110170580D01*
X107299047Y-110170580D02*
X107346666Y-110075342D01*
X107346666Y-110075342D02*
X107346666Y-109884866D01*
X107346666Y-109884866D02*
X107299047Y-109789628D01*
X107299047Y-109789628D02*
X107251428Y-109742009D01*
X107251428Y-109742009D02*
X107156190Y-109694390D01*
X106346666Y-91739819D02*
X106346666Y-92454104D01*
X106346666Y-92454104D02*
X106299047Y-92596961D01*
X106299047Y-92596961D02*
X106203809Y-92692200D01*
X106203809Y-92692200D02*
X106060952Y-92739819D01*
X106060952Y-92739819D02*
X105965714Y-92739819D01*
X106727619Y-91739819D02*
X107394285Y-91739819D01*
X107394285Y-91739819D02*
X106965714Y-92739819D01*
X106346666Y-80944819D02*
X106346666Y-81659104D01*
X106346666Y-81659104D02*
X106299047Y-81801961D01*
X106299047Y-81801961D02*
X106203809Y-81897200D01*
X106203809Y-81897200D02*
X106060952Y-81944819D01*
X106060952Y-81944819D02*
X105965714Y-81944819D01*
X107251428Y-80944819D02*
X107060952Y-80944819D01*
X107060952Y-80944819D02*
X106965714Y-80992438D01*
X106965714Y-80992438D02*
X106918095Y-81040057D01*
X106918095Y-81040057D02*
X106822857Y-81182914D01*
X106822857Y-81182914D02*
X106775238Y-81373390D01*
X106775238Y-81373390D02*
X106775238Y-81754342D01*
X106775238Y-81754342D02*
X106822857Y-81849580D01*
X106822857Y-81849580D02*
X106870476Y-81897200D01*
X106870476Y-81897200D02*
X106965714Y-81944819D01*
X106965714Y-81944819D02*
X107156190Y-81944819D01*
X107156190Y-81944819D02*
X107251428Y-81897200D01*
X107251428Y-81897200D02*
X107299047Y-81849580D01*
X107299047Y-81849580D02*
X107346666Y-81754342D01*
X107346666Y-81754342D02*
X107346666Y-81516247D01*
X107346666Y-81516247D02*
X107299047Y-81421009D01*
X107299047Y-81421009D02*
X107251428Y-81373390D01*
X107251428Y-81373390D02*
X107156190Y-81325771D01*
X107156190Y-81325771D02*
X106965714Y-81325771D01*
X106965714Y-81325771D02*
X106870476Y-81373390D01*
X106870476Y-81373390D02*
X106822857Y-81421009D01*
X106822857Y-81421009D02*
X106775238Y-81516247D01*
X164933333Y-78008819D02*
X164600000Y-77532628D01*
X164361905Y-78008819D02*
X164361905Y-77008819D01*
X164361905Y-77008819D02*
X164742857Y-77008819D01*
X164742857Y-77008819D02*
X164838095Y-77056438D01*
X164838095Y-77056438D02*
X164885714Y-77104057D01*
X164885714Y-77104057D02*
X164933333Y-77199295D01*
X164933333Y-77199295D02*
X164933333Y-77342152D01*
X164933333Y-77342152D02*
X164885714Y-77437390D01*
X164885714Y-77437390D02*
X164838095Y-77485009D01*
X164838095Y-77485009D02*
X164742857Y-77532628D01*
X164742857Y-77532628D02*
X164361905Y-77532628D01*
X165885714Y-78008819D02*
X165314286Y-78008819D01*
X165600000Y-78008819D02*
X165600000Y-77008819D01*
X165600000Y-77008819D02*
X165504762Y-77151676D01*
X165504762Y-77151676D02*
X165409524Y-77246914D01*
X165409524Y-77246914D02*
X165314286Y-77294533D01*
X154201905Y-81734819D02*
X154201905Y-80734819D01*
X154201905Y-80734819D02*
X154440000Y-80734819D01*
X154440000Y-80734819D02*
X154582857Y-80782438D01*
X154582857Y-80782438D02*
X154678095Y-80877676D01*
X154678095Y-80877676D02*
X154725714Y-80972914D01*
X154725714Y-80972914D02*
X154773333Y-81163390D01*
X154773333Y-81163390D02*
X154773333Y-81306247D01*
X154773333Y-81306247D02*
X154725714Y-81496723D01*
X154725714Y-81496723D02*
X154678095Y-81591961D01*
X154678095Y-81591961D02*
X154582857Y-81687200D01*
X154582857Y-81687200D02*
X154440000Y-81734819D01*
X154440000Y-81734819D02*
X154201905Y-81734819D01*
X155725714Y-81734819D02*
X155154286Y-81734819D01*
X155440000Y-81734819D02*
X155440000Y-80734819D01*
X155440000Y-80734819D02*
X155344762Y-80877676D01*
X155344762Y-80877676D02*
X155249524Y-80972914D01*
X155249524Y-80972914D02*
X155154286Y-81020533D01*
D15*
%TO.C,J4*%
X131445000Y-69730000D02*
X144205000Y-69730000D01*
X128845000Y-69730000D02*
X130175000Y-69730000D01*
X128845000Y-71060000D02*
X128845000Y-69730000D01*
X144205000Y-72390000D02*
X144205000Y-69730000D01*
X131445000Y-72390000D02*
X131445000Y-69730000D01*
X131445000Y-72390000D02*
X144205000Y-72390000D01*
%TO.C,J5*%
X108010000Y-76962000D02*
X108010000Y-64202000D01*
X108010000Y-76962000D02*
X105350000Y-76962000D01*
X108010000Y-64202000D02*
X105350000Y-64202000D01*
X106680000Y-79562000D02*
X105350000Y-79562000D01*
X105350000Y-79562000D02*
X105350000Y-78232000D01*
X105350000Y-76962000D02*
X105350000Y-64202000D01*
%TO.C,J3*%
X180915000Y-98425000D02*
X180915000Y-113725000D01*
X180915000Y-98425000D02*
X183575000Y-98425000D01*
X180915000Y-113725000D02*
X183575000Y-113725000D01*
X182245000Y-95825000D02*
X183575000Y-95825000D01*
X183575000Y-95825000D02*
X183575000Y-97155000D01*
X183575000Y-98425000D02*
X183575000Y-113725000D01*
%TO.C,J2*%
X120590000Y-85090000D02*
X120590000Y-120710000D01*
X120590000Y-85090000D02*
X123250000Y-85090000D01*
X120590000Y-120710000D02*
X123250000Y-120710000D01*
X121920000Y-82490000D02*
X123250000Y-82490000D01*
X123250000Y-82490000D02*
X123250000Y-83820000D01*
X123250000Y-85090000D02*
X123250000Y-120710000D01*
%TO.C,J1*%
X145990000Y-85090000D02*
X145990000Y-120710000D01*
X145990000Y-85090000D02*
X148650000Y-85090000D01*
X145990000Y-120710000D02*
X148650000Y-120710000D01*
X147320000Y-82490000D02*
X148650000Y-82490000D01*
X148650000Y-82490000D02*
X148650000Y-83820000D01*
X148650000Y-85090000D02*
X148650000Y-120710000D01*
%TO.C,R2*%
X115470000Y-98965000D02*
X115470000Y-105505000D01*
X115470000Y-105505000D02*
X118210000Y-105505000D01*
X116840000Y-98195000D02*
X116840000Y-98965000D01*
X116840000Y-106275000D02*
X116840000Y-105505000D01*
X118210000Y-98965000D02*
X115470000Y-98965000D01*
X118210000Y-105505000D02*
X118210000Y-98965000D01*
%TO.C,J8*%
X105350000Y-110811000D02*
X106680000Y-110811000D01*
X105350000Y-112141000D02*
X105350000Y-110811000D01*
X105350000Y-113411000D02*
X105350000Y-116011000D01*
X105350000Y-113411000D02*
X108010000Y-113411000D01*
X105350000Y-116011000D02*
X108010000Y-116011000D01*
X108010000Y-113411000D02*
X108010000Y-116011000D01*
%TO.C,J7*%
X105350000Y-93285000D02*
X106680000Y-93285000D01*
X105350000Y-94615000D02*
X105350000Y-93285000D01*
X105350000Y-95885000D02*
X105350000Y-98485000D01*
X105350000Y-95885000D02*
X108010000Y-95885000D01*
X105350000Y-98485000D02*
X108010000Y-98485000D01*
X108010000Y-95885000D02*
X108010000Y-98485000D01*
%TO.C,J6*%
X105350000Y-82490000D02*
X106680000Y-82490000D01*
X105350000Y-83820000D02*
X105350000Y-82490000D01*
X105350000Y-85090000D02*
X105350000Y-90230000D01*
X105350000Y-85090000D02*
X108010000Y-85090000D01*
X105350000Y-90230000D02*
X108010000Y-90230000D01*
X108010000Y-85090000D02*
X108010000Y-90230000D01*
%TO.C,R1*%
X161060000Y-75184000D02*
X161830000Y-75184000D01*
X161830000Y-73814000D02*
X161830000Y-76554000D01*
X161830000Y-76554000D02*
X168370000Y-76554000D01*
X168370000Y-73814000D02*
X161830000Y-73814000D01*
X168370000Y-76554000D02*
X168370000Y-73814000D01*
X169140000Y-75184000D02*
X168370000Y-75184000D01*
%TO.C,D1*%
X157500000Y-76856000D02*
X157500000Y-73766000D01*
X151950000Y-75310952D02*
G75*
G02*
X157500000Y-73766170I2990000J-48D01*
G01*
X157500000Y-76855830D02*
G75*
G02*
X151950000Y-75311048I-2560000J1544830D01*
G01*
X157440000Y-75311000D02*
G75*
G02*
X152440000Y-75311000I-2500000J0D01*
G01*
X152440000Y-75311000D02*
G75*
G02*
X157440000Y-75311000I2500000J0D01*
G01*
%TD*%
M02*
