M48
; DRILL file {KiCad 9.0.0} date 2025-03-29T18:07:36-0500
; FORMAT={-:-/ absolute / metric / decimal}
; #@! TF.CreationDate,2025-03-29T18:07:36-05:00
; #@! TF.GenerationSoftware,Kicad,Pcbnew,9.0.0
; #@! TF.FileFunction,Plated,1,2,PTH
FMAT,2
METRIC
; #@! TA.AperFunction,Plated,PTH,ViaDrill
T1C0.300
; #@! TA.AperFunction,Plated,PTH,ComponentDrill
T2C0.800
; #@! TA.AperFunction,Plated,PTH,ComponentDrill
T3C0.900
; #@! TA.AperFunction,Plated,PTH,ComponentDrill
T4C1.000
%
G90
G05
T1
X114.554Y-64.334
X114.554Y-65.715
X114.935Y-92.075
X115.117Y-63.047
X115.443Y-65.715
X116.51Y-93.015
X139.7Y-95.25
X139.7Y-97.79
X151.765Y-96.465
X151.765Y-97.846
T2
X116.84Y-97.155
X116.84Y-107.315
X160.02Y-75.184
X170.18Y-75.184
T3
X153.67Y-75.311
X156.21Y-75.311
T4
X106.68Y-65.532
X106.68Y-68.072
X106.68Y-70.612
X106.68Y-73.152
X106.68Y-75.692
X106.68Y-78.232
X106.68Y-83.82
X106.68Y-86.36
X106.68Y-88.9
X106.68Y-94.615
X106.68Y-97.155
X106.68Y-112.141
X106.68Y-114.681
X121.92Y-83.82
X121.92Y-86.36
X121.92Y-88.9
X121.92Y-91.44
X121.92Y-93.98
X121.92Y-96.52
X121.92Y-99.06
X121.92Y-101.6
X121.92Y-104.14
X121.92Y-106.68
X121.92Y-109.22
X121.92Y-111.76
X121.92Y-114.3
X121.92Y-116.84
X121.92Y-119.38
X130.175Y-71.06
X132.715Y-71.06
X135.255Y-71.06
X137.795Y-71.06
X140.335Y-71.06
X142.875Y-71.06
X147.32Y-83.82
X147.32Y-86.36
X147.32Y-88.9
X147.32Y-91.44
X147.32Y-93.98
X147.32Y-96.52
X147.32Y-99.06
X147.32Y-101.6
X147.32Y-104.14
X147.32Y-106.68
X147.32Y-109.22
X147.32Y-111.76
X147.32Y-114.3
X147.32Y-116.84
X147.32Y-119.38
X182.245Y-97.155
X182.245Y-99.695
X182.245Y-102.235
X182.245Y-104.775
X182.245Y-107.315
X182.245Y-109.855
X182.245Y-112.395
M30
